<svg width="211" height="32" viewBox="0 0 211 32" fill="none" xmlns="http://www.w3.org/2000/svg">
<g id="Layer_1">
<path id="Vector" d="M28.7098 16C28.7098 23.0208 23.0221 28.7085 16.0014 28.7085C8.98064 28.7085 3.29297 23.0208 3.29297 16C3.29297 8.97922 8.98064 3.2915 16.0014 3.2915C23.0221 3.2915 28.7098 8.97922 28.7098 16Z" fill="#2776EA"/>
<path id="Vector_2" d="M28.6903 16.7177C28.5027 20.1145 26.982 23.1559 24.6418 25.325V24.9399L23.154 23.9459V20.967H20.1752V19.973L18.6875 18.979V15.0061L21.6663 13.0181H23.154L24.6418 14.0121H27.6206L28.4566 13.4525C28.608 14.1931 28.6936 14.9535 28.7101 15.7303L27.6206 15.0028V15.9969L28.6936 16.7111L28.6903 16.7177Z" fill="#73F4FA"/>
<path id="Vector_3" d="M12.7255 3.71569V5.07509H11.2377L10.4609 4.55503C11.1818 4.20613 11.9388 3.92306 12.7288 3.7124L12.7255 3.71569Z" fill="#73F4FA"/>
<path id="Vector_4" d="M23.1484 5.48975C23.29 5.58849 23.4315 5.68724 23.5697 5.78927L23.1484 6.07234V5.49304V5.48975Z" fill="#73F4FA"/>
<path id="Vector_5" d="M6.32398 24.2387C4.63216 22.2573 3.54269 19.7458 3.33203 16.9941H5.28059L6.76833 17.9882H9.74712V21.961L6.32398 24.242V24.2387Z" fill="#73F4FA"/>
<path id="Vector_6" d="M5.42578 8.95234C5.82734 8.35329 6.27498 7.79044 6.7687 7.26709V8.05705L5.42578 8.95234Z" fill="#73F4FA"/>
<path id="Vector_7" d="M18.6836 6.06923L20.1713 5.0752V8.05401L18.6836 7.05997V6.06594V6.06923Z" fill="#73F4FA"/>
<path id="Vector_8" d="M9.64112 17.5073C11.3955 17.5073 12.8174 15.3744 12.8174 12.7412C12.8174 10.108 11.3955 7.9751 9.64112 7.9751C7.88676 7.9751 6.46484 10.108 6.46484 12.7412C6.46484 15.3744 7.88676 17.5073 9.64112 17.5073Z" fill="white"/>
<path id="Vector_9" d="M15.3599 17.5073C17.1142 17.5073 18.5361 15.3744 18.5361 12.7412C18.5361 10.108 17.1142 7.9751 15.3599 7.9751C13.6055 7.9751 12.1836 10.108 12.1836 12.7412C12.1836 15.3744 13.6055 17.5073 15.3599 17.5073Z" fill="white"/>
<path id="Vector_10" d="M11.3973 12.9809C11.3973 13.8564 10.9727 14.5707 10.4428 14.5707C9.91288 14.5707 9.48828 13.8597 9.48828 12.9809C9.48828 12.1021 9.91288 11.3911 10.4428 11.3911C10.9727 11.3911 11.3973 12.1021 11.3973 12.9809Z" fill="#121212"/>
<path id="Vector_11" d="M17.1122 12.9814C17.1122 13.8569 16.6876 14.5712 16.1577 14.5712C15.6277 14.5712 15.2031 13.8602 15.2031 12.9814C15.2031 12.1026 15.6277 11.3916 16.1577 11.3916C16.6876 11.3916 17.1122 12.1026 17.1122 12.9814Z" fill="#121212"/>
<path id="Vector_12" d="M86.8752 11.9671C89.1529 11.9671 91.3878 13.4022 91.3878 17.3948V23.178C91.3878 23.8593 90.848 24.4221 90.1666 24.4221C89.4853 24.4221 88.9225 23.8593 88.9225 23.178V17.3948C88.9225 15.0446 87.5828 14.1066 86.0556 14.1066C83.8009 14.1066 82.8135 16.1276 82.672 17.138V23.178C82.672 23.8593 82.1091 24.4221 81.4278 24.4221C80.7464 24.4221 80.1836 23.8593 80.1836 23.178V8.77104C80.1836 8.0897 80.7464 7.52686 81.4278 7.52686C82.1091 7.52686 82.672 8.0897 82.672 8.77104V14.834C82.7872 14.0111 84.1992 11.9671 86.8785 11.9671H86.8752Z" fill="white"/>
<path id="Vector_13" d="M122.951 24.4254C123.633 24.4254 124.195 23.8626 124.195 23.1812V8.77104C124.195 8.0897 123.633 7.52686 122.951 7.52686C122.27 7.52686 121.707 8.0897 121.707 8.77104V23.178C121.707 23.8593 122.27 24.4221 122.951 24.4221V24.4254Z" fill="white"/>
<path id="Vector_14" fill-rule="evenodd" clip-rule="evenodd" d="M132.156 11.9443C134.835 11.9443 138.054 14.0608 138.054 17.7966C138.054 18.7577 137.514 19.1363 136.504 19.1363L128.63 19.1132C128.89 21.2988 130.605 22.3784 132.485 22.3784C133.446 22.3784 134.104 22.1447 134.835 21.6971C134.884 21.6707 134.934 21.6477 134.98 21.6214C135.302 21.4469 135.536 21.3218 135.822 21.3218C136.362 21.3218 136.691 21.7004 136.691 22.2171C136.691 22.5232 136.573 22.8491 136.056 23.2737C135.164 24.0011 133.87 24.4257 132.389 24.4257C129.332 24.4257 126.066 22.4541 126.066 18.2212C126.066 13.9884 129.473 11.9443 132.156 11.9443ZM132.156 14.1069C130.605 14.1069 128.841 15.0943 128.63 17.3259H135.631C135.421 15.0943 133.703 14.1069 132.152 14.1069H132.156Z" fill="white"/>
<path id="Vector_15" d="M77.2874 20.7366C77.8042 20.7366 78.2979 21.1151 78.2979 21.701C78.2979 22.198 77.9885 22.4942 77.7383 22.7312C77.7054 22.7641 77.6692 22.797 77.6396 22.8267C76.6291 23.8832 75.3125 24.4263 73.6931 24.4263C70.8986 24.4263 67.5117 22.3823 67.5117 18.1988C67.5117 14.0153 70.8954 11.9482 73.6931 11.9482C75.3125 11.9482 76.6324 12.488 77.6396 13.5479C77.6593 13.5644 77.6758 13.5841 77.6956 13.6006C77.7087 13.6137 77.7252 13.6269 77.7416 13.6401C77.9918 13.8804 78.3012 14.1766 78.3012 14.6703C78.3012 15.2562 77.8075 15.6347 77.2907 15.6347C76.82 15.6347 76.4678 15.3747 76.2802 15.1871C75.6483 14.4366 74.6608 14.1075 73.7886 14.1075C71.8137 14.1075 69.9836 15.5195 69.9836 18.1988C69.9836 20.8781 71.817 22.2671 73.7886 22.2671C74.6575 22.2671 75.645 21.938 76.2802 21.1875C76.4678 20.9999 76.82 20.7398 77.2907 20.7398L77.2874 20.7366Z" fill="white"/>
<path id="Vector_16" d="M58.9423 24.4717C56.6613 24.4717 54.4297 23.0366 54.4297 19.044V13.2608C54.4297 12.5794 54.9695 12.0166 55.6508 12.0166C56.3322 12.0166 56.895 12.5794 56.895 13.2608V19.044C56.895 21.3941 58.2346 22.3322 59.7619 22.3322C62.0198 22.3322 63.0073 20.3112 63.1455 19.3007V13.2608C63.1455 12.5794 63.7084 12.0166 64.3897 12.0166C65.071 12.0166 65.6339 12.5794 65.6339 13.2608V23.1551C65.6339 23.8594 65.071 24.4223 64.3897 24.4223C63.7084 24.4223 63.1455 23.8594 63.1455 23.1551V21.6048C63.0303 22.4276 61.6183 24.4717 58.939 24.4717H58.9423Z" fill="white"/>
<path id="Vector_17" fill-rule="evenodd" clip-rule="evenodd" d="M46.3337 11.9443C49.036 11.9443 52.5382 14.0377 52.5382 18.2212C52.5382 22.4047 49.036 24.4718 46.3337 24.4718C43.6314 24.4718 40.1523 22.4278 40.1523 18.2212C40.1523 14.0147 43.6314 11.9443 46.3337 11.9443ZM46.3337 14.1069C44.5234 14.1069 42.621 15.5419 42.621 18.2212C42.621 20.9005 44.5267 22.3126 46.3337 22.3126C48.1408 22.3126 50.0696 20.8775 50.0696 18.2212C50.0696 15.565 48.1638 14.1069 46.3337 14.1069Z" fill="white"/>
<path id="Vector_18" d="M38.206 22.168C38.7919 22.0758 39.2165 22.4511 39.2165 23.037C39.2165 24.0014 38.1106 24.4227 36.794 24.4227C35.3852 24.4227 33.9995 23.929 33.9995 21.2266V14.0808H33.1042C32.4953 14.0808 32.0938 13.6562 32.0938 13.0703C32.0938 12.4844 32.4953 12.0828 33.1042 12.0828H33.9995V10.2495C33.9995 9.59117 34.5393 9.02832 35.2207 9.02832C35.902 9.02832 36.4648 9.59117 36.4648 10.2495V12.0828H38.1797C38.7886 12.0828 39.2132 12.4614 39.2132 13.0703C39.2132 13.6792 38.7886 14.0808 38.1797 14.0808H36.4648V21.2497C36.4648 21.9541 36.7479 22.2832 37.2877 22.2832C37.4654 22.2832 37.6563 22.2503 37.8374 22.2207L37.8703 22.2141C37.8999 22.2108 37.9262 22.2042 37.9526 22.2009L37.9921 22.1943H38.0217C38.0842 22.1779 38.1468 22.1713 38.2027 22.1647L38.206 22.168Z" fill="white"/>
<path id="Vector_19" d="M119.822 18.1946C119.822 14.0111 116.672 11.9441 114.088 11.9441C112.35 11.9441 110.846 12.8393 110.233 14.1987V13.2574C110.233 13.1882 110.233 13.0928 110.21 13.0237V8.77104C110.21 8.0897 109.648 7.52686 108.989 7.52686C108.331 7.52686 107.719 8.0897 107.719 8.77104V16.0486C107.719 16.8254 108.351 17.454 109.124 17.454C109.779 17.454 110.322 16.9833 110.635 16.404C111.326 14.6266 112.593 14.0802 113.686 14.0802C115.401 14.0802 117.33 15.4199 117.33 18.1946C117.33 20.9694 115.401 22.332 113.686 22.332C112.6 22.332 111.346 21.7692 110.648 20.0049C110.332 19.4289 109.789 18.9615 109.134 18.9615C108.354 18.9615 107.719 19.5935 107.719 20.3769V23.201C107.719 23.8823 108.305 24.4452 108.986 24.4452C109.667 24.4452 110.23 23.8823 110.23 23.201V21.9338C110.395 22.9903 111.853 24.4715 114.084 24.4715C116.695 24.4715 119.818 22.4505 119.818 18.1946H119.822Z" fill="white"/>
<path id="Vector_20" d="M103.953 17.4582C104.733 17.4582 105.368 16.8263 105.368 16.0429V13.2155C105.368 12.5341 104.783 11.9713 104.098 11.9713C103.413 11.9713 102.854 12.5341 102.854 13.2155V14.2029C102.241 12.8402 100.737 11.9482 98.9994 11.9482C98.9698 11.9482 98.9434 11.9482 98.9138 11.9482C98.8842 11.9482 98.8578 11.9482 98.8282 11.9482C96.5472 12.0239 93.9338 13.6269 93.3742 16.8954C93.3051 17.3035 93.2656 17.7347 93.2656 18.1955V18.2186C93.2656 18.6761 93.3051 19.1106 93.3742 19.5187C93.9338 22.7872 96.5439 24.3901 98.8282 24.4658C98.8842 24.4658 98.9434 24.4658 98.9994 24.4658C100.737 24.4658 102.241 23.5738 102.854 22.2112V23.1986C102.854 23.8799 103.417 24.4428 104.098 24.4428C104.779 24.4428 105.368 23.8799 105.368 23.1986V20.3712C105.368 19.5911 104.733 18.9559 103.953 18.9559C103.298 18.9559 102.755 19.4232 102.439 19.9993C101.741 21.7635 100.487 22.3264 99.4009 22.3264C97.6861 22.3264 95.7606 20.9933 95.7573 18.2021C95.7639 15.4142 97.6861 14.0778 99.4009 14.0778C100.487 14.0778 101.741 14.6407 102.439 16.4049C102.752 16.981 103.298 17.4483 103.953 17.4483V17.4582Z" fill="white"/>
<path id="Vector_21" d="M144.523 15.1343C143.167 15.1343 141.738 16.2106 141.738 18.2184C141.738 20.2262 143.167 21.2861 144.523 21.2861C145.879 21.2861 147.324 20.2098 147.324 18.2184C147.324 16.2271 145.895 15.1343 144.523 15.1343Z" fill="#2776EA"/>
<path id="Vector_22" d="M207.161 17.3987C207.161 13.4028 204.929 11.971 202.648 11.971C199.969 11.971 198.56 14.015 198.441 14.8379V8.77495C198.441 8.09361 197.879 7.53076 197.197 7.53076C196.516 7.53076 195.953 8.09361 195.953 8.77495V23.1819C195.953 23.8632 196.516 24.4261 197.197 24.4261C197.879 24.4261 198.441 23.8632 198.441 23.1819V17.142C198.583 16.1315 199.57 14.1105 201.825 14.1105C203.352 14.1105 204.692 15.0518 204.692 17.3987V23.1819C204.692 23.8632 205.255 24.4261 205.936 24.4261C206.617 24.4261 207.157 23.8632 207.157 23.1819V17.3987H207.161Z" fill="white"/>
<path id="Vector_23" d="M193.304 22.168C193.89 22.0758 194.315 22.4511 194.315 23.037C194.315 24.0014 193.209 24.4227 191.892 24.4227C190.484 24.4227 189.098 23.929 189.098 21.2266V14.0808H188.206C187.597 14.0808 187.195 13.6562 187.195 13.0703C187.195 12.4844 187.594 12.0828 188.206 12.0828H189.098V10.2495C189.098 9.59117 189.638 9.02832 190.319 9.02832C191 9.02832 191.563 9.59117 191.563 10.2495V12.0828H193.278C193.887 12.0828 194.311 12.4614 194.311 13.0703C194.311 13.6792 193.89 14.0808 193.278 14.0808H191.563V21.2497C191.563 21.9541 191.846 22.2832 192.386 22.2832C192.564 22.2832 192.755 22.2503 192.936 22.2207L192.969 22.2141C192.995 22.2108 193.018 22.2075 193.041 22.2009H193.048C193.136 22.1878 193.222 22.1713 193.298 22.1647L193.304 22.168Z" fill="white"/>
<path id="Vector_24" d="M184.995 11.9678C185.818 11.9678 186.265 12.4845 186.265 13.1198C186.265 13.8242 185.726 14.2949 184.669 14.2949C182.602 14.2949 181.262 15.8945 181.098 17.1387V23.1786C181.098 23.86 180.535 24.4228 179.854 24.4228C179.172 24.4228 178.609 23.86 178.609 23.1786V13.2844C178.609 12.58 179.172 12.0171 179.854 12.0171C180.535 12.0171 181.098 12.58 181.098 13.2844V14.8347C181.213 14.0118 182.694 11.9678 184.998 11.9678H184.995Z" fill="white"/>
<path id="Vector_25" fill-rule="evenodd" clip-rule="evenodd" d="M169.878 11.9443C171.616 11.9443 173.124 12.8363 173.733 14.199V13.2609C173.733 12.5796 174.295 12.0167 174.977 12.0167C175.658 12.0167 176.247 12.5796 176.247 13.2609V23.2013C176.247 23.8826 175.661 24.4455 174.977 24.4455C174.292 24.4455 173.733 23.8826 173.733 23.2013V21.934C173.568 22.9906 172.11 24.4718 169.878 24.4718C167.271 24.4718 164.145 22.3784 164.145 18.1949C164.145 14.0114 167.294 11.9443 169.878 11.9443ZM170.28 22.3323C171.876 22.3323 173.851 21.1112 173.851 18.1949C173.851 15.2786 171.876 14.0805 170.28 14.0805C168.565 14.0805 166.636 15.3971 166.636 18.1949C166.636 20.9927 168.565 22.3323 170.28 22.3323Z" fill="white"/>
<path id="Vector_26" fill-rule="evenodd" clip-rule="evenodd" d="M157.066 11.9443C159.746 11.9443 162.965 14.0608 162.965 17.7966C162.965 18.761 162.425 19.1363 161.414 19.1363L153.541 19.1132C153.801 21.2988 155.516 22.3784 157.396 22.3784C158.36 22.3784 159.018 22.1447 159.746 21.6971C159.772 21.6839 159.795 21.6707 159.821 21.6576C159.844 21.6444 159.867 21.6312 159.89 21.6214C160.213 21.4469 160.447 21.3218 160.733 21.3218C161.273 21.3218 161.602 21.7004 161.602 22.2171C161.602 22.5232 161.487 22.8524 160.97 23.2737C160.078 24.0011 158.785 24.4257 157.303 24.4257C154.249 24.4257 150.98 22.4739 150.98 18.2212C150.98 13.9686 154.387 11.9443 157.066 11.9443ZM157.066 14.1069C155.516 14.1069 153.752 15.0943 153.541 17.3259H160.542C160.332 15.0943 158.636 14.1069 157.063 14.1069H157.066Z" fill="white"/>
</g>
</svg>
