<svg width="326" height="32" viewBox="0 0 326 32" fill="none" xmlns="http://www.w3.org/2000/svg">
<path d="M0.88 19.88V1.4H7.36V19.44C7.36 23.16 9.4 25.2 13.04 25.2C16.72 25.2 18.8 23.08 18.8 19.44V1.4H25.28V19.88C25.28 26.92 20.48 31.48 13.04 31.48C5.64 31.48 0.88 26.96 0.88 19.88ZM37.6363 31H31.2363V1.4H37.6363L50.1163 20.24V1.4H56.5163V31H50.1163L37.6363 12.2V31ZM81.4816 31H62.6816V1.4H81.4816V7.4H69.1616V13.2H80.0816V18.88H69.1616V25H81.4816V31ZM85.1431 10C85.1431 4.64 89.6631 0.84 96.0231 0.84C102.383 0.84 106.383 4.36 106.383 9.96H99.9431C99.9431 7.88 98.3831 6.6 95.9431 6.6C93.3031 6.6 91.6231 7.8 91.6231 9.76C91.6231 11.56 92.5431 12.44 94.6231 12.88L99.0631 13.8C104.343 14.88 106.863 17.4 106.863 22.08C106.863 27.8 102.383 31.52 95.5831 31.52C88.9831 31.52 84.7031 27.96 84.7031 22.4H91.1431C91.1431 24.56 92.7431 25.76 95.6231 25.76C98.5431 25.76 100.383 24.6 100.383 22.72C100.383 21.08 99.6231 20.24 97.6631 19.84L93.1431 18.92C87.8631 17.84 85.1431 14.84 85.1431 10ZM123.958 31.48C115.078 31.48 109.518 25.6 109.518 16.24C109.518 7 115.398 0.919999 124.238 0.919999C131.638 0.919999 136.958 5.16 137.878 11.8H131.038C130.158 8.84 127.638 7.16 124.078 7.16C119.278 7.16 116.358 10.56 116.358 16.2C116.358 21.76 119.318 25.24 124.078 25.24C127.718 25.24 130.398 23.44 131.198 20.52H137.918C136.878 27.12 131.358 31.48 123.958 31.48ZM169.612 16.16C169.612 25.2 163.652 31.48 155.052 31.48C146.492 31.48 140.612 25.24 140.612 16.2C140.612 7.16 146.532 0.879999 155.092 0.879999C163.692 0.879999 169.612 7.12 169.612 16.16ZM162.772 16.16C162.772 10.52 159.892 7.12 155.132 7.12C150.332 7.12 147.452 10.52 147.452 16.16C147.452 21.84 150.332 25.24 155.132 25.24C159.892 25.24 162.772 21.76 162.772 16.16ZM196.713 21.16H191.193V31H184.713V1.4H196.713C202.753 1.4 206.793 5.36 206.793 11.28C206.793 17.2 202.753 21.16 196.713 21.16ZM195.273 7.16H191.193V15.4H195.273C198.393 15.4 199.953 14.04 199.953 11.28C199.953 8.52 198.393 7.16 195.273 7.16ZM215.383 31.52C211.143 31.52 208.503 29.04 208.503 25.12C208.503 21.44 211.103 19.16 215.903 18.8L221.503 18.36V18.04C221.503 16.08 220.303 15.04 218.103 15.04C215.503 15.04 214.103 16.04 214.103 17.84H208.983C208.983 13.32 212.703 10.36 218.423 10.36C224.223 10.36 227.503 13.6 227.503 19.32V31H222.063L221.663 28.36C221.023 30.2 218.383 31.52 215.383 31.52ZM217.543 26.96C219.903 26.96 221.543 25.8 221.543 23.52V22.44L218.423 22.72C215.743 22.96 214.783 23.56 214.783 24.84C214.783 26.28 215.663 26.96 217.543 26.96ZM245.682 11V16.8H243.722C240.202 16.8 238.082 18.36 238.082 22.32V31H231.922V11.04H237.722L238.042 14C238.882 12.04 240.642 10.72 243.322 10.72C244.042 10.72 244.842 10.8 245.682 11ZM257.658 31H251.498V16.12H247.698V11H251.498V4.8H257.658V11H261.458V16.12H257.658V31ZM270.386 31H264.226V11H270.026L270.426 13.08C271.666 11.36 273.946 10.36 276.546 10.36C281.306 10.36 284.066 13.4 284.066 18.64V31H277.906V20.12C277.906 17.6 276.506 15.96 274.386 15.96C271.946 15.96 270.386 17.56 270.386 20.04V31ZM297.764 31.52C291.724 31.52 287.404 27.12 287.404 20.96C287.404 14.72 291.604 10.36 297.644 10.36C303.924 10.36 307.844 14.48 307.844 21V22.56L293.324 22.64C293.684 25.28 295.164 26.52 297.884 26.52C300.204 26.52 301.844 25.68 302.284 24.24H307.924C307.204 28.68 303.244 31.52 297.764 31.52ZM297.684 15.36C295.244 15.36 293.884 16.44 293.404 18.84H301.724C301.724 16.72 300.164 15.36 297.684 15.36ZM325.252 11V16.8H323.292C319.772 16.8 317.652 18.36 317.652 22.32V31H311.492V11.04H317.292L317.612 14C318.452 12.04 320.212 10.72 322.892 10.72C323.612 10.72 324.412 10.8 325.252 11Z" fill="white"/>
</svg>
