<svg width="240" height="409" viewBox="0 0 240 409" fill="none" xmlns="http://www.w3.org/2000/svg">
<path d="M13.022 283.86C-8.47155 243.837 4.06635 199.862 13.022 182.877L94.0857 160.643C107.365 174.539 133.738 206.965 132.996 225.494C132.07 248.655 145.967 283.86 189.973 311.653C225.178 333.888 237.994 357.667 240.001 366.777C225.023 362.299 190.065 358.995 170.054 381.6C150.043 404.205 126.82 408.621 117.71 408.004C114.622 399.974 105.018 380.488 91.3063 366.777C74.1671 349.637 39.8889 333.888 13.022 283.86Z" fill="#FFAEC7"/>
<path d="M67.2179 304.244C43.5935 282.009 35.7188 251.436 35.7188 234.297C38.4792 235.198 45.6 241.201 52 258.001C58.4 274.801 64.8119 295.829 67.2179 304.244Z" fill="#FF82A9"/>
<path d="M105.202 281.545C96.3082 286.362 115.702 314.743 126.51 328.33L117.317 302.907C116.925 301.824 118.487 300.952 119.226 301.836C130.309 315.089 151.46 335.586 172.832 341.301C134.385 319.529 116.319 275.523 105.202 281.545Z" fill="#FF82A9"/>
<path d="M124.193 68.9256C112.706 65.2198 99.3338 83.4399 94.084 93.0132L129.289 107.836C132.068 95.7925 135.681 72.6314 124.193 68.9256Z" fill="#A325E0"/>
<path fill-rule="evenodd" clip-rule="evenodd" d="M131.753 80.7924C124.369 76.3753 116.427 74.0185 110.326 72.9023C109.316 73.6843 108.322 74.5435 107.351 75.4586C113.803 76.3597 123.529 78.9011 132.067 84.5312C132.017 83.2466 131.915 81.9944 131.753 80.7924ZM131.735 93.4055C120.986 85.6574 108.048 82.9106 101.143 82.354C100.392 83.3139 99.6738 84.2801 98.9922 85.2369C99.0409 85.2429 99.0904 85.2466 99.1405 85.2478C105.137 85.394 119.9 87.9515 131.327 96.8472C131.482 95.713 131.62 94.562 131.735 93.4055Z" fill="#FFAEC7"/>
<path d="M42.2041 101.352C10.3344 119.881 9.7785 152.306 13.4843 166.203L21.3594 181.026L83.8945 178.71L132.533 221.326C141.643 221.635 160.975 215.304 165.422 187.511C170.98 152.769 161.253 137.946 143.65 116.175C126.048 94.4034 82.0413 78.1906 42.2041 101.352Z" fill="#FF90B2"/>
<ellipse cx="55.1746" cy="126.364" rx="28.2566" ry="28.7198" fill="#F05283"/>
<ellipse cx="139.481" cy="157.864" rx="28.2566" ry="28.7198" fill="#F05283"/>
<ellipse cx="58.8802" cy="122.66" rx="20.845" ry="21.3082" fill="#E6F3FC"/>
<ellipse cx="138.554" cy="153.232" rx="20.845" ry="21.3082" fill="#E6F3FC"/>
<path d="M90.3793 99.4981C91.8616 119.139 84.203 135.475 80.1884 141.188V123.122L79.2616 108.763L67.2181 95.7923L42.667 89.3072C38.0348 88.3807 29.2335 84.6749 31.0864 77.2634C32.9393 69.8518 42.3584 69.543 46.8363 70.315C45.9099 67.2269 45.5393 60.8653 51.4686 60.1241C57.3978 59.383 64.4388 64.7564 67.2181 67.5357C68.299 64.2932 70.8182 60.103 75.5561 61.0506C82.5041 62.4402 88.5264 74.9473 90.3793 99.4981Z" fill="#F05283"/>
<ellipse cx="75.1409" cy="202.788" rx="46.9405" ry="24.445" transform="rotate(17.2166 75.1409 202.788)" fill="#19406C"/>
<path fill-rule="evenodd" clip-rule="evenodd" d="M67.9075 226.138C92.6704 233.811 115.984 229.577 119.98 216.682C120.055 216.438 120.123 216.193 120.184 215.947C117.406 213.998 113.334 212.71 108.445 213.451C96.2157 215.304 93.7761 222.87 92.6952 227.348C91.7688 223.333 87.0439 216.971 79.2618 216.23C71.4796 215.489 67.3724 220.245 65.8283 222.715C65.9827 218.546 63.5122 210.808 56.5638 208.355C50.264 206.132 44.2112 208.047 41.7407 209.745C43.2848 206.657 44.1495 198.35 40.8143 193.532C38.4256 190.082 34.3103 188.01 31.089 186.941C30.7767 187.568 30.5147 188.219 30.3056 188.894C26.3096 201.79 43.1445 218.464 67.9075 226.138Z" fill="#E6F3FC"/>
<path d="M135.775 109.226C119.469 120.714 111.378 143.35 109.371 153.232L121.415 139.799L134.385 131.461L150.135 129.608C157.392 132.696 172.833 139.336 176.538 141.189C181.171 143.505 190.898 142.578 190.898 135.167C190.898 129.238 185.957 124.667 183.487 123.123C187.038 122.505 193.492 119.695 190.898 113.395C188.304 107.095 176.538 107.065 170.98 107.837C172.833 105.984 175.612 101.722 171.906 99.4986C167.274 96.7193 156.157 94.8664 135.775 109.226Z" fill="#F05283"/>
<path d="M132.533 126.366C120.675 132.666 111.225 147.52 107.982 154.159V169.446C109.716 161.417 116.405 143.691 129.291 137.02C145.398 128.682 153.378 137.483 160.327 143.968C167.275 150.454 174.687 149.99 177.466 146.285C180.245 142.579 182.561 131.461 170.054 124.513C160.094 118.98 147.356 118.491 132.533 126.366Z" fill="#A325E0"/>
<path d="M53.7847 100.424C59.8066 100.424 69.071 100.887 75.0929 111.078C81.6622 122.195 75.0929 146.746 75.0929 146.746C75.0929 146.746 79.2347 143.04 80.1884 140.724C89.9161 117.1 80.1884 88.8432 60.733 83.2845C41.2777 77.7259 32.9397 89.7696 36.1822 96.718C39.4248 103.666 47.7628 100.424 53.7847 100.424Z" fill="#A325E0"/>
<path d="M97.3281 134.241C84.9591 130.707 77.5639 141.189 75.5566 146.284L88.9901 162.034L108.909 158.328C110.298 151.38 110.298 137.947 97.3281 134.241Z" fill="#19406C"/>
<path d="M61.659 144.43C48.9392 149.428 50.8505 160.489 53.7842 166.665L99.18 189.363C112.15 193.995 129.104 183.526 122.804 167.591C116.504 151.657 98.4079 153.695 89.4523 156.474C86.2098 151.379 74.6287 139.335 61.659 144.43Z" fill="#A325E0"/>
<path d="M68.6058 154.621C74.1645 155.363 77.7159 161.106 78.7967 163.886C75.0909 164.967 67.0309 166.48 64.4368 163.886C61.1942 160.643 61.6575 153.695 68.6058 154.621Z" fill="#FF90B2"/>
<path d="M107.038 166.598C100.729 164.785 94.2219 169.284 91.7568 171.76C95.2224 174.66 103.154 180.068 107.155 178.501C112.155 176.542 114.924 168.866 107.038 166.598Z" fill="#FF90B2"/>
<path d="M110.761 181.489C98.9028 164.443 80.1886 160.644 68.1448 162.034C64.4389 162.96 52.139 165.476 39.4246 166.203C23.2118 167.129 21.3593 162.034 10.242 162.034C-0.875391 162.034 -2.26506 175.004 2.83039 181.489C7.92584 187.974 18.4508 188.901 25.9915 188.901C42.6672 188.901 63.0494 181.489 80.1886 188.901C97.3278 196.312 112.614 223.179 125.584 231.054C138.555 238.929 151.062 235.223 151.525 227.348C151.988 219.473 147.819 215.768 138.555 211.135C129.29 206.503 125.584 202.797 110.761 181.489Z" fill="#F05283"/>
<circle cx="60.2704" cy="121.733" r="14.8231" fill="#19406C"/>
<circle cx="69.0701" cy="119.416" r="5.09545" fill="#EAEAEA"/>
<circle cx="138.091" cy="152.306" r="14.8231" fill="#19406C"/>
<circle cx="146.892" cy="149.99" r="5.09545" fill="#EAEAEA"/>
<circle cx="106.592" cy="113.395" r="8.33801" fill="#A325E0"/>
<path d="M76.0191 30.9405C74.6026 20.6863 70.0697 0.607183 63.2704 2.32416C56.4711 4.04115 62.7982 14.4861 66.8117 19.494" stroke="#19406C" stroke-width="4" stroke-linecap="round"/>
<path d="M57.2771 29.488C51.9207 22.6182 40.1376 9.91386 35.8557 14.0541C31.5737 18.1944 40.6245 23.1165 45.6851 25.06" stroke="#19406C" stroke-width="4" stroke-linecap="round"/>
</svg>
