<svg width="240" height="349" viewBox="0 0 240 349" fill="none" xmlns="http://www.w3.org/2000/svg">
<path d="M13.022 223.86C-8.47155 183.837 4.06635 139.862 13.022 122.877L94.0857 100.643C107.365 114.539 133.738 146.965 132.996 165.494C132.07 188.655 145.967 223.86 189.973 251.653C225.178 273.888 237.994 297.667 240.001 306.777C225.023 302.299 190.065 298.995 170.054 321.6C150.043 344.205 126.82 348.621 117.71 348.004C114.622 339.974 105.018 320.488 91.3063 306.777C74.1671 289.637 39.8889 273.888 13.022 223.86Z" fill="#71D569"/>
<path d="M35.7188 174.297C35.7188 191.436 43.5935 222.009 67.2179 244.244" stroke="black" stroke-width="3" stroke-linecap="round"/>
<path d="M126.51 268.33C115.702 254.743 96.3082 226.362 105.202 221.545C116.319 215.523 134.385 259.529 172.832 281.301" stroke="black" stroke-width="3" stroke-linecap="round"/>
<path d="M124.193 8.9256C112.706 5.21982 99.3338 23.4399 94.084 33.0132L129.289 47.8363C132.068 35.7925 135.681 12.6314 124.193 8.9256Z" fill="#A325E0"/>
<path fill-rule="evenodd" clip-rule="evenodd" d="M131.755 20.7924C124.371 16.3753 116.429 14.0185 110.328 12.9023C109.318 13.6843 108.324 14.5435 107.353 15.4586C113.805 16.3597 123.531 18.9011 132.069 24.5312C132.019 23.2466 131.917 21.9944 131.755 20.7924ZM131.737 33.4055C120.987 25.6574 108.05 22.9106 101.145 22.354C100.394 23.3139 99.6757 24.2801 98.9941 25.2369C99.0429 25.2429 99.0923 25.2466 99.1424 25.2478C105.139 25.394 119.902 27.9515 131.329 36.8472C131.484 35.713 131.622 34.562 131.737 33.4055Z" fill="#FFC501"/>
<path d="M42.2021 41.3517C10.3324 59.8806 9.77655 92.3062 13.4823 106.203L21.3575 121.026L83.8925 118.71L132.531 161.326C141.641 161.635 160.973 155.304 165.42 127.511C170.978 92.7694 161.251 77.9463 143.648 56.1748C126.046 34.4034 82.0393 18.1906 42.2021 41.3517Z" fill="#048AE1"/>
<ellipse cx="55.1746" cy="66.3643" rx="28.2566" ry="28.7198" fill="#71D569"/>
<ellipse cx="139.481" cy="97.8643" rx="28.2566" ry="28.7198" fill="#71D569"/>
<ellipse cx="58.8802" cy="62.6598" rx="20.845" ry="21.3082" fill="#E6F3FC"/>
<ellipse cx="138.554" cy="93.2321" rx="20.845" ry="21.3082" fill="#E6F3FC"/>
<path d="M90.3793 39.4981C91.8616 59.1387 84.203 75.4751 80.1884 81.1881V63.1224L79.2616 48.7625L67.2181 35.7923L42.667 29.3072C38.0348 28.3807 29.2335 24.6749 31.0864 17.2634C32.9393 9.8518 42.3584 9.54299 46.8363 10.315C45.9099 7.22688 45.5393 0.865303 51.4686 0.124142C57.3978 -0.617018 64.4388 4.75637 67.2181 7.53571C68.299 4.29315 70.8182 0.102977 75.5561 1.05059C82.5041 2.44024 88.5264 14.9473 90.3793 39.4981Z" fill="#F05283"/>
<ellipse cx="75.1409" cy="142.788" rx="46.9405" ry="24.445" transform="rotate(17.2166 75.1409 142.788)" fill="#048AE1"/>
<path fill-rule="evenodd" clip-rule="evenodd" d="M67.9075 166.138C92.6704 173.811 115.984 169.577 119.98 156.682C120.055 156.438 120.123 156.193 120.184 155.947C117.406 153.998 113.334 152.71 108.445 153.451C96.2157 155.304 93.7761 162.87 92.6952 167.348C91.7688 163.333 87.0439 156.971 79.2618 156.23C71.4796 155.489 67.3724 160.245 65.8283 162.715C65.9827 158.546 63.5122 150.808 56.5638 148.355C50.264 146.132 44.2112 148.047 41.7407 149.745C43.2848 146.657 44.1495 138.35 40.8143 133.532C38.4256 130.082 34.3103 128.01 31.089 126.941C30.7767 127.568 30.5147 128.219 30.3056 128.894C26.3096 141.79 43.1445 158.464 67.9075 166.138Z" fill="#E6F3FC"/>
<ellipse cx="79.7246" cy="129.364" rx="29.6463" ry="15.7496" transform="rotate(17.2166 79.7246 129.364)" fill="#19406C"/>
<path d="M135.775 49.2263C119.469 60.7142 111.378 83.3504 109.371 93.2325L121.415 79.799L134.385 71.461L150.135 69.6081C157.392 72.6962 172.833 79.3358 176.538 81.1887C181.171 83.5048 190.898 82.5783 190.898 75.1668C190.898 69.2375 185.957 64.667 183.487 63.123C187.038 62.5053 193.492 59.6951 190.898 53.3953C188.304 47.0955 176.538 47.0646 170.98 47.8366C172.833 45.9837 175.612 41.7221 171.906 39.4986C167.274 36.7193 156.157 34.8664 135.775 49.2263Z" fill="#F05283"/>
<path d="M132.533 66.366C120.675 72.6658 111.225 87.5198 107.982 94.1594V109.446C109.716 101.417 116.405 83.6905 129.291 77.0201C145.398 68.6821 153.378 77.4833 160.327 83.9684C167.275 90.4536 174.687 89.9903 177.466 86.2845C180.245 82.5788 182.561 71.4614 170.054 64.5131C160.094 58.9798 147.356 58.4912 132.533 66.366Z" fill="#A325E0"/>
<path d="M53.7847 40.4238C59.8066 40.4238 69.071 40.887 75.0929 51.0779C81.6622 62.1952 75.0929 86.746 75.0929 86.746C75.0929 86.746 79.2347 83.0402 80.1884 80.7242C89.9161 57.0998 80.1884 28.8432 60.733 23.2845C41.2777 17.7259 32.9397 29.7696 36.1822 36.718C39.4248 43.6663 47.7628 40.4238 53.7847 40.4238Z" fill="#A325E0"/>
<path d="M97.3281 74.2407C84.9591 70.7067 77.5639 81.189 75.5566 86.2845L88.9901 102.034L108.909 98.3283C110.298 91.3799 110.298 77.9465 97.3281 74.2407Z" fill="#19406C"/>
<path d="M61.659 84.4303C48.9392 89.4276 50.8505 100.489 53.7842 106.665L99.18 129.363C112.15 133.995 129.104 123.526 122.804 107.591C116.504 91.6566 98.4079 93.6948 89.4523 96.4742C86.2098 91.3787 74.6287 79.3349 61.659 84.4303Z" fill="#FFC501"/>
<path d="M68.6058 94.6214C74.1645 95.3625 77.7159 101.106 78.7967 103.886C75.0909 104.967 67.0309 106.48 64.4368 103.886C61.1942 100.643 61.6575 93.6949 68.6058 94.6214Z" fill="#19406C"/>
<path d="M107.038 106.598C100.729 104.785 94.2219 109.284 91.7568 111.76C95.2224 114.66 103.154 120.068 107.155 118.501C112.155 116.542 114.924 108.866 107.038 106.598Z" fill="#19406C"/>
<path d="M110.761 121.489C98.9028 104.443 80.1886 100.644 68.1448 102.034C64.4389 102.96 52.139 105.476 39.4246 106.203C23.2118 107.129 21.3593 102.034 10.242 102.034C-0.875391 102.034 -2.26506 115.004 2.83039 121.489C7.92584 127.974 18.4508 128.901 25.9915 128.901C42.6672 128.901 63.0494 121.489 80.1886 128.901C97.3278 136.312 112.614 163.179 125.584 171.054C138.555 178.929 151.062 175.223 151.525 167.348C151.988 159.473 147.819 155.768 138.555 151.135C129.29 146.503 125.584 142.797 110.761 121.489Z" fill="#F05283"/>
<circle cx="60.2704" cy="61.7333" r="14.8231" fill="#19406C"/>
<circle cx="69.0701" cy="59.4158" r="5.09545" fill="#EAEAEA"/>
<circle cx="138.091" cy="92.3055" r="14.8231" fill="#19406C"/>
<circle cx="146.892" cy="89.99" r="5.09545" fill="#EAEAEA"/>
<circle cx="106.592" cy="53.3946" r="8.33801" fill="#FFC501"/>
<circle cx="109.835" cy="51.0792" r="4.169" fill="#E6F3FC"/>
</svg>
