<svg width="1440" height="810" viewBox="0 0 1440 810" fill="none" xmlns="http://www.w3.org/2000/svg">
<path opacity="0.3" d="M463 295L465.701 302.299L473 305L465.701 307.701L463 315L460.299 307.701L453 305L460.299 302.299L463 295Z" fill="#FFA859"/>
<path opacity="0.3" d="M948 508L950.701 515.299L958 518L950.701 520.701L948 528L945.299 520.701L938 518L945.299 515.299L948 508Z" fill="#FFA859"/>
<path opacity="0.3" d="M463 128L471.373 150.627L494 159L471.373 167.373L463 190L454.627 167.373L432 159L454.627 150.627L463 128Z" fill="#F05283"/>
<path opacity="0.3" d="M251 289L255.321 300.679L267 305L255.321 309.321L251 321L246.679 309.321L235 305L246.679 300.679L251 289Z" fill="#F05283"/>
<path opacity="0.3" d="M674 574L678.321 585.679L690 590L678.321 594.321L674 606L669.679 594.321L658 590L669.679 585.679L674 574Z" fill="#F05283"/>
<circle cx="373.5" cy="262.5" r="5.5" fill="#CDE8F9"/>
<circle cx="823.5" cy="643.5" r="5.5" fill="#CDE8F9"/>
</svg>
