<svg width="1180" height="396" viewBox="0 0 1180 396" fill="none" xmlns="http://www.w3.org/2000/svg">
<g clip-path="url(#clip0_3656_4632)">
<path opacity="0.1" fill-rule="evenodd" clip-rule="evenodd" d="M151.204 343.044C146.716 324.651 130.13 311 110.356 311C87.1355 311 68.3115 329.824 68.3115 353.044C68.3115 353.815 68.3322 354.58 68.3731 355.34C64.8016 355.826 61.2994 356.771 57.9547 358.156C52.8537 360.269 48.2187 363.366 44.3145 367.27C40.4104 371.174 37.3134 375.809 35.2004 380.91C33.0875 386.011 32 391.479 32 397H74.0444L108.444 397C108.444 397 108.444 397 108.444 397H163.866L219.288 397C219.288 389.722 217.855 382.515 215.069 375.791C212.284 369.067 208.202 362.957 203.055 357.811C197.909 352.664 191.799 348.582 185.075 345.797C178.351 343.011 171.144 341.578 163.866 341.578C159.593 341.578 155.344 342.072 151.204 343.044Z" fill="white"/>
<path opacity="0.1" fill-rule="evenodd" clip-rule="evenodd" d="M1092.2 344.044C1087.72 325.651 1071.13 312 1051.36 312C1028.14 312 1009.31 330.824 1009.31 354.044C1009.31 354.815 1009.33 355.58 1009.37 356.34C1005.8 356.826 1002.3 357.771 998.955 359.156C993.854 361.269 989.219 364.366 985.315 368.27C981.41 372.174 978.313 376.809 976.2 381.91C974.088 387.011 973 392.479 973 398H1015.04L1049.44 398C1049.44 398 1049.44 398 1049.44 398H1104.87L1160.29 398C1160.29 390.722 1158.85 383.515 1156.07 376.791C1153.28 370.067 1149.2 363.957 1144.06 358.811C1138.91 353.664 1132.8 349.582 1126.08 346.797C1119.35 344.011 1112.14 342.578 1104.87 342.578C1100.59 342.578 1096.34 343.072 1092.2 344.044Z" fill="white"/>
<path opacity="0.2" fill-rule="evenodd" clip-rule="evenodd" d="M190.343 80.0239C190.343 81.2348 191.325 82.2163 192.536 82.2163C193.746 82.2163 194.728 81.2348 194.728 80.0239V63.1924C194.728 61.9816 193.746 61 192.536 61C191.325 61 190.343 61.9816 190.343 63.1924V80.0239ZM177.174 87.9512C178.03 88.8074 178.03 90.1955 177.174 91.0517C176.318 91.9079 174.929 91.9079 174.073 91.0517L162.172 79.1501C161.315 78.2939 161.315 76.9057 162.172 76.0495C163.028 75.1933 164.416 75.1933 165.272 76.0495L177.174 87.9512ZM205.394 91.0517C204.537 90.1955 204.537 88.8074 205.394 87.9512L217.295 76.0495C218.151 75.1933 219.54 75.1933 220.396 76.0495C221.252 76.9057 221.252 78.2939 220.396 79.1501L208.494 91.0517C207.638 91.9079 206.25 91.9079 205.394 91.0517ZM211.329 109.546C211.329 119.925 202.915 128.338 192.537 128.338C182.158 128.338 173.745 119.925 173.745 109.546C173.745 99.1674 182.158 90.7539 192.537 90.7539C202.915 90.7539 211.329 99.1674 211.329 109.546ZM211.327 125.238C212.183 124.382 213.572 124.382 214.428 125.238L226.329 137.139C227.186 137.996 227.186 139.384 226.329 140.24C225.473 141.096 224.085 141.096 223.229 140.24L211.327 128.338C210.471 127.482 210.471 126.094 211.327 125.238ZM169.31 124.909C170.166 124.053 171.554 124.053 172.41 124.909C173.266 125.765 173.266 127.153 172.41 128.009L160.508 139.911C159.652 140.767 158.264 140.767 157.408 139.911C156.552 139.055 156.552 137.667 157.408 136.81L169.31 124.909ZM213.521 107.354C213.521 106.143 214.503 105.162 215.713 105.162H232.545C233.756 105.162 234.737 106.143 234.737 107.354C234.737 108.565 233.756 109.546 232.545 109.546H215.713C214.503 109.546 213.521 108.565 213.521 107.354ZM168.024 104.832C169.235 104.832 170.216 105.814 170.216 107.025C170.216 108.236 169.235 109.217 168.024 109.217H151.192C149.982 109.217 149 108.236 149 107.025C149 105.814 149.982 104.832 151.192 104.832H168.024ZM192.536 153C191.325 153 190.343 152.018 190.343 150.808V133.976C190.343 132.765 191.325 131.784 192.536 131.784C193.746 131.784 194.728 132.765 194.728 133.976V150.808C194.728 152.018 193.746 153 192.536 153Z" fill="white"/>
<path opacity="0.3" d="M305.5 290L308.876 299.124L318 302.5L308.876 305.876L305.5 315L302.124 305.876L293 302.5L302.124 299.124L305.5 290Z" fill="white"/>
<path opacity="0.3" d="M1095.5 159L1098.88 168.124L1108 171.5L1098.88 174.876L1095.5 184L1092.12 174.876L1083 171.5L1092.12 168.124L1095.5 159Z" fill="white"/>
<path d="M959.5 268L961.526 273.474L967 275.5L961.526 277.526L959.5 283L957.474 277.526L952 275.5L957.474 273.474L959.5 268Z" fill="white"/>
<path d="M69.5 176L71.5257 181.474L77 183.5L71.5257 185.526L69.5 191L67.4743 185.526L62 183.5L67.4743 181.474L69.5 176Z" fill="white"/>
<path d="M332.5 36L334.526 41.4743L340 43.5L334.526 45.5257L332.5 51L330.474 45.5257L325 43.5L330.474 41.4743L332.5 36Z" fill="white"/>
<path d="M1051.5 36L1053.53 41.4743L1059 43.5L1053.53 45.5257L1051.5 51L1049.47 45.5257L1044 43.5L1049.47 41.4743L1051.5 36Z" fill="white"/>
</g>
<defs>
<clipPath id="clip0_3656_4632">
<rect width="1180" height="396" rx="30" fill="white"/>
</clipPath>
</defs>
</svg>
