<svg width="1329" height="663" viewBox="0 0 1329 663" fill="none" xmlns="http://www.w3.org/2000/svg">
<path opacity="0.3" d="M1088 134L1092.32 145.679L1104 150L1092.32 154.321L1088 166L1083.68 154.321L1072 150L1083.68 145.679L1088 134Z" fill="#2776EA"/>
<path opacity="0.3" d="M16 510L20.3215 521.679L32 526L20.3215 530.321L16 542L11.6785 530.321L0 526L11.6785 521.679L16 510Z" fill="#2776EA"/>
<path opacity="0.3" d="M47 0L51.3215 11.6785L63 16L51.3215 20.3215L47 32L42.6785 20.3215L31 16L42.6785 11.6785L47 0Z" fill="#2776EA"/>
<path opacity="0.3" d="M1298 441L1300.7 448.299L1308 451L1300.7 453.701L1298 461L1295.3 453.701L1288 451L1295.3 448.299L1298 441Z" fill="#2776EA"/>
<path opacity="0.3" d="M151 493L153.701 500.299L161 503L153.701 505.701L151 513L148.299 505.701L141 503L148.299 500.299L151 493Z" fill="#2776EA"/>
<path opacity="0.3" d="M467 101L469.701 108.299L477 111L469.701 113.701L467 121L464.299 113.701L457 111L464.299 108.299L467 101Z" fill="#2776EA"/>
<path opacity="0.3" d="M1298 274L1306.37 296.627L1329 305L1306.37 313.373L1298 336L1289.63 313.373L1267 305L1289.63 296.627L1298 274Z" fill="#2776EA"/>
<path opacity="0.3" d="M47 601L55.3728 623.627L78 632L55.3728 640.373L47 663L38.6272 640.373L16 632L38.6272 623.627L47 601Z" fill="#2776EA"/>
<circle opacity="0.3" cx="1208.5" cy="408.5" r="5.5" fill="#2776EA"/>
<circle opacity="0.3" cx="102.5" cy="570.5" r="5.5" fill="#2776EA"/>
<circle opacity="0.3" cx="432.5" cy="26.5" r="5.5" fill="#2776EA"/>
</svg>
