<svg width="176" height="166" viewBox="0 0 176 166" fill="none" xmlns="http://www.w3.org/2000/svg">
<circle cx="98" cy="88" r="78" fill="#00C163"/>
<circle cx="88" cy="78" r="78" fill="#71D569"/>
<path d="M51.1494 54.154C48.2654 54.154 46.3474 52.082 46.3474 48.946C46.3474 45.824 48.3214 43.71 51.2194 43.71C53.5014 43.71 55.2514 45.068 55.6294 47.14H54.1594C53.7814 45.824 52.6474 45.026 51.1774 45.026C49.1334 45.026 47.7894 46.566 47.7894 48.932C47.7894 51.298 49.1334 52.838 51.1774 52.838C52.6614 52.838 53.8374 52.04 54.2154 50.794H55.6714C55.2374 52.81 53.4314 54.154 51.1494 54.154ZM56.6817 50.57C56.6817 48.456 58.1937 46.972 60.2517 46.972C62.2957 46.972 63.8077 48.456 63.8077 50.57C63.8077 52.684 62.2957 54.168 60.2517 54.168C58.1937 54.168 56.6817 52.684 56.6817 50.57ZM58.0117 50.57C58.0117 51.998 58.9217 52.992 60.2517 52.992C61.5677 52.992 62.4917 51.998 62.4917 50.57C62.4917 49.142 61.5677 48.148 60.2517 48.148C58.9217 48.148 58.0117 49.142 58.0117 50.57ZM66.5805 54H65.2645V47.154H66.4405L66.5665 48.05C66.9165 47.406 67.6445 46.958 68.6105 46.958C69.6745 46.958 70.4305 47.49 70.7805 48.344C71.1025 47.49 71.9285 46.958 72.9925 46.958C74.5605 46.958 75.5125 47.938 75.5125 49.52V54H74.2245V49.842C74.2245 48.764 73.6225 48.148 72.6985 48.148C71.7045 48.148 71.0465 48.848 71.0465 49.94V54H69.7445V49.828C69.7445 48.75 69.1565 48.162 68.2325 48.162C67.2385 48.162 66.5805 48.848 66.5805 49.94V54ZM78.6528 54H77.3368V47.154H78.5128L78.6388 48.05C78.9888 47.406 79.7168 46.958 80.6828 46.958C81.7468 46.958 82.5028 47.49 82.8528 48.344C83.1748 47.49 84.0008 46.958 85.0648 46.958C86.6328 46.958 87.5848 47.938 87.5848 49.52V54H86.2968V49.842C86.2968 48.764 85.6948 48.148 84.7708 48.148C83.7768 48.148 83.1188 48.848 83.1188 49.94V54H81.8168V49.828C81.8168 48.75 81.2288 48.162 80.3048 48.162C79.3108 48.162 78.6528 48.848 78.6528 49.94V54ZM94.141 47.154H95.443V54H94.267L94.127 52.964C93.735 53.678 92.825 54.168 91.817 54.168C90.221 54.168 89.325 53.09 89.325 51.41V47.154H90.641V50.976C90.641 52.446 91.271 53.006 92.279 53.006C93.483 53.006 94.141 52.236 94.141 50.766V47.154ZM98.6684 54H97.3524V47.154H98.5424L98.6824 48.204C99.1164 47.42 99.9844 46.958 100.95 46.958C102.756 46.958 103.582 48.064 103.582 49.814V54H102.266V50.108C102.266 48.722 101.622 48.162 100.614 48.162C99.3824 48.162 98.6684 49.044 98.6684 50.374V54ZM106.049 45.53C105.573 45.53 105.181 45.138 105.181 44.662C105.181 44.172 105.573 43.794 106.049 43.794C106.525 43.794 106.917 44.172 106.917 44.662C106.917 45.138 106.525 45.53 106.049 45.53ZM105.405 54V47.154H106.721V54H105.405ZM110.564 54H109.248V48.26H107.904V47.154H109.248V45.012H110.564V47.154H111.908V48.26H110.564V54ZM113.733 45.53C113.257 45.53 112.865 45.138 112.865 44.662C112.865 44.172 113.257 43.794 113.733 43.794C114.209 43.794 114.601 44.172 114.601 44.662C114.601 45.138 114.209 45.53 113.733 45.53ZM113.089 54V47.154H114.405V54H113.089ZM119.269 54.168C117.253 54.168 115.867 52.712 115.867 50.584C115.867 48.442 117.225 46.958 119.213 46.958C121.159 46.958 122.433 48.302 122.433 50.332V50.822L117.141 50.836C117.239 52.278 117.995 53.076 119.297 53.076C120.319 53.076 120.991 52.656 121.215 51.872H122.447C122.111 53.342 120.963 54.168 119.269 54.168ZM119.213 48.064C118.065 48.064 117.337 48.75 117.169 49.954H121.117C121.117 48.82 120.375 48.064 119.213 48.064ZM123.343 52.012H124.603C124.603 52.712 125.135 53.132 126.003 53.132C126.927 53.132 127.459 52.754 127.459 52.124C127.459 51.662 127.235 51.382 126.521 51.2L125.317 50.92C124.099 50.626 123.525 50.024 123.525 49.016C123.525 47.756 124.589 46.958 126.101 46.958C127.599 46.958 128.579 47.798 128.607 49.1H127.347C127.319 48.414 126.857 47.98 126.059 47.98C125.233 47.98 124.771 48.344 124.771 48.974C124.771 49.436 125.107 49.744 125.779 49.912L126.983 50.206C128.145 50.486 128.719 51.018 128.719 52.04C128.719 53.342 127.599 54.168 125.975 54.168C124.365 54.168 123.343 53.314 123.343 52.012Z" fill="white"/>
<path d="M72.4733 102.96L52.9533 103V100L62.2733 91.96C66.9533 87.92 68.2733 85.96 68.2733 82.88C68.2733 79.24 66.1933 77.08 62.7133 77.08C59.1533 77.08 56.8333 79.68 56.7533 83.8H52.8333C52.9533 77.6 56.8733 73.56 62.7533 73.56C68.5533 73.56 72.2733 77.08 72.2733 82.64C72.2733 86.76 70.2333 89.68 65.1133 94.12L59.1133 99.32H72.4733V102.96ZM85.5277 103.48C79.6077 103.48 75.7677 99.72 75.7677 93.96H79.6477C79.6477 97.68 81.9277 99.96 85.6077 99.96C89.5277 99.96 92.0477 97.36 92.0477 93.44C92.0477 89.72 89.6877 86.96 85.6477 86.96C83.2077 86.96 80.9677 88.12 79.6477 89.76L76.3277 88.92L79.8477 74.08H94.3277V77.68H82.6877L80.7677 85.36C82.2877 84.2 84.2077 83.6 86.3677 83.6C92.2477 83.6 96.0477 87.72 96.0477 93.28C96.0477 99.28 91.7677 103.48 85.5277 103.48ZM100.68 87.92H109.08V79.52H112.28V87.92H120.68V91.12H112.28V99.56H109.08V91.12H100.68V87.92Z" fill="white"/>
</svg>
