<svg width="298" height="167" viewBox="0 0 298 167" fill="none" xmlns="http://www.w3.org/2000/svg">
<g filter="url(#filter0_d_3656_4974)">
<rect x="21" y="14" width="256" height="124.257" rx="22.4561" fill="white"/>
</g>
<path d="M139.661 52.2281H136.685V55.4453H135.658V47.8686H140.227V48.8118H136.685V51.2954H139.661V52.2281ZM144.528 50.3208H145.502V55.4453H144.622L144.517 54.6698C144.224 55.2043 143.543 55.5711 142.788 55.5711C141.593 55.5711 140.923 54.7641 140.923 53.5066V50.3208H141.908V53.1817C141.908 54.2821 142.379 54.7013 143.134 54.7013C144.035 54.7013 144.528 54.1249 144.528 53.0245V50.3208ZM146.41 53.9572H147.353C147.353 54.4812 147.751 54.7956 148.401 54.7956C149.093 54.7956 149.491 54.5126 149.491 54.0411C149.491 53.6952 149.323 53.4856 148.789 53.3494L147.888 53.1398C146.976 52.9197 146.546 52.4691 146.546 51.7146C146.546 50.7714 147.343 50.1741 148.474 50.1741C149.596 50.1741 150.329 50.8029 150.35 51.7775H149.407C149.386 51.264 149.04 50.9391 148.443 50.9391C147.825 50.9391 147.479 51.2116 147.479 51.6832C147.479 52.029 147.73 52.2595 148.233 52.3853L149.135 52.6054C150.004 52.8149 150.434 53.2132 150.434 53.9782C150.434 54.9528 149.596 55.5711 148.38 55.5711C147.175 55.5711 146.41 54.9318 146.41 53.9572ZM151.191 52.8883C151.191 51.2849 152.208 50.1741 153.706 50.1741C154.995 50.1741 155.896 50.9077 156.075 52.0499H155.09C154.922 51.4002 154.398 51.0544 153.738 51.0544C152.805 51.0544 152.166 51.767 152.166 52.8778C152.166 53.9782 152.763 54.6908 153.696 54.6908C154.398 54.6908 154.922 54.324 155.1 53.7162H156.085C155.886 54.827 154.932 55.5711 153.696 55.5711C152.187 55.5711 151.191 54.5022 151.191 52.8883ZM159.336 55.5711C157.827 55.5711 156.789 54.4812 156.789 52.8883C156.789 51.2849 157.806 50.1741 159.294 50.1741C160.75 50.1741 161.704 51.1801 161.704 52.6997V53.0665L157.743 53.0769C157.816 54.1563 158.382 54.7537 159.357 54.7537C160.122 54.7537 160.625 54.4393 160.792 53.8524H161.714C161.463 54.9528 160.604 55.5711 159.336 55.5711ZM159.294 51.002C158.434 51.002 157.889 51.5155 157.764 52.4167H160.719C160.719 51.5679 160.164 51.002 159.294 51.002ZM167.168 55.5711C166.068 55.5711 165.418 54.9528 165.418 54.0201C165.418 53.0769 166.12 52.4901 167.326 52.3958L168.939 52.27V52.1233C168.939 51.264 168.426 50.9601 167.734 50.9601C166.906 50.9601 166.435 51.3269 166.435 51.9451H165.575C165.575 50.8762 166.456 50.1741 167.776 50.1741C169.044 50.1741 169.904 50.8448 169.904 52.2281V55.4453H169.065L168.96 54.6174C168.698 55.2043 167.996 55.5711 167.168 55.5711ZM167.451 54.8061C168.384 54.8061 168.95 54.1982 168.95 53.2341V52.9617L167.64 53.0665C166.77 53.1503 166.414 53.4856 166.414 53.9887C166.414 54.5336 166.812 54.8061 167.451 54.8061ZM170.932 52.8883C170.932 51.2849 171.949 50.1741 173.447 50.1741C174.736 50.1741 175.638 50.9077 175.816 52.0499H174.831C174.663 51.4002 174.139 51.0544 173.479 51.0544C172.546 51.0544 171.907 51.767 171.907 52.8778C171.907 53.9782 172.504 54.6908 173.437 54.6908C174.139 54.6908 174.663 54.324 174.841 53.7162H175.826C175.627 54.827 174.674 55.5711 173.437 55.5711C171.928 55.5711 170.932 54.5022 170.932 52.8883ZM183.273 50.3208H184.248V55.4453H183.368L183.263 54.6698C182.969 55.2043 182.288 55.5711 181.534 55.5711C180.339 55.5711 179.668 54.7641 179.668 53.5066V50.3208H180.653V53.1817C180.653 54.2821 181.125 54.7013 181.879 54.7013C182.781 54.7013 183.273 54.1249 183.273 53.0245V50.3208ZM187.123 55.4453H186.138V51.1487H185.132V50.3208H186.138V48.7175H187.123V50.3208H188.129V51.1487H187.123V55.4453ZM191.334 50.3208H192.088V49.5034C192.088 48.2459 192.78 47.7324 193.713 47.7324C193.901 47.7324 194.121 47.7429 194.321 47.7743V48.6231H193.88C193.241 48.6231 193.074 48.948 193.074 49.5034V50.3208H194.289V51.1487H193.074V55.4453H192.088V51.1487H191.334V50.3208ZM198.139 50.2789V51.1801H197.699C196.766 51.1801 196.19 51.746 196.19 52.7311V55.4453H195.205V50.3313H196.127L196.19 51.1068C196.4 50.5723 196.913 50.216 197.615 50.216C197.793 50.216 197.94 50.237 198.139 50.2789ZM199.545 49.1052C199.189 49.1052 198.895 48.8118 198.895 48.4555C198.895 48.0887 199.189 47.8057 199.545 47.8057C199.901 47.8057 200.195 48.0887 200.195 48.4555C200.195 48.8118 199.901 49.1052 199.545 49.1052ZM199.063 55.4453V50.3208H200.048V55.4453H199.063ZM202.463 55.4453H201.478V50.3208H202.369L202.474 51.1068C202.799 50.5199 203.448 50.1741 204.171 50.1741C205.523 50.1741 206.142 51.002 206.142 52.3119V55.4453H205.157V52.532C205.157 51.4945 204.675 51.0753 203.92 51.0753C202.998 51.0753 202.463 51.7356 202.463 52.7311V55.4453ZM207.181 52.7521C207.181 51.3059 208.114 50.1741 209.602 50.1741C210.43 50.1741 211.069 50.5514 211.394 51.1906L211.467 50.3208H212.348V55.2357C212.348 56.8496 211.352 57.8766 209.78 57.8766C208.386 57.8766 207.433 57.0906 207.244 55.7911H208.229C208.355 56.5457 208.921 56.9858 209.78 56.9858C210.744 56.9858 211.373 56.357 211.373 55.3824V54.3554C211.038 54.9528 210.367 55.3091 209.56 55.3091C208.103 55.3091 207.181 54.1878 207.181 52.7521ZM208.166 52.7311C208.166 53.6952 208.764 54.4498 209.728 54.4498C210.723 54.4498 211.331 53.7371 211.331 52.7311C211.331 51.746 210.744 51.0334 209.738 51.0334C208.753 51.0334 208.166 51.788 208.166 52.7311ZM214.251 49.1052C213.895 49.1052 213.602 48.8118 213.602 48.4555C213.602 48.0887 213.895 47.8057 214.251 47.8057C214.608 47.8057 214.901 48.0887 214.901 48.4555C214.901 48.8118 214.608 49.1052 214.251 49.1052ZM213.769 55.4453V50.3208H214.754V55.4453H213.769ZM217.19 55.4453H216.205V47.7324H217.19V55.4453ZM219.647 55.4453H218.661V47.7324H219.647V55.4453ZM222.595 55.5711C221.495 55.5711 220.845 54.9528 220.845 54.0201C220.845 53.0769 221.547 52.4901 222.752 52.3958L224.366 52.27V52.1233C224.366 51.264 223.853 50.9601 223.161 50.9601C222.333 50.9601 221.862 51.3269 221.862 51.9451H221.002C221.002 50.8762 221.883 50.1741 223.203 50.1741C224.471 50.1741 225.33 50.8448 225.33 52.2281V55.4453H224.492L224.387 54.6174C224.125 55.2043 223.423 55.5711 222.595 55.5711ZM222.878 54.8061C223.811 54.8061 224.377 54.1982 224.377 53.2341V52.9617L223.067 53.0665C222.197 53.1503 221.841 53.4856 221.841 53.9887C221.841 54.5336 222.239 54.8061 222.878 54.8061Z" fill="#5B6575"/>
<path d="M143.975 84.9724H141.388V82.637L148.754 75.5588H137.077V72.4329H153.209V75.2713L146.095 82.0621C150.515 82.601 153.856 85.5832 153.856 90.2541C153.856 95.4998 149.904 98.8413 144.622 98.8413C139.52 98.8413 135.855 95.7154 135.855 90.3259H139.34C139.34 93.7033 141.424 95.6795 144.694 95.6795C148.071 95.6795 150.263 93.5237 150.263 90.1822C150.263 87.0563 148.107 84.9724 143.975 84.9724ZM162.111 97.0089C162.111 99.5958 160.171 101.752 157.62 102.075V100.566C159.093 100.314 160.135 99.3443 160.135 98.2305C159.884 98.3742 159.596 98.4461 159.165 98.4461C157.979 98.4461 156.973 97.5838 156.973 96.2544C156.973 94.8172 157.943 93.7752 159.381 93.7752C160.89 93.7752 162.111 95.0328 162.111 97.0089ZM180.471 90.1822L174.399 98.4102H170.303L176.807 89.787C175.908 90.1463 174.974 90.3259 174.076 90.3259C168.686 90.3259 165.057 86.4455 165.057 81.2716C165.057 75.8822 169.153 71.9658 174.507 71.9658C179.897 71.9658 184.064 76.0259 184.064 81.3076C184.064 84.3616 183.13 86.5533 180.471 90.1822ZM180.471 81.2716C180.471 77.7146 178.028 75.1276 174.507 75.1276C171.058 75.1276 168.615 77.7146 168.615 81.2716C168.615 84.8287 171.058 87.3438 174.507 87.3438C178.028 87.3438 180.471 84.8287 180.471 81.2716ZM186.922 91.1883C186.922 88.0624 188.755 85.5473 191.629 84.5053C189.186 83.4633 187.856 81.4153 187.856 78.7925C187.856 74.7324 191.342 71.9658 196.515 71.9658C201.617 71.9658 205.067 74.7324 205.067 78.8284C205.067 81.4872 203.701 83.5352 201.258 84.5053C204.169 85.4395 206.037 88.0264 206.037 91.2242C206.037 95.7873 202.228 98.8413 196.48 98.8413C190.695 98.8413 186.922 95.7873 186.922 91.1883ZM191.09 79.0081C191.09 81.5591 193.21 83.2118 196.444 83.2118C199.713 83.2118 201.761 81.595 201.761 79.0799C201.761 76.6008 199.713 75.0198 196.444 75.0198C193.21 75.0198 191.09 76.6008 191.09 79.0081ZM190.371 90.9368C190.371 93.8471 192.779 95.7154 196.48 95.7154C200.144 95.7154 202.552 93.8471 202.552 90.9368C202.552 88.0624 200.18 86.2299 196.444 86.2299C192.743 86.2299 190.371 88.0624 190.371 90.9368ZM226.385 98.3742L208.851 98.4102V95.7154L217.223 88.4935C221.427 84.8646 222.612 83.104 222.612 80.3375C222.612 77.0678 220.744 75.1276 217.618 75.1276C214.42 75.1276 212.336 77.4631 212.265 81.1638H208.743C208.851 75.5947 212.372 71.9658 217.654 71.9658C222.864 71.9658 226.205 75.1276 226.205 80.1219C226.205 83.8226 224.373 86.4455 219.774 90.4337L214.384 95.1046H226.385V98.3742Z" fill="#253042"/>
<g filter="url(#filter1_dddd_3656_4974)">
<path d="M112.125 75.921C112.125 96.594 95.366 113.348 74.6928 113.348C54.0197 113.348 37.2656 96.594 37.2656 75.921C37.2656 55.248 54.0249 38.4941 74.6928 38.4941C95.3607 38.4941 112.125 55.2533 112.125 75.921Z" fill="#2776EA"/>
<path d="M65.0474 39.7461C62.7286 40.3641 60.4944 41.1986 58.3711 42.2285L60.6581 43.755H65.0421V39.7461H65.0474Z" fill="#73F4FA"/>
<path d="M112.068 78.0284C111.513 88.0321 107.029 96.9848 100.136 103.376V102.24L95.7469 99.3141V90.541H86.9738V87.6149L82.5898 84.6887V72.9895L91.3577 67.1426H95.7469L100.131 70.0687H108.904L111.371 68.4261C111.814 70.6022 112.068 72.8417 112.11 75.134L108.904 72.9948V75.9209L112.063 78.0284H112.068Z" fill="#73F4FA"/>
<path d="M95.75 44.9707V46.682L96.9912 45.8528C96.5845 45.5517 96.1725 45.2559 95.75 44.9707Z" fill="#73F4FA"/>
<path d="M100.137 48.4668V49.6024H95.7528L91.3636 52.5285V55.4546H86.9796L82.5957 58.3808V61.3069L86.9796 64.233L91.3636 61.3069H95.7528L100.137 64.233H104.526L108.91 61.3069L109.264 61.5393C107.183 56.5427 104.051 52.0954 100.137 48.4721V48.4668Z" fill="#73F4FA"/>
<path d="M46.1982 100.186C41.2227 94.3439 38.0061 86.9547 37.3828 78.8418H43.1189L47.5028 81.7679H56.276V93.4671L46.1982 100.186Z" fill="#73F4FA"/>
<path d="M43.543 55.1627C44.7208 53.3986 46.0466 51.7348 47.4991 50.2031V52.5271L43.543 55.1627Z" fill="#73F4FA"/>
<path d="M86.9796 43.7559L82.5957 46.682V49.6081L86.9796 52.5342V43.7611V43.7559Z" fill="#73F4FA"/>
<path fill-rule="evenodd" clip-rule="evenodd" d="M64.3803 72.4562C62.8644 77.1411 59.6636 80.3683 55.961 80.3683C50.7954 80.3683 46.6016 74.083 46.6016 66.3345C46.6016 58.5861 50.7901 52.3008 55.961 52.3008C59.6636 52.3008 62.8644 55.528 64.3803 60.2129C65.8962 55.528 69.097 52.3008 72.7996 52.3008C77.9652 52.3008 82.159 58.5861 82.159 66.3345C82.159 74.083 77.9705 80.3683 72.7996 80.3683C69.097 80.3683 65.8962 77.1411 64.3803 72.4562ZM61.1214 67.0317C61.1214 69.6146 59.8643 71.7114 58.3167 71.7114C56.7691 71.7114 55.512 69.6146 55.512 67.0317C55.512 64.4489 56.7691 62.3521 58.3167 62.3521C59.8643 62.3521 61.1214 64.4489 61.1214 67.0317ZM77.9652 67.0317C77.9652 69.6146 76.7081 71.7114 75.1605 71.7114C73.613 71.7114 72.3559 69.6146 72.3559 67.0317C72.3559 64.4489 73.613 62.3521 75.1605 62.3521C76.7081 62.3521 77.9652 64.4489 77.9652 67.0317Z" fill="white"/>
<path fill-rule="evenodd" clip-rule="evenodd" d="M61.123 67.0312C61.123 69.614 59.8659 71.7109 58.3183 71.7109C56.7708 71.7109 55.5137 69.614 55.5137 67.0312C55.5137 64.4484 56.7708 62.3516 58.3183 62.3516C59.8659 62.3516 61.123 64.4484 61.123 67.0312ZM77.9668 67.0312C77.9668 69.614 76.7097 71.7109 75.1622 71.7109C73.6146 71.7109 72.3575 69.614 72.3575 67.0312C72.3575 64.4484 73.6146 62.3516 75.1622 62.3516C76.7097 62.3516 77.9668 64.4484 77.9668 67.0312Z" fill="#303434"/>
<path d="M88.2454 79.4297C86.7296 84.1147 83.5288 87.3418 79.8262 87.3418" stroke="#303434" stroke-width="2.13358" stroke-linecap="round" stroke-linejoin="round"/>
<path d="M77.5026 45.9983C76.124 44.7941 74.5184 44.1074 72.807 44.1074C71.0957 44.1074 69.5164 44.7835 68.1484 45.9719" stroke="#303434" stroke-width="2.13358" stroke-linecap="round" stroke-linejoin="round"/>
<path d="M60.6569 45.9983C59.2783 44.7941 57.6726 44.1074 55.9613 44.1074C54.25 44.1074 52.6707 44.7835 51.3027 45.9719" stroke="#303434" stroke-width="2.13358" stroke-linecap="round" stroke-linejoin="round"/>
</g>
<defs>
<filter id="filter0_d_3656_4974" x="0.0409355" y="0.526316" width="297.918" height="166.176" filterUnits="userSpaceOnUse" color-interpolation-filters="sRGB">
<feFlood flood-opacity="0" result="BackgroundImageFix"/>
<feColorMatrix in="SourceAlpha" type="matrix" values="0 0 0 0 0 0 0 0 0 0 0 0 0 0 0 0 0 0 127 0" result="hardAlpha"/>
<feOffset dy="7.48538"/>
<feGaussianBlur stdDeviation="10.4795"/>
<feComposite in2="hardAlpha" operator="out"/>
<feColorMatrix type="matrix" values="0 0 0 0 0.3725 0 0 0 0 0.443344 0 0 0 0 0.489339 0 0 0 0.25 0"/>
<feBlend mode="normal" in2="BackgroundImageFix" result="effect1_dropShadow_3656_4974"/>
<feBlend mode="normal" in="SourceGraphic" in2="effect1_dropShadow_3656_4974" result="shape"/>
</filter>
<filter id="filter1_dddd_3656_4974" x="33.6494" y="34.8779" width="121.268" height="121.262" filterUnits="userSpaceOnUse" color-interpolation-filters="sRGB">
<feFlood flood-opacity="0" result="BackgroundImageFix"/>
<feColorMatrix in="SourceAlpha" type="matrix" values="0 0 0 0 0 0 0 0 0 0 0 0 0 0 0 0 0 0 127 0" result="hardAlpha"/>
<feOffset dx="1.80812" dy="1.80812"/>
<feGaussianBlur stdDeviation="2.71218"/>
<feColorMatrix type="matrix" values="0 0 0 0 0 0 0 0 0 0 0 0 0 0 0 0 0 0 0.1 0"/>
<feBlend mode="normal" in2="BackgroundImageFix" result="effect1_dropShadow_3656_4974"/>
<feColorMatrix in="SourceAlpha" type="matrix" values="0 0 0 0 0 0 0 0 0 0 0 0 0 0 0 0 0 0 127 0" result="hardAlpha"/>
<feOffset dx="6.62977" dy="6.62977"/>
<feGaussianBlur stdDeviation="4.82165"/>
<feColorMatrix type="matrix" values="0 0 0 0 0 0 0 0 0 0 0 0 0 0 0 0 0 0 0.09 0"/>
<feBlend mode="normal" in2="effect1_dropShadow_3656_4974" result="effect2_dropShadow_3656_4974"/>
<feColorMatrix in="SourceAlpha" type="matrix" values="0 0 0 0 0 0 0 0 0 0 0 0 0 0 0 0 0 0 127 0" result="hardAlpha"/>
<feOffset dx="15.0677" dy="15.0677"/>
<feGaussianBlur stdDeviation="6.62977"/>
<feColorMatrix type="matrix" values="0 0 0 0 0 0 0 0 0 0 0 0 0 0 0 0 0 0 0.05 0"/>
<feBlend mode="normal" in2="effect2_dropShadow_3656_4974" result="effect3_dropShadow_3656_4974"/>
<feColorMatrix in="SourceAlpha" type="matrix" values="0 0 0 0 0 0 0 0 0 0 0 0 0 0 0 0 0 0 127 0" result="hardAlpha"/>
<feOffset dx="27.1218" dy="27.1218"/>
<feGaussianBlur stdDeviation="7.83519"/>
<feColorMatrix type="matrix" values="0 0 0 0 0 0 0 0 0 0 0 0 0 0 0 0 0 0 0.01 0"/>
<feBlend mode="normal" in2="effect3_dropShadow_3656_4974" result="effect4_dropShadow_3656_4974"/>
<feBlend mode="normal" in="SourceGraphic" in2="effect4_dropShadow_3656_4974" result="shape"/>
</filter>
</defs>
</svg>
