<svg width="298" height="167" viewBox="0 0 298 167" fill="none" xmlns="http://www.w3.org/2000/svg">
<g filter="url(#filter0_d_557_6336)">
<rect x="21" y="14" width="256" height="124.257" rx="22.4561" fill="white"/>
</g>
<path d="M136.042 96.888V89.432H137.61V96.792C137.61 98.648 138.634 99.672 140.474 99.672C142.298 99.672 143.306 98.632 143.306 96.792V89.432H144.89V96.888C144.89 99.544 143.194 101.192 140.474 101.192C137.738 101.192 136.042 99.56 136.042 96.888ZM146.538 98.728H147.978C147.978 99.528 148.586 100.008 149.578 100.008C150.634 100.008 151.242 99.576 151.242 98.856C151.242 98.328 150.986 98.008 150.17 97.8L148.794 97.48C147.402 97.144 146.746 96.456 146.746 95.304C146.746 93.864 147.962 92.952 149.69 92.952C151.402 92.952 152.522 93.912 152.554 95.4H151.114C151.082 94.616 150.554 94.12 149.642 94.12C148.698 94.12 148.17 94.536 148.17 95.256C148.17 95.784 148.554 96.136 149.322 96.328L150.698 96.664C152.026 96.984 152.682 97.592 152.682 98.76C152.682 100.248 151.402 101.192 149.546 101.192C147.706 101.192 146.538 100.216 146.538 98.728ZM157.726 101.192C155.422 101.192 153.838 99.528 153.838 97.096C153.838 94.648 155.39 92.952 157.662 92.952C159.886 92.952 161.342 94.488 161.342 96.808V97.368L155.294 97.384C155.406 99.032 156.27 99.944 157.758 99.944C158.926 99.944 159.694 99.464 159.95 98.568H161.358C160.974 100.248 159.662 101.192 157.726 101.192ZM157.662 94.216C156.35 94.216 155.518 95 155.326 96.376H159.838C159.838 95.08 158.99 94.216 157.662 94.216ZM167.502 93.112V94.488H166.83C165.406 94.488 164.526 95.352 164.526 96.856V101H163.022V93.192H164.43L164.526 94.376C164.846 93.56 165.63 93.016 166.702 93.016C166.974 93.016 167.198 93.048 167.502 93.112ZM168.273 98.728H169.713C169.713 99.528 170.321 100.008 171.313 100.008C172.369 100.008 172.977 99.576 172.977 98.856C172.977 98.328 172.721 98.008 171.905 97.8L170.529 97.48C169.137 97.144 168.481 96.456 168.481 95.304C168.481 93.864 169.697 92.952 171.425 92.952C173.137 92.952 174.257 93.912 174.289 95.4H172.849C172.817 94.616 172.289 94.12 171.377 94.12C170.433 94.12 169.905 94.536 169.905 95.256C169.905 95.784 170.289 96.136 171.057 96.328L172.433 96.664C173.761 96.984 174.417 97.592 174.417 98.76C174.417 100.248 173.137 101.192 171.281 101.192C169.441 101.192 168.273 100.216 168.273 98.728Z" fill="#5B6575"/>
<path d="M140.016 61.368H135.696V58.263H143.337V78H140.016V61.368ZM146.697 68.172C146.697 62.043 149.991 57.885 155.04 57.885C160.089 57.885 163.41 62.043 163.41 68.172C163.41 74.274 160.278 78.351 155.04 78.351C149.802 78.351 146.697 74.274 146.697 68.172ZM150.099 68.172C150.099 72.735 151.935 75.3 155.04 75.3C158.172 75.3 160.008 72.735 160.008 68.172C160.008 63.501 158.172 60.936 155.04 60.936C151.935 60.936 150.099 63.501 150.099 68.172ZM165.734 68.172C165.734 62.043 169.028 57.885 174.077 57.885C179.126 57.885 182.447 62.043 182.447 68.172C182.447 74.274 179.315 78.351 174.077 78.351C168.839 78.351 165.734 74.274 165.734 68.172ZM169.136 68.172C169.136 72.735 170.972 75.3 174.077 75.3C177.209 75.3 179.045 72.735 179.045 68.172C179.045 63.501 177.209 60.936 174.077 60.936C170.972 60.936 169.136 63.501 169.136 68.172ZM188.736 76.812C188.736 79.053 187.116 80.835 184.929 81.105V79.782C186.144 79.566 187.062 78.837 187.062 77.892C186.846 78 186.603 78.054 186.279 78.054C185.226 78.054 184.362 77.271 184.362 76.191C184.362 74.895 185.199 74.031 186.414 74.031C187.764 74.031 188.736 75.138 188.736 76.812ZM190.677 68.172C190.677 62.043 193.971 57.885 199.02 57.885C204.069 57.885 207.39 62.043 207.39 68.172C207.39 74.274 204.258 78.351 199.02 78.351C193.782 78.351 190.677 74.274 190.677 68.172ZM194.079 68.172C194.079 72.735 195.915 75.3 199.02 75.3C202.152 75.3 203.988 72.735 203.988 68.172C203.988 63.501 202.152 60.936 199.02 60.936C195.915 60.936 194.079 63.501 194.079 68.172ZM209.714 68.172C209.714 62.043 213.008 57.885 218.057 57.885C223.106 57.885 226.427 62.043 226.427 68.172C226.427 74.274 223.295 78.351 218.057 78.351C212.819 78.351 209.714 74.274 209.714 68.172ZM213.116 68.172C213.116 72.735 214.952 75.3 218.057 75.3C221.189 75.3 223.025 72.735 223.025 68.172C223.025 63.501 221.189 60.936 218.057 60.936C214.952 60.936 213.116 63.501 213.116 68.172ZM228.751 68.172C228.751 62.043 232.045 57.885 237.094 57.885C242.143 57.885 245.464 62.043 245.464 68.172C245.464 74.274 242.332 78.351 237.094 78.351C231.856 78.351 228.751 74.274 228.751 68.172ZM232.153 68.172C232.153 72.735 233.989 75.3 237.094 75.3C240.226 75.3 242.062 72.735 242.062 68.172C242.062 63.501 240.226 60.936 237.094 60.936C233.989 60.936 232.153 63.501 232.153 68.172Z" fill="#253042"/>
<g filter="url(#filter1_dddd_557_6336)">
<path d="M112.126 75.9203C112.126 96.5933 95.3665 113.347 74.6933 113.347C54.0202 113.347 37.2661 96.5933 37.2661 75.9203C37.2661 55.2473 54.0254 38.4934 74.6933 38.4934C95.3612 38.4934 112.126 55.2526 112.126 75.9203Z" fill="#2776EA"/>
<path d="M65.0476 39.7452C62.7289 40.3632 60.4946 41.1977 58.3713 42.2277L60.6584 43.7541H65.0423V39.7452H65.0476Z" fill="#73F4FA"/>
<path d="M112.069 78.0284C111.514 88.0321 107.03 96.9848 100.137 103.376V102.24L95.7478 99.3141V90.541H86.9746V87.6149L82.5907 84.6887V72.9895L91.3586 67.1426H95.7478L100.132 70.0687H108.905L111.372 68.4261C111.815 70.6022 112.069 72.8417 112.111 75.134L108.905 72.9948V75.9209L112.063 78.0284H112.069Z" fill="#73F4FA"/>
<path d="M95.7515 44.9693V46.6806L96.9927 45.8514C96.586 45.5503 96.174 45.2545 95.7515 44.9693Z" fill="#73F4FA"/>
<path d="M100.137 48.4656V49.6012H95.7535L91.3643 52.5273V55.4535H86.9804L82.5964 58.3796V61.3057L86.9804 64.2318L91.3643 61.3057H95.7535L100.137 64.2318H104.527L108.911 61.3057L109.265 61.5381C107.183 56.5415 104.051 52.0942 100.137 48.4709V48.4656Z" fill="#73F4FA"/>
<path d="M46.1985 100.185C41.223 94.3431 38.0063 86.9539 37.3831 78.841H43.1191L47.5031 81.7671H56.2762V93.4663L46.1985 100.185Z" fill="#73F4FA"/>
<path d="M43.5438 55.1629C44.7217 53.3987 46.0474 51.735 47.4999 50.2032V52.5272L43.5438 55.1629Z" fill="#73F4FA"/>
<path d="M86.9804 43.7544L82.5964 46.6805V49.6066L86.9804 52.5328V43.7597V43.7544Z" fill="#73F4FA"/>
<path fill-rule="evenodd" clip-rule="evenodd" d="M64.381 72.4562C62.8651 77.1412 59.6643 80.3684 55.9617 80.3684C50.7961 80.3684 46.6023 74.083 46.6023 66.3346C46.6023 58.5862 50.7908 52.3008 55.9617 52.3008C59.6643 52.3008 62.8651 55.528 64.381 60.213C65.8969 55.528 69.0977 52.3008 72.8003 52.3008C77.9659 52.3008 82.1597 58.5862 82.1597 66.3346C82.1597 74.083 77.9712 80.3684 72.8003 80.3684C69.0977 80.3684 65.8969 77.1412 64.381 72.4562ZM61.1221 67.0318C61.1221 69.6146 59.865 71.7115 58.3174 71.7115C56.7699 71.7115 55.5128 69.6146 55.5128 67.0318C55.5128 64.449 56.7699 62.3521 58.3174 62.3521C59.865 62.3521 61.1221 64.449 61.1221 67.0318ZM77.9659 67.0318C77.9659 69.6146 76.7089 71.7115 75.1613 71.7115C73.6137 71.7115 72.3566 69.6146 72.3566 67.0318C72.3566 64.449 73.6137 62.3521 75.1613 62.3521C76.7089 62.3521 77.9659 64.449 77.9659 67.0318Z" fill="white"/>
<path fill-rule="evenodd" clip-rule="evenodd" d="M61.124 67.0309C61.124 69.6137 59.8669 71.7106 58.3193 71.7106C56.7717 71.7106 55.5146 69.6137 55.5146 67.0309C55.5146 64.4481 56.7717 62.3513 58.3193 62.3513C59.8669 62.3513 61.124 64.4481 61.124 67.0309ZM77.9678 67.0309C77.9678 69.6137 76.7107 71.7106 75.1631 71.7106C73.6156 71.7106 72.3585 69.6137 72.3585 67.0309C72.3585 64.4481 73.6156 62.3513 75.1631 62.3513C76.7107 62.3513 77.9678 64.4481 77.9678 67.0309Z" fill="#303434"/>
<path d="M88.2465 79.4282C86.7306 84.1132 83.5298 87.3404 79.8273 87.3404" stroke="#303434" stroke-width="2.13358" stroke-linecap="round" stroke-linejoin="round"/>
<path d="M77.5033 45.9984C76.1248 44.7941 74.5191 44.1075 72.8078 44.1075C71.0964 44.1075 69.5172 44.7836 68.1492 45.972" stroke="#303434" stroke-width="2.13358" stroke-linecap="round" stroke-linejoin="round"/>
<path d="M60.6582 45.9984C59.2797 44.7941 57.674 44.1075 55.9627 44.1075C54.2514 44.1075 52.6721 44.7836 51.3041 45.972" stroke="#303434" stroke-width="2.13358" stroke-linecap="round" stroke-linejoin="round"/>
</g>
<defs>
<filter id="filter0_d_557_6336" x="0.0409355" y="0.526316" width="297.918" height="166.175" filterUnits="userSpaceOnUse" color-interpolation-filters="sRGB">
<feFlood flood-opacity="0" result="BackgroundImageFix"/>
<feColorMatrix in="SourceAlpha" type="matrix" values="0 0 0 0 0 0 0 0 0 0 0 0 0 0 0 0 0 0 127 0" result="hardAlpha"/>
<feOffset dy="7.48538"/>
<feGaussianBlur stdDeviation="10.4795"/>
<feComposite in2="hardAlpha" operator="out"/>
<feColorMatrix type="matrix" values="0 0 0 0 0.3725 0 0 0 0 0.443344 0 0 0 0 0.489339 0 0 0 0.25 0"/>
<feBlend mode="normal" in2="BackgroundImageFix" result="effect1_dropShadow_557_6336"/>
<feBlend mode="normal" in="SourceGraphic" in2="effect1_dropShadow_557_6336" result="shape"/>
</filter>
<filter id="filter1_dddd_557_6336" x="33.6499" y="34.8772" width="121.268" height="121.262" filterUnits="userSpaceOnUse" color-interpolation-filters="sRGB">
<feFlood flood-opacity="0" result="BackgroundImageFix"/>
<feColorMatrix in="SourceAlpha" type="matrix" values="0 0 0 0 0 0 0 0 0 0 0 0 0 0 0 0 0 0 127 0" result="hardAlpha"/>
<feOffset dx="1.80812" dy="1.80812"/>
<feGaussianBlur stdDeviation="2.71218"/>
<feColorMatrix type="matrix" values="0 0 0 0 0 0 0 0 0 0 0 0 0 0 0 0 0 0 0.1 0"/>
<feBlend mode="normal" in2="BackgroundImageFix" result="effect1_dropShadow_557_6336"/>
<feColorMatrix in="SourceAlpha" type="matrix" values="0 0 0 0 0 0 0 0 0 0 0 0 0 0 0 0 0 0 127 0" result="hardAlpha"/>
<feOffset dx="6.62977" dy="6.62977"/>
<feGaussianBlur stdDeviation="4.82165"/>
<feColorMatrix type="matrix" values="0 0 0 0 0 0 0 0 0 0 0 0 0 0 0 0 0 0 0.09 0"/>
<feBlend mode="normal" in2="effect1_dropShadow_557_6336" result="effect2_dropShadow_557_6336"/>
<feColorMatrix in="SourceAlpha" type="matrix" values="0 0 0 0 0 0 0 0 0 0 0 0 0 0 0 0 0 0 127 0" result="hardAlpha"/>
<feOffset dx="15.0677" dy="15.0677"/>
<feGaussianBlur stdDeviation="6.62977"/>
<feColorMatrix type="matrix" values="0 0 0 0 0 0 0 0 0 0 0 0 0 0 0 0 0 0 0.05 0"/>
<feBlend mode="normal" in2="effect2_dropShadow_557_6336" result="effect3_dropShadow_557_6336"/>
<feColorMatrix in="SourceAlpha" type="matrix" values="0 0 0 0 0 0 0 0 0 0 0 0 0 0 0 0 0 0 127 0" result="hardAlpha"/>
<feOffset dx="27.1218" dy="27.1218"/>
<feGaussianBlur stdDeviation="7.83519"/>
<feColorMatrix type="matrix" values="0 0 0 0 0 0 0 0 0 0 0 0 0 0 0 0 0 0 0.01 0"/>
<feBlend mode="normal" in2="effect3_dropShadow_557_6336" result="effect4_dropShadow_557_6336"/>
<feBlend mode="normal" in="SourceGraphic" in2="effect4_dropShadow_557_6336" result="shape"/>
</filter>
</defs>
</svg>
