<svg width="1440" height="988" viewBox="0 0 1440 988" fill="none" xmlns="http://www.w3.org/2000/svg">
<path opacity="0.3" d="M1060 0L1064.32 11.6785L1076 16L1064.32 20.3215L1060 32L1055.68 20.3215L1044 16L1055.68 11.6785L1060 0Z" fill="#F05283"/>
<path opacity="0.3" d="M1270 307L1272.7 314.299L1280 317L1272.7 319.701L1270 327L1267.3 319.701L1260 317L1267.3 314.299L1270 307Z" fill="#FFA859"/>
<path opacity="0.3" d="M152 657L154.701 664.299L162 667L154.701 669.701L152 677L149.299 669.701L142 667L149.299 664.299L152 657Z" fill="#FFA859"/>
<path opacity="0.3" d="M1270 140L1278.37 162.627L1301 171L1278.37 179.373L1270 202L1261.63 179.373L1239 171L1261.63 162.627L1270 140Z" fill="#F05283"/>
<path opacity="0.3" d="M78 711L86.3728 733.627L109 742L86.3728 750.373L78 773L69.6272 750.373L47 742L69.6272 733.627L78 711Z" fill="#F05283"/>
<circle cx="1180.5" cy="274.5" r="5.5" fill="#CDE8F9"/>
<circle cx="79.5" cy="612.5" r="5.5" fill="#CDE8F9"/>
</svg>
