<svg width="208" height="164" viewBox="0 0 208 164" fill="none" xmlns="http://www.w3.org/2000/svg">
<path d="M101.52 21.5C99.9202 26.7 100.853 35.3333 101.52 39L115.021 59L130.521 76C132.021 74.1667 135.021 69.1 135.021 63.5C135.021 57.9 129.687 52.8333 127.021 51H137.521C141.121 51 145.021 49 146.521 48L141.521 42.5L146.521 37.5C145.687 36.1667 142.221 33.2 135.021 32C127.821 30.8 123.354 31.5 122.021 32C122.354 30.1667 122.821 25.5 122.021 21.5C121.221 17.5 118.687 13.1667 117.521 11.5L113.021 17.5L108.021 11.5C106.52 12.6667 103.12 16.3 101.52 21.5Z" fill="white"/>
<path d="M196.021 103C192.021 104.6 189.021 112 188.021 115.5C190.355 116 196.121 116.3 200.521 113.5C204.921 110.7 206.688 101.667 207.021 97.5C205.021 98.6667 200.021 101.4 196.021 103Z" fill="#F05283"/>
<path d="M7.52148 94.9991C12.7215 93.3991 18.0215 94.9991 20.0215 95.9991C18.1882 98.6657 13.5215 104.199 9.52148 104.999C5.52148 105.799 1.52148 104.666 0.0214844 103.999C0.354818 101.666 2.32148 96.5991 7.52148 94.9991Z" fill="#A325E0"/>
<path d="M105.521 154C105.521 149.2 103.521 146 102.521 145C100.521 146.667 96.5215 151.1 96.5215 155.5C96.5215 159.9 100.521 163 102.521 164C103.521 162.667 105.521 158.8 105.521 154Z" fill="#F05283"/>
<path d="M89.5215 43C81.0215 28.5 61.5215 24.5 26.0215 20C18.2858 19.0194 10.8692 17.4725 4 15.6361V3.5346C14.1614 6.19855 24.571 7.68702 33.0215 8C43.8215 8.4 57.1882 2.83333 62.5215 0L66.5215 4L42.0215 14.5C45.8548 14.8333 57.4215 16.7 73.0215 21.5C92.5215 27.5 109.021 43 118.521 55.5C126.121 65.5 139.688 84.3333 145.521 92.5C146.355 92 149.121 91.3 153.521 92.5C157.921 93.7 161.355 96.6667 162.521 98L151.521 100V109.5L129.021 80.5C129.688 83.1667 131.321 90.2 132.521 97C133.721 103.8 134.688 112.833 135.021 116.5L129.021 117.5C128.855 111.833 127.021 96.3 121.021 79.5C115.021 62.7 104.188 50.1667 99.5215 46C100.021 48 100.721 53.9 99.5215 61.5C98.3215 69.1 96.0215 76 95.0215 78.5L87.5215 80.5C91.0215 72.8333 96.3215 54.6 89.5215 43Z" fill="#19406C"/>
<path d="M153.521 129C153.121 117.4 144.688 115.166 140.521 115.5L138.021 140L146.521 149C149.021 147.166 153.921 140.6 153.521 129Z" fill="#A325E0"/>
<path d="M119.021 133.5C120.221 140.7 127.855 146.167 131.521 148C134.188 147.333 140.221 144 143.021 136C145.821 128 142.855 118.667 141.021 115C138.521 114.5 132.321 114 127.521 116C121.521 118.5 117.521 124.5 119.021 133.5Z" fill="#F05283"/>
<path d="M59.5215 79C61.1215 81.8 65.5215 85.5 67.5215 87C64.1882 87.3333 56.1215 89 50.5215 93C44.9215 97 41.8548 104 41.0215 107L48.0215 109L44.5215 115C46.0215 115.833 50.2215 117.6 55.0215 118C59.8215 118.4 68.3548 116.833 72.0215 116C71.6882 117.333 71.2215 120.9 72.0215 124.5C72.8215 128.1 75.6882 131.667 77.0215 133L82.5215 129L85.5215 135.5C87.0215 135 90.5215 133 92.5215 129C94.5215 125 95.6882 118.667 96.0215 116L104.021 122L109.021 115L114.021 116C114.521 114.333 114.821 109.8 112.021 105C109.221 100.2 106.188 97 105.021 96C106.188 95.5 108.821 93.8 110.021 91C111.221 88.2 111.855 81.8333 112.021 79H105.021L104.021 71.5C102.355 71.3333 98.3215 71.4 95.5215 73C92.7215 74.6 89.3548 77.6667 88.0215 79C87.1882 77.3333 84.4215 73.1 80.0215 69.5C75.6215 65.9 68.5215 64.3333 65.5215 64V72.5H57.5215C57.5215 73.5 57.9215 76.2 59.5215 79Z" fill="#F05283"/>
<path d="M95.5227 97.5L84.5227 85.5C82.0227 88.3333 78.2227 94.7 83.0227 97.5C87.8227 100.3 93.3561 98.6667 95.5227 97.5Z" fill="#FFC501"/>
<path d="M82.0215 91.4992C79.6882 91.1659 74.2215 91.1992 71.0215 93.9992" stroke="black" stroke-width="2" stroke-linecap="round"/>
<path d="M84.0215 96C81.5215 97.3333 75.9215 100.9 73.5215 104.5" stroke="black" stroke-width="2" stroke-linecap="round"/>
<path d="M89.0215 97.5C88.6882 99.6667 87.2215 104.9 84.0215 108.5" stroke="black" stroke-width="2" stroke-linecap="round"/>
</svg>
