<svg width="205" height="64" viewBox="0 0 205 64" fill="none" xmlns="http://www.w3.org/2000/svg">
<path d="M11.1317 30.187H21.5036L21.8742 60.809H10.3914L11.1317 30.187Z" fill="#979999"/>
<path d="M65.2121 23.2981L64.8414 14.4941L30.0222 15.2601L29.6516 60.4272L67.8045 60.0451V48.1791L40.0235 48.5622V41.2892H62.6196L61.8783 30.9541H44.8389L44.4692 22.9161L65.2121 23.2981Z" fill="#979999"/>
<path d="M71.1384 60.0444L85.2138 14.1104L99.6597 14.4933L113.365 60.0444H97.8076L95.2141 50.8574H84.4715L82.6193 60.0444H71.1384Z" fill="#979999"/>
<path d="M90.7704 24.4463L86.3257 42.0543L95.9563 41.6713L90.7704 24.4463Z" fill="#303434"/>
<path d="M117.071 14.1112L117.441 59.6622L130.776 60.0452L130.035 43.5862L141.147 43.2032V55.0692C140.963 58.0682 141.703 58.9612 143 60.2362L157.261 60.4272C156.952 59.0242 155.717 58.7682 155.409 57.3652V46.2642C154.586 40.7352 148.464 38.1932 144.111 37.4602C150.407 34.5252 154.237 32.8512 154.112 26.3592C153.965 18.6782 150.722 15.4652 144.852 14.4932C135.821 12.9982 117.071 14.1112 117.071 14.1112Z" fill="#979999"/>
<path d="M138.926 23.6802H126.701V34.0152H138.926V23.6802Z" fill="#303434"/>
<path d="M161.128 60.3621L160.782 13.9331H175.298L192.924 44.2901L192.578 15.3611H202.255L201.564 60.7181H188.432L170.459 31.0751L170.114 60.3611L161.128 60.3621Z" fill="#979999"/>
<path d="M14.8958 26.6303C8.1551 26.6303 2.69043 21.24 2.69043 14.5888C2.69043 7.93992 8.1551 2.54736 14.8958 2.54736C21.6365 2.54736 27.1011 7.93992 27.1011 14.5888C27.1011 21.2378 21.6365 26.6303 14.8958 26.6303Z" fill="#303434"/>
<path d="M21.8594 15.4083L18.1711 16.2276L16.0429 15.2444L14.0786 15.0805L11.9482 16.2276L10.8011 17.2087L10.965 18.0302L8.99854 17.3747V14.5889L10.1457 14.0951L10.8011 12.133L12.276 10.9836L11.6205 9.18321L12.4399 7.70834C12.4399 7.70834 13.7509 7.87223 14.0786 8.52553C14.4064 9.18322 14.5703 11.4752 14.5703 11.4752L16.5346 10.6559L16.0429 7.38058L17.6817 5.90574L20.3037 5.73975L22.1063 6.06752L21.8594 15.4083Z" fill="#303434" stroke="#979999" stroke-width="0.655497"/>
<path d="M22.9234 5.53662L22.5979 6.23143L20.6314 5.90589V10.0006L19.1565 10.3283L19.3204 12.4587L21.7785 13.9314L21.9424 16.0639L20.4653 17.0471L19.4864 18.5198L20.1398 20.978L20.6314 22.1251L21.7785 21.9612L24.8899 18.1943L26.037 18.3582C26.037 18.3582 26.8236 17.9059 26.9372 16.0224C27.0509 14.1411 26.9984 13.667 26.4871 10.82C25.9977 8.08435 22.9234 5.53662 22.9234 5.53662Z" fill="#303434" stroke="#979999" stroke-width="0.655497"/>
<path d="M18.501 26.2195L20.4675 23.5996L20.6314 21.9609L18.8287 20.1605L18.501 19.505H16.2067L14.8958 17.7002L13.4209 17.0469L12.1099 17.8662L10.6372 19.0134L10.3094 20.6521L10.6372 21.6353C10.6372 21.6353 12.6452 22.0439 13.2592 22.6164C13.871 23.1867 13.0932 23.9274 13.0932 23.9274V25.3979V26.3855" fill="#303434"/>
<path d="M18.501 26.2195L20.4675 23.5996L20.6314 21.9609L18.8287 20.1605L18.501 19.505H16.2067L14.8958 17.7002L13.4209 17.0469L12.1099 17.8662L10.6372 19.0134L10.3094 20.6521L10.6372 21.6353C10.6372 21.6353 12.6452 22.0439 13.2592 22.6164C13.871 23.1867 13.0932 23.9274 13.0932 23.9274V25.3979V26.3855" stroke="#979999" stroke-width="0.655497"/>
<path d="M14.5702 2.628C14.6118 2.94483 14.0786 4.92224 14.0786 4.92224L12.9315 6.07155L12.4399 6.72269L6.3765 6.39712C6.22564 7.1269 5.72102 8.03368 5.39327 8.85086L5.22937 11.3111L4.90162 12.4583L3.26288 13.931C3.26288 13.931 2.79528 14.735 2.95914 13.1356C3.18201 10.9222 4.15655 8.73942 6.15143 6.23105C8.11137 4.35851 8.79964 4.36944 10.2264 3.42553C12.3612 2.80281 13.587 2.39858 14.5702 2.628Z" fill="#303434" stroke="#979999" stroke-width="0.655497"/>
<path d="M14.9788 26.5473C8.23808 26.5473 2.77124 21.1569 2.77124 14.5058C2.77124 7.85472 8.23808 2.46436 14.9788 2.46436C21.7195 2.46436 27.1841 7.85691 27.1841 14.5058C27.1841 21.1548 21.7195 26.5473 14.9788 26.5473Z" stroke="#979999" stroke-width="0.506262"/>
</svg>
