<svg width="98" height="98" viewBox="0 0 98 98" fill="none" xmlns="http://www.w3.org/2000/svg">
<circle cx="49" cy="49" r="49" fill="white"/>
<path fill-rule="evenodd" clip-rule="evenodd" d="M46.5572 69.0693C46.0969 69.1413 45.6251 69.1787 45.1446 69.1787C43.0781 69.1787 41.1733 68.4871 39.6488 67.3226C38.1775 68.0801 36.5085 68.5077 34.7397 68.5077C28.8083 68.5077 24 63.6993 24 57.7679C24 52.9912 27.1185 48.9429 31.4306 47.5477C31.3996 47.2669 31.3837 46.9816 31.3837 46.6925C31.3837 42.4293 34.8397 38.9733 39.1029 38.9733C40.5151 38.9733 41.8388 39.3526 42.9776 40.0148C44.8648 38.522 47.2497 37.6309 49.8428 37.6309C53.2061 37.6309 56.2192 39.13 58.2504 41.4964C59.1902 41.1664 60.2009 40.987 61.2535 40.987C66.2581 40.987 70.3152 45.044 70.3152 50.0486C70.3152 51.1471 70.1197 52.1999 69.7617 53.1743C71.7413 54.8365 72.9997 57.3298 72.9997 60.1171C72.9997 64.7169 69.5724 68.5163 65.1321 69.1008C64.4279 70.7016 63.0662 71.4547 61.7874 72.1619C61.3683 72.3937 60.9581 72.6205 60.5829 72.8707C59.6471 73.4945 59.3636 75.0606 59.0925 76.5585C58.7802 78.2838 58.4843 79.9186 57.2267 79.9186C55.9578 79.9186 55.4361 78.6638 54.8246 77.1926C54.1321 75.5268 53.3243 73.5836 51.1856 72.8707C48.2113 71.8792 46.915 70.0489 46.5572 69.0693Z" fill="#F05283"/>
<path d="M31.0586 47.5977C31.3354 49.5355 33.1349 53.7434 38.1179 55.0722" stroke="#FF96B7" stroke-width="3" stroke-linecap="round"/>
<path d="M37.2884 59.6387C37.0116 57.7009 37.7037 53.0777 42.6867 50.0879" stroke="#FF96B7" stroke-width="3" stroke-linecap="round"/>
<path d="M50.9922 57.5632C53.2069 57.7016 58.2176 56.4836 60.543 50.5039" stroke="#FF96B7" stroke-width="3" stroke-linecap="round"/>
<path d="M51.5872 46.2869C51.9133 45.1502 53.8982 41.7676 58.041 41.7676" stroke="#FF96B7" stroke-width="3" stroke-linecap="round"/>
<path d="M58.2317 64.8576C58.5578 65.9944 60.5427 69.377 64.6855 69.377" stroke="#FF96B7" stroke-width="3" stroke-linecap="round"/>
<path d="M45.1183 64.4773C44.9571 65.2063 44.95 67.0371 45.8828 68.7852" stroke="#FF96B7" stroke-width="3" stroke-linecap="round"/>
<path d="M42.5 22.5V40" stroke="#A325E0" stroke-width="3" stroke-linecap="round"/>
<path d="M41 20.1964C41 20.1964 47.3995 16.7574 51.5 20.1964C54.7466 22.9193 59.4345 21.3304 61.246 20.5506C61.5934 20.4011 62 20.6546 62 21.0327V32.2083C62 32.5765 61.8005 32.9129 61.4648 33.0641C59.8431 33.7945 54.8872 35.647 51.5 32.8062C47.3995 29.3672 41 32.8062 41 32.8062V20.1964Z" fill="#048AE1"/>
</svg>
