<svg width="98" height="98" viewBox="0 0 98 98" fill="none" xmlns="http://www.w3.org/2000/svg">
<circle cx="49" cy="49" r="49" fill="white"/>
<path d="M20 20H43.434C45.4034 20 47 21.5966 47 23.566V50.0566H20V20Z" fill="#F05283"/>
<rect x="25.6035" y="29.1699" width="14.2642" height="8.16981" rx="1.01887" fill="white"/>
<path d="M36.3027 20H40.8876V25.6708C40.8876 26.0776 40.4342 26.3203 40.0956 26.0946L38.8778 25.2827C38.7067 25.1686 38.4837 25.1686 38.3126 25.2827L37.0948 26.0946C36.7562 26.3203 36.3027 26.0776 36.3027 25.6708V20Z" fill="#FFC501"/>
<path d="M20 46.5098H43.1981C45.2978 46.5098 47 48.2119 47 50.3117V50.3117C47 52.4114 45.2978 54.1135 43.1981 54.1135H20V46.5098Z" fill="#A325E0"/>
<path d="M20 49.0371H43.1981C43.9015 49.0371 44.4717 49.6073 44.4717 50.3107V50.3107C44.4717 51.0141 43.9015 51.5843 43.1981 51.5843H20V49.0371Z" fill="white"/>
<path d="M52 46H75.434C77.4034 46 79 47.5966 79 49.566V76.0566H52V46Z" fill="#048AE1"/>
<rect x="57.6035" y="55.1699" width="14.2642" height="8.16981" rx="1.01887" fill="white"/>
<path d="M68.3027 46H72.8876V51.6708C72.8876 52.0776 72.4342 52.3203 72.0956 52.0946L70.8778 51.2827C70.7067 51.1686 70.4837 51.1686 70.3126 51.2827L69.0948 52.0946C68.7562 52.3203 68.3027 52.0776 68.3027 51.6708V46Z" fill="#71D569"/>
<path d="M52 71.5098H75.1981C77.2978 71.5098 79 73.2119 79 75.3117V75.3117C79 77.4114 77.2978 79.1135 75.1981 79.1135H52V71.5098Z" fill="#FFC501"/>
<path d="M52 74.0391H75.1981C75.9015 74.0391 76.4717 74.6093 76.4717 75.3126V75.3126C76.4717 76.016 75.9015 76.5862 75.1981 76.5862H52V74.0391Z" fill="white"/>
</svg>
