<svg width="98" height="98" viewBox="0 0 98 98" fill="none" xmlns="http://www.w3.org/2000/svg">
<circle cx="49" cy="49" r="49" fill="white"/>
<path d="M34.5898 42.8906L22.6087 39.6803C21.3261 39.3366 20.0078 40.0978 19.6641 41.3804L16.0199 54.9808L30.3234 58.8134L34.5898 42.8906Z" fill="#F05283"/>
<rect width="7.82312" height="4.4807" rx="0.68694" transform="matrix(-0.965926 -0.258819 -0.258819 0.965926 30.3184 46.9531)" fill="white"/>
<path d="M25.9531 40.5762L23.5242 39.9254L22.7503 42.8138C22.6793 43.0788 22.9322 43.316 23.1921 43.2281L23.7986 43.0229C23.93 42.9785 24.0752 43.0174 24.1667 43.1215L24.5894 43.6025C24.7705 43.8086 25.1082 43.7296 25.1792 43.4647L25.9531 40.5762Z" fill="#FFC501"/>
<path d="M30.8262 56.9336L18.5368 53.6407C17.4244 53.3426 16.2811 54.0027 15.983 55.1151V55.1151C15.685 56.2274 16.3451 57.3708 17.4574 57.6688L29.7468 60.9618L30.8262 56.9336Z" fill="#A325E0"/>
<path d="M30.4688 58.2734L18.1793 54.9805C17.8067 54.8807 17.4237 55.1018 17.3239 55.4744V55.4744C17.224 55.847 17.4452 56.23 17.8178 56.3299L30.1072 59.6228L30.4688 58.2734Z" fill="white"/>
<path d="M39.1895 74.6187C39.1895 69.1759 43.6017 64.7637 49.0445 64.7637H59.9945C65.4373 64.7637 69.8495 69.1759 69.8495 74.6187V78.9987H39.1895V74.6187Z" fill="#048AE1"/>
<path d="M37.565 37.9886C38.0329 41.2087 38.9297 43.9303 39.3196 44.8887L39.9043 48.3389L69.7329 47.1888C70.5128 45.4638 71.9555 41.3238 71.4875 38.5638C71.0196 35.8037 68.9531 34.347 67.9783 33.9637C67.7833 31.8553 65.7558 27.2935 59.2052 25.9135C51.0169 24.1885 45.7531 27.6385 43.4136 29.9385C41.542 31.7785 38.7347 31.0885 37.565 30.5135C37.37 31.6635 37.0971 34.7686 37.565 37.9886Z" fill="#A325E0"/>
<path d="M49.0449 60.3848H59.9949V64.7648C59.9949 67.7885 57.5437 70.2398 54.5199 70.2398V70.2398C51.4962 70.2398 49.0449 67.7885 49.0449 64.7648V60.3848Z" fill="#E59F16"/>
<ellipse cx="54.5202" cy="48.8873" rx="14.235" ry="15.8775" fill="#FFC501"/>
<circle cx="41.9275" cy="48.8865" r="4.92751" fill="#FFC501"/>
<path d="M53.9722 43.9585C47.4022 43.9585 44.6647 39.2135 44.1172 36.8409L49.0447 32.4609H58.3522L65.4697 37.3884C67.1122 41.0385 69.8497 47.791 67.6597 45.601C64.9222 42.8635 62.1847 43.9585 53.9722 43.9585Z" fill="#A325E0"/>
<circle cx="66.0174" cy="48.8865" r="4.92751" fill="#FFC501"/>
<circle cx="48.498" cy="49.9823" r="1.6425" fill="black"/>
<circle cx="60.5429" cy="49.9823" r="1.6425" fill="black"/>
<path fill-rule="evenodd" clip-rule="evenodd" d="M51.2353 54.9082C51.6889 54.9082 52.0432 55.286 52.1916 55.7146C52.5255 56.6793 53.442 57.372 54.5203 57.372C55.5986 57.372 56.5151 56.6793 56.8491 55.7146C56.9975 55.286 57.3518 54.9082 57.8053 54.9082V54.9082C58.2589 54.9082 58.6351 55.2796 58.5455 55.7242C58.1671 57.6011 56.5087 59.0145 54.5203 59.0145C52.5319 59.0145 50.8736 57.6011 50.4951 55.7242C50.4055 55.2796 50.7817 54.9082 51.2353 54.9082V54.9082Z" fill="black"/>
<path d="M76.9639 36.8565C76.9179 35.4395 77.7486 32.9238 78.1323 32.0499C78.8979 30.3067 79.0977 28.3009 78.5666 26.3188C77.326 21.6888 72.567 18.9412 67.9371 20.1818C63.3071 21.4224 60.5596 26.1814 61.8001 30.8113C62.3315 32.7945 63.5085 34.4323 65.0443 35.5593C65.813 36.1234 67.7887 37.8859 68.457 39.1359L76.9639 36.8565Z" fill="#71D569"/>
<path d="M72.7106 37.9966L72.2793 28.0039" stroke="white" stroke-width="1.08487" stroke-linecap="round"/>
<path d="M74.375 27.4414L65.9918 29.6877" stroke="white" stroke-width="1.08487" stroke-linecap="round"/>
<path d="M72.7107 37.9956L68.0878 29.126" stroke="white" stroke-width="1.08487" stroke-linecap="round"/>
<path d="M68.5191 39.1193L69.0807 41.2151C69.3908 42.3726 70.5806 43.0595 71.7381 42.7494L75.9297 41.6262C77.0872 41.3161 77.7741 40.1264 77.4639 38.9689L76.9023 36.873L68.5191 39.1193Z" fill="#007AC9"/>
</svg>
