<svg width="98" height="98" viewBox="0 0 98 98" fill="none" xmlns="http://www.w3.org/2000/svg">
<circle cx="49" cy="49" r="49" fill="white"/>
<rect x="26" y="21" width="17.4649" height="17.4649" rx="2.05811" fill="#F05283"/>
<rect x="46.582" y="21" width="17.4649" height="17.4649" rx="2.05811" fill="#71D569"/>
<rect x="26" y="40.8945" width="17.4649" height="17.4649" rx="2.05811" fill="#048AE1"/>
<rect x="43.7148" y="51.1562" width="17.4649" height="17.4649" rx="2.05811" transform="rotate(-45 43.7148 51.1562)" fill="#FFC501"/>
<path fill-rule="evenodd" clip-rule="evenodd" d="M51.2988 51.4645C51.2988 49.0387 53.2652 47.0723 55.691 47.0723C58.1167 47.0723 60.0832 49.0387 60.0832 51.4645V59.474H67.8342C70.688 59.474 73.0015 61.7875 73.0015 64.6413V74.2009C73.0015 77.0547 70.688 79.3682 67.8342 79.3682H56.4661C56.0916 79.3682 55.7264 79.3283 55.3744 79.2526C54.4594 79.1262 53.5765 78.7113 52.873 78.0077L44.2865 69.4212C42.5712 67.7059 42.5712 64.9249 44.2864 63.2096C46.0017 61.4944 48.7827 61.4944 50.498 63.2096L51.2988 64.0104V51.4645Z" fill="#A325E0"/>
</svg>
