<svg width="98" height="98" viewBox="0 0 98 98" fill="none" xmlns="http://www.w3.org/2000/svg">
<circle cx="49" cy="49" r="49" fill="white"/>
<circle cx="48.9999" cy="53.9999" r="24.9999" fill="#048AE1"/>
<path fill-rule="evenodd" clip-rule="evenodd" d="M72.3295 45.0003C73.4076 47.7929 73.9987 50.8278 73.9987 54.0006C73.9987 59.1978 72.4128 64.0246 69.6985 68.0234C69.5449 67.9891 69.3907 67.9446 69.236 67.8893C65.0463 66.393 65.8218 63.5425 66.4563 61.2102C66.6632 60.4498 66.8551 59.7446 66.8551 59.1592C66.8551 56.7783 65.6652 55.9846 63.2842 54.7942C60.9033 53.6037 58.9192 50.0323 61.3001 46.4609C62.9866 43.9311 68.7382 44.3257 72.3295 45.0003ZM58.343 30.8056C61.4121 32.0431 64.1792 33.8722 66.5031 36.1515C63.9317 36.8925 60.4568 37.4733 58.1243 36.5403C55.8306 35.6228 56.8515 32.9927 58.343 30.8056ZM43.7773 29.5469C45.6122 32.0488 47.892 36.1778 46.2208 38.1276C45.1428 39.3853 42.8446 39.7481 40.6152 40.1001C37.9207 40.5255 35.3269 40.9351 35.1097 42.8895C34.8882 44.8831 38.0052 45.5165 41.5619 46.2393C44.3767 46.8114 47.4669 47.4393 49.3953 48.8418C53.7604 52.0164 52.9665 54.7942 51.3792 56.7783C51.0163 57.232 50.6326 57.6441 50.2566 58.048C48.9883 59.4105 47.8078 60.6787 47.8078 63.1275C47.8078 66.3021 47.0141 70.6671 43.8395 70.6671C41.957 70.6671 41.4699 68.2948 40.9715 65.8673C40.6294 64.2012 40.282 62.5092 39.4745 61.5402C39.3385 61.377 39.2062 61.2194 39.0777 61.0662C37.3309 58.9849 36.2727 57.724 35.9031 54.3974C35.5063 50.826 33.919 49.2387 31.1412 47.6514C29.2761 46.5856 27.411 44.9831 26.3867 43.3244C29.6733 36.3757 36.0685 31.1849 43.7773 29.5469Z" fill="#71D569"/>
<path d="M42.364 36.364L36 42.7279L29.636 36.364C26.1213 32.8492 26.1213 27.1508 29.636 23.636C33.1508 20.1213 38.8492 20.1213 42.364 23.636C45.8787 27.1508 45.8787 32.8492 42.364 36.364ZM36 32C37.1046 32 38 31.1046 38 30C38 28.8954 37.1046 28 36 28C34.8954 28 34 28.8954 34 30C34 31.1046 34.8954 32 36 32Z" fill="#F05283"/>
<path d="M73.364 47.364L67 53.7279L60.636 47.364C57.1213 43.8492 57.1213 38.1508 60.636 34.636C64.1508 31.1213 69.8492 31.1213 73.364 34.636C76.8787 38.1508 76.8787 43.8492 73.364 47.364ZM67 43C68.1046 43 69 42.1046 69 41C69 39.8954 68.1046 39 67 39C65.8954 39 65 39.8954 65 41C65 42.1046 65.8954 43 67 43Z" fill="#FFC501"/>
</svg>
