<svg width="378" height="168" viewBox="0 0 378 168" fill="none" xmlns="http://www.w3.org/2000/svg">
<path d="M137.211 118.869C153.959 116.744 162.122 124.763 164.214 129.47C164.235 129.518 164.247 129.567 164.252 129.62L167.764 166.986C167.792 167.28 167.561 167.533 167.266 167.533L4.63437 167.533C4.03576 167.533 3.94944 166.599 4.52847 166.448C35.0949 158.431 34.4217 143.8 50.4976 147.47C72.6603 152.529 70.9007 142.347 83.6527 132.102C93.6229 124.092 108.953 126.081 117.737 135.565C118.004 135.853 118.498 135.761 118.649 135.398C120.39 131.203 127.215 120.136 137.211 118.869Z" fill="#E6F3FC"/>
<path d="M344.77 126.349C358.477 124.634 365.539 130.788 370.939 138.87C375.794 146.136 377.627 161.824 377.948 164.919C377.978 165.211 377.747 165.455 377.454 165.455L237.726 165.455C237.127 165.455 237.027 164.505 237.606 164.348C261.6 157.86 261.22 146.419 274.154 149.332C292.203 153.398 290.77 145.216 301.154 136.983C309.232 130.579 321.629 132.129 328.801 139.649C329.07 139.931 329.563 139.838 329.718 139.481C331.235 136.002 336.748 127.353 344.77 126.349Z" fill="#E6F3FC"/>
<circle cx="83.4918" cy="95.6695" r="5.4" fill="#E6F3FC"/>
<circle cx="314.861" cy="30.4547" r="6.64615" fill="#E6F3FC"/>
<path d="M117.248 71.4258H129.831L133.427 164.904H113.652L117.248 71.4258Z" fill="#71D569"/>
<path d="M123.539 63.3366V57.4941" stroke="#19406C" stroke-width="2.16386" stroke-linecap="round"/>
<path d="M118.164 66.8444C118.677 64.282 120.927 62.4375 123.54 62.4375V62.4375C126.153 62.4375 128.403 64.282 128.915 66.8444L129.832 71.4258H117.248L118.164 66.8444Z" fill="#048AE1"/>
<path d="M340.16 71.4277H352.743L356.339 164.906H336.564L340.16 71.4277Z" fill="#71D569"/>
<path d="M346.451 63.3385V57.4961" stroke="#19406C" stroke-width="2.16386" stroke-linecap="round"/>
<path d="M341.076 66.8463C341.589 64.2839 343.839 62.4395 346.452 62.4395V62.4395C349.065 62.4395 351.315 64.2839 351.828 66.8463L352.744 71.4278H340.16L341.076 66.8463Z" fill="#048AE1"/>
<path d="M156.797 103.786V79.9668" stroke="#19406C" stroke-width="2.16386" stroke-linecap="round"/>
<path d="M162.326 112.774V88.9551" stroke="#19406C" stroke-width="2.16386" stroke-linecap="round"/>
<path d="M310.496 103.786V79.9668" stroke="#19406C" stroke-width="2.16386" stroke-linecap="round"/>
<path d="M234.996 25.5866V1.76758" stroke="#19406C" stroke-width="2.16386" stroke-linecap="round"/>
<path d="M304.969 112.774V88.9551" stroke="#19406C" stroke-width="2.16386" stroke-linecap="round"/>
<rect x="199.941" y="81.3145" width="69.2101" height="83.5914" fill="#71D569"/>
<rect x="211.625" y="99.291" width="45.8404" height="65.6148" fill="white"/>
<path d="M217.918 136.17C217.918 124.525 224.302 113.817 234.546 108.279V108.279V108.279C244.791 113.817 251.175 124.525 251.175 136.17V164.906H217.918V136.17Z" fill="#048AE1"/>
<rect x="199.941" y="66.9336" width="69.2101" height="14.3813" fill="#A325E0"/>
<path d="M199.941 66.9336H269.151V74.6688L199.941 67.1918V66.9336Z" fill="#8F13CB"/>
<path d="M196.389 43.7913C198.702 39.0191 202.399 35.0542 206.999 32.4136L234.545 16.5977L262.091 32.4136C266.69 35.0542 270.387 39.0191 272.7 43.7913V43.7913C276.038 50.6786 275.24 58.8551 270.632 64.9663L269.15 66.9323H199.939L198.457 64.9663C193.85 58.8551 193.051 50.6786 196.389 43.7913V43.7913Z" fill="#FFC501"/>
<path fill-rule="evenodd" clip-rule="evenodd" d="M234.98 16.8496C241.146 25.2653 252.632 42.2036 254.232 49.5635C255.572 55.7262 252.32 62.6631 249.487 66.9337H269.149L270.631 64.9677C275.239 58.8565 276.038 50.68 272.699 43.7928C270.386 39.0205 266.689 35.0556 262.09 32.415L234.98 16.8496Z" fill="#EDB700"/>
<path d="M170.165 76.1019C170.961 73.8713 172.377 71.9136 174.245 70.4577L181.73 64.625L189.216 70.4577C191.084 71.9136 192.499 73.8713 193.296 76.1019V76.1019C194.229 78.7137 193.991 81.6007 192.644 84.0251L192.076 85.048H171.384L170.816 84.0251C169.469 81.6007 169.232 78.7137 170.165 76.1019V76.1019Z" fill="#FFC501"/>
<path fill-rule="evenodd" clip-rule="evenodd" d="M186.126 85.048C190.256 79.1301 186.187 72.3758 183.254 67.508C182.634 66.479 182.065 65.5342 181.635 64.6995L181.73 64.625L189.216 70.4577C191.084 71.9136 192.499 73.8713 193.296 76.1019C194.229 78.7137 193.991 81.6007 192.644 84.0251L192.076 85.048H186.126Z" fill="#EDB700"/>
<rect x="172.078" y="93" width="27.8638" height="71.9066" fill="#048AE1"/>
<path d="M178.369 118.397C178.369 113.046 181.302 108.126 186.009 105.582V105.582V105.582C190.716 108.126 193.649 113.046 193.649 118.397V124.409H178.369V118.397Z" fill="#19406C"/>
<path d="M178.369 146.262C178.369 140.911 181.302 135.992 186.009 133.447V133.447V133.447C190.716 135.992 193.649 140.911 193.649 146.262V152.274H178.369V146.262Z" fill="#19406C"/>
<rect x="171.518" y="84.9102" width="20.6731" height="8.08949" fill="#A325E0"/>
<path d="M171.393 84.9102H192.066V89.6766L171.393 84.9102Z" fill="#8F13CB"/>
<path d="M274.841 76.1019C275.637 73.8713 277.052 71.9136 278.921 70.4577L286.406 64.625L293.891 70.4577C295.76 71.9136 297.175 73.8713 297.972 76.1019V76.1019C298.904 78.7137 298.667 81.6007 297.32 84.0251L296.752 85.048H276.06L275.492 84.0251C274.145 81.6007 273.908 78.7137 274.841 76.1019V76.1019Z" fill="#FFC501"/>
<path fill-rule="evenodd" clip-rule="evenodd" d="M290.801 85.048C294.932 79.1301 290.863 72.3758 287.93 67.508C287.31 66.479 286.741 65.5342 286.311 64.6995L286.406 64.625L293.891 70.4577C295.76 71.9136 297.175 73.8713 297.972 76.1019C298.904 78.7137 298.667 81.6007 297.32 84.0251L296.752 85.048H290.801Z" fill="#EDB700"/>
<rect x="276.07" y="84.9102" width="20.6731" height="8.08949" fill="#A325E0"/>
<path d="M276.07 84.9102H296.743V89.6766L276.07 84.9102Z" fill="#8F13CB"/>
<rect x="269.152" y="93" width="27.8638" height="71.9066" fill="#048AE1"/>
<path d="M153.203 101.988L172.079 93V164.907H153.203V101.988Z" fill="#007AC9"/>
<path d="M315.891 101.988L297.015 93V164.907H315.891V101.988Z" fill="#007AC9"/>
<path d="M275.441 118.397C275.441 113.046 278.375 108.126 283.081 105.582V105.582V105.582C287.788 108.126 290.722 113.046 290.722 118.397V124.409H275.441V118.397Z" fill="#19406C"/>
<path d="M275.441 146.262C275.441 140.911 278.375 135.992 283.081 133.447V133.447V133.447C287.788 135.992 290.722 140.911 290.722 146.262V152.274H275.441V146.262Z" fill="#19406C"/>
<path d="M158.525 120.034C158.525 116.302 160.004 112.721 162.638 110.076V110.076V110.076C165.272 112.721 166.751 116.302 166.751 120.034V127.105H158.525V120.034Z" fill="#19406C"/>
<path d="M158.525 146.101C158.525 142.368 160.004 138.787 162.638 136.143V136.143V136.143C165.272 138.787 166.751 142.368 166.751 146.101V153.172H158.525V146.101Z" fill="#19406C"/>
<path d="M302.34 120.034C302.34 116.302 303.819 112.721 306.453 110.076V110.076V110.076C309.087 112.721 310.565 116.302 310.565 120.034V127.105H302.34V120.034Z" fill="#19406C"/>
<path d="M302.34 146.101C302.34 142.368 303.819 138.787 306.453 136.143V136.143V136.143C309.087 138.787 310.565 142.368 310.565 146.101V153.172H302.34V146.101Z" fill="#19406C"/>
</svg>
