<svg width="379" height="168" viewBox="0 0 379 168" fill="none" xmlns="http://www.w3.org/2000/svg">
<path d="M137.211 118.867C153.959 116.742 162.122 124.761 164.214 129.468C164.235 129.516 164.247 129.565 164.252 129.618L167.764 166.984C167.792 167.278 167.561 167.531 167.266 167.531L4.63437 167.531C4.03576 167.531 3.94944 166.598 4.52847 166.446C35.0949 158.429 34.4217 143.798 50.4976 147.468C72.6603 152.527 70.9007 142.345 83.6527 132.1C93.6229 124.09 108.953 126.079 117.737 135.563C118.004 135.851 118.498 135.759 118.649 135.396C120.39 131.201 127.215 120.134 137.211 118.867Z" fill="#E6F3FC"/>
<path d="M344.77 126.35C357.5 124.001 366.406 130.437 373 140.307C378.931 149.184 378.238 162.438 378.039 165.013C378.019 165.268 377.806 165.456 377.55 165.456L237.726 165.455C237.127 165.455 237.027 164.505 237.606 164.349C261.6 157.861 261.22 146.42 274.154 149.333C292.203 153.398 290.77 145.217 301.154 136.984C309.232 130.58 321.629 132.13 328.801 139.65C329.07 139.932 329.564 139.839 329.724 139.483C331.256 136.068 336.827 127.815 344.77 126.35Z" fill="#E6F3FC"/>
<circle cx="83.4938" cy="95.6695" r="5.4" fill="#E6F3FC"/>
<circle cx="314.861" cy="30.4547" r="6.64615" fill="#E6F3FC"/>
<path d="M126.248 71.4277H138.831L142.427 164.906H122.652L126.248 71.4277Z" fill="#83CFFF"/>
<path d="M132.539 63.3385V53.4961" stroke="#19406C" stroke-width="2.16386" stroke-linecap="round"/>
<path d="M127.164 66.8463C127.677 64.2839 129.927 62.4395 132.54 62.4395V62.4395C135.153 62.4395 137.403 64.2839 137.915 66.8463L138.832 71.4278H126.248L127.164 66.8463Z" fill="#048AE1"/>
<path d="M329.16 71.4277H341.743L345.339 164.906H325.564L329.16 71.4277Z" fill="#83CFFF"/>
<path d="M335.451 63.3385V53.4961" stroke="#19406C" stroke-width="2.16386" stroke-linecap="round"/>
<path d="M330.076 66.8463C330.589 64.2839 332.839 62.4395 335.452 62.4395V62.4395C338.065 62.4395 340.315 64.2839 340.828 66.8463L341.744 71.4278H329.16L330.076 66.8463Z" fill="#048AE1"/>
<path d="M159.797 103.786V79.9668" stroke="#19406C" stroke-width="2.16386" stroke-linecap="round"/>
<path d="M308.496 103.786V79.9668" stroke="#19406C" stroke-width="2.16386" stroke-linecap="round"/>
<path d="M234.5 25.5007V1.68168" stroke="#19406C" stroke-width="2.16386" stroke-linecap="round"/>
<rect x="199.941" y="81.3145" width="69.2101" height="83.5914" fill="#83CFFF"/>
<path d="M211.625 101.291C211.625 100.186 212.52 99.291 213.625 99.291H255.465C256.57 99.291 257.465 100.186 257.465 101.291V164.906H211.625V101.291Z" fill="white"/>
<path d="M217.918 136.17C217.918 124.525 224.302 113.817 234.546 108.279V108.279V108.279C244.791 113.817 251.175 124.525 251.175 136.17V164.906H217.918V136.17Z" fill="#0390EB"/>
<path fill-rule="evenodd" clip-rule="evenodd" d="M234.5 164.906V108.304C234.515 108.296 234.531 108.288 234.546 108.279C244.791 113.817 251.175 124.525 251.175 136.17V164.906H234.5Z" fill="#007AC9"/>
<rect x="199.941" y="66.9336" width="69.2101" height="14.3813" fill="#048AE1"/>
<path d="M196.391 43.7913C198.704 39.0191 202.401 35.0542 207 32.4136L234.546 16.5977L262.093 32.4136C266.692 35.0542 270.389 39.0191 272.702 43.7913V43.7913C276.04 50.6786 275.241 58.8551 270.634 64.9663L269.152 66.9323H199.941L198.459 64.9663C193.852 58.8551 193.053 50.6786 196.391 43.7913V43.7913Z" fill="#83CFFF"/>
<path fill-rule="evenodd" clip-rule="evenodd" d="M234.98 16.8477C241.146 25.2634 252.632 42.2016 254.232 49.5616C255.572 55.7243 252.32 62.6612 249.487 66.9317H269.149L270.631 64.9658C275.239 58.8545 276.038 50.6781 272.699 43.7908C270.386 39.0185 266.689 35.0537 262.09 32.413L234.98 16.8477Z" fill="#62BDF6"/>
<path d="M170.163 76.1019C170.959 73.8713 172.375 71.9136 174.243 70.4577L181.728 64.625L189.214 70.4577C191.082 71.9136 192.497 73.8713 193.294 76.1019V76.1019C194.227 78.7137 193.989 81.6007 192.642 84.0251L192.074 85.048H171.383L170.814 84.0251C169.467 81.6007 169.23 78.7137 170.163 76.1019V76.1019Z" fill="#83CFFF"/>
<path fill-rule="evenodd" clip-rule="evenodd" d="M186.124 85.048C190.254 79.1301 186.185 72.3758 183.252 67.508C182.632 66.479 182.063 65.5342 181.633 64.6995L181.728 64.625L189.214 70.4577C191.082 71.9136 192.497 73.8713 193.294 76.1019C194.227 78.7137 193.989 81.6007 192.642 84.0251L192.074 85.048H186.124Z" fill="#62BDF6"/>
<rect x="172.078" y="93" width="27.8638" height="71.9066" fill="#048AE1"/>
<path d="M178.369 118.397C178.369 113.046 181.302 108.126 186.009 105.582V105.582V105.582C190.716 108.126 193.649 113.046 193.649 118.397V124.409H178.369V118.397Z" fill="#19406C"/>
<path d="M178.369 146.262C178.369 140.911 181.302 135.992 186.009 133.447V133.447V133.447C190.716 135.992 193.649 140.911 193.649 146.262V152.274H178.369V146.262Z" fill="#19406C"/>
<rect x="171.52" y="84.9102" width="20.6731" height="8.08949" fill="#83CFFF"/>
<path d="M171.395 84.9102H192.068V89.6766L171.395 84.9102Z" fill="#048AE1"/>
<path d="M274.843 76.1019C275.639 73.8713 277.054 71.9136 278.923 70.4577L286.408 64.625L293.893 70.4577C295.762 71.9136 297.177 73.8713 297.974 76.1019V76.1019C298.906 78.7137 298.669 81.6007 297.322 84.0251L296.754 85.048H276.062L275.494 84.0251C274.147 81.6007 273.91 78.7137 274.843 76.1019V76.1019Z" fill="#83CFFF"/>
<path fill-rule="evenodd" clip-rule="evenodd" d="M290.803 85.048C294.934 79.1301 290.865 72.3758 287.932 67.508C287.312 66.479 286.743 65.5342 286.312 64.6995L286.408 64.625L293.893 70.4577C295.762 71.9136 297.177 73.8713 297.974 76.1019C298.906 78.7137 298.669 81.6007 297.322 84.0251L296.754 85.048H290.803Z" fill="#62BDF6"/>
<rect x="276.07" y="84.9102" width="20.6731" height="8.08949" fill="#83CFFF"/>
<path d="M276.07 84.9102H296.743V89.6766L276.07 84.9102Z" fill="#048AE1"/>
<rect x="269.152" y="93" width="27.8638" height="71.9066" fill="#048AE1"/>
<path d="M153.203 101.988L172.079 93V164.907H153.203V101.988Z" fill="#83CFFF"/>
<path d="M315.891 101.988L297.015 93V164.907H315.891V101.988Z" fill="#83CFFF"/>
<path d="M275.441 118.397C275.441 113.046 278.375 108.126 283.081 105.582V105.582V105.582C287.788 108.126 290.722 113.046 290.722 118.397V124.409H275.441V118.397Z" fill="#19406C"/>
<path d="M275.441 146.262C275.441 140.911 278.375 135.992 283.081 133.447V133.447V133.447C287.788 135.992 290.722 140.911 290.722 146.262V152.274H275.441V146.262Z" fill="#19406C"/>
<path d="M158.527 120.034C158.527 116.302 160.006 112.721 162.64 110.076V110.076V110.076C165.274 112.721 166.753 116.302 166.753 120.034V127.105H158.527V120.034Z" fill="#048AE1"/>
<path d="M158.527 146.101C158.527 142.368 160.006 138.787 162.64 136.143V136.143V136.143C165.274 138.787 166.753 142.368 166.753 146.101V153.172H158.527V146.101Z" fill="#048AE1"/>
<path d="M302.34 120.034C302.34 116.302 303.819 112.721 306.453 110.076V110.076V110.076C309.087 112.721 310.565 116.302 310.565 120.034V127.105H302.34V120.034Z" fill="#048AE1"/>
<path d="M302.34 146.101C302.34 142.368 303.819 138.787 306.453 136.143V136.143V136.143C309.087 138.787 310.565 142.368 310.565 146.101V153.172H302.34V146.101Z" fill="#048AE1"/>
</svg>
