<svg width="417" height="208" viewBox="0 0 417 208" fill="none" xmlns="http://www.w3.org/2000/svg">
<path fill-rule="evenodd" clip-rule="evenodd" d="M117.502 170.133C118.26 167.495 118.666 164.709 118.666 161.828C118.666 145.26 105.235 131.828 88.666 131.828C77.4636 131.828 67.6952 137.968 62.5429 147.067C58.6647 144.194 53.8644 142.495 48.6673 142.495C35.7807 142.495 25.334 152.941 25.334 165.828C25.334 166.973 25.4164 168.098 25.5756 169.198C11.3261 169.939 0 181.728 0 196.161V203.828H112C120.837 203.828 128 196.665 128 187.828V185.161C128 178.258 123.628 172.376 117.502 170.133Z" fill="#BED6F9"/>
<path fill-rule="evenodd" clip-rule="evenodd" d="M353.719 185.869C353.272 184.387 353.031 182.816 353.031 181.188C353.031 172.256 360.272 165.016 369.203 165.016C375.242 165.016 380.508 168.326 383.285 173.231C385.376 171.682 387.964 170.766 390.766 170.766C397.712 170.766 403.344 176.397 403.344 183.344C403.344 184.171 403.264 184.98 403.111 185.762C411.107 187.881 417 195.166 417 203.828H357.344C352.183 203.828 348 199.645 348 194.484C348 190.609 350.359 187.285 353.719 185.869Z" fill="#BED6F9"/>
<path d="M107.259 126.471L101.177 200.665C101.082 201.83 102.002 202.828 103.171 202.828H355.794C356.976 202.828 357.9 201.809 357.784 200.632L350.468 126.248C349.544 116.855 344.253 108.445 336.187 103.545L243.672 47.3482C234.052 41.5041 221.969 41.5376 212.381 47.435L121.442 103.368C113.306 108.372 108.039 116.951 107.259 126.471Z" fill="#83CFFF"/>
<path d="M302.958 202.874L295.55 121.875C295.523 121.582 295.755 121.329 296.05 121.33L349.251 121.499C349.408 121.499 349.548 121.559 349.61 121.703C351.174 125.319 354.741 162.325 354.75 162.414L354.75 162.418L357.957 202.789C357.98 203.079 357.75 203.328 357.459 203.328H303.456C303.198 203.328 302.982 203.131 302.958 202.874Z" fill="#5FBDF9"/>
<path d="M250 8.32883C241.335 3.63537 233.105 4.83466 229.133 6.33836C228.424 6.60655 228 7.30735 228 8.0649V20.389C228 21.6511 229.158 22.5926 230.405 22.3986C240.803 20.7819 243.187 23.8372 254 25.3286C263.462 26.6338 269.354 21.3736 272.108 17.0386C272.881 15.8225 271.891 14.3636 270.454 14.2643C265.602 13.929 257.653 12.474 250 8.32883Z" fill="#83CFFF"/>
<path d="M228.5 44.8281V6.82812" stroke="#048AE1" stroke-width="3" stroke-linecap="round"/>
<path fill-rule="evenodd" clip-rule="evenodd" d="M349.695 121.828H108.008C109.862 114.206 114.653 107.543 121.441 103.368L212.38 47.4349C221.968 41.5375 234.051 41.504 243.671 47.348L336.185 103.545C342.962 107.661 347.78 114.255 349.695 121.828Z" fill="#048AE1"/>
<path fill-rule="evenodd" clip-rule="evenodd" d="M295.713 121.828L229.42 43.0176C234.369 43.2361 239.276 44.6791 243.67 47.3481L336.184 103.545C342.961 107.661 347.778 114.255 349.693 121.828H295.713Z" fill="#007FD1"/>
<path d="M210.475 152.32C210.767 142.3 218.975 134.328 229 134.328V134.328C239.025 134.328 247.233 142.3 247.525 152.32L249 202.828H209L210.475 152.32Z" fill="#048AE1"/>
<path opacity="0.5" fill-rule="evenodd" clip-rule="evenodd" d="M229 135.328V201.828V202.828H249L247.525 152.32C247.233 142.3 239.025 134.328 229 134.328V135.328Z" fill="#1C64B4"/>
<path d="M113.113 201.959C113.74 203.742 116.26 203.742 116.887 201.959L126.188 175.491C126.646 174.19 125.68 172.828 124.302 172.828H105.698C104.32 172.828 103.354 174.19 103.812 175.491L113.113 201.959Z" fill="white"/>
<path d="M133.113 201.959C133.74 203.742 136.26 203.742 136.887 201.959L146.188 175.491C146.646 174.19 145.68 172.828 144.302 172.828H125.698C124.32 172.828 123.354 174.19 123.812 175.491L133.113 201.959Z" fill="white"/>
<path d="M153.113 201.959C153.74 203.742 156.26 203.742 156.887 201.959L166.188 175.491C166.646 174.19 165.68 172.828 164.302 172.828H145.698C144.32 172.828 143.354 174.19 143.812 175.491L153.113 201.959Z" fill="white"/>
<path d="M173.113 201.959C173.74 203.742 176.26 203.742 176.887 201.959L186.188 175.491C186.646 174.19 185.68 172.828 184.302 172.828H165.698C164.32 172.828 163.354 174.19 163.812 175.491L173.113 201.959Z" fill="white"/>
<path d="M193.113 201.959C193.74 203.742 196.26 203.742 196.887 201.959L206.188 175.491C206.646 174.19 205.68 172.828 204.302 172.828H185.698C184.32 172.828 183.354 174.19 183.812 175.491L193.113 201.959Z" fill="white"/>
<path d="M261.113 201.959C261.74 203.742 264.26 203.742 264.887 201.959L274.188 175.491C274.646 174.19 273.68 172.828 272.302 172.828H253.698C252.32 172.828 251.354 174.19 251.812 175.491L261.113 201.959Z" fill="white"/>
<path d="M281.113 201.959C281.74 203.742 284.26 203.742 284.887 201.959L294.188 175.491C294.646 174.19 293.68 172.828 292.302 172.828H273.698C272.32 172.828 271.354 174.19 271.812 175.491L281.113 201.959Z" fill="white"/>
<path d="M301.113 201.959C301.74 203.742 304.26 203.742 304.887 201.959L314.188 175.491C314.646 174.19 313.68 172.828 312.302 172.828H293.698C292.32 172.828 291.354 174.19 291.812 175.491L301.113 201.959Z" fill="white"/>
<path d="M321.113 201.959C321.74 203.742 324.26 203.742 324.887 201.959L334.188 175.491C334.646 174.19 333.68 172.828 332.302 172.828H313.698C312.32 172.828 311.354 174.19 311.812 175.491L321.113 201.959Z" fill="white"/>
<path d="M341.113 201.959C341.74 203.742 344.26 203.742 344.887 201.959L354.188 175.491C354.646 174.19 353.68 172.828 352.302 172.828H333.698C332.32 172.828 331.354 174.19 331.812 175.491L341.113 201.959Z" fill="white"/>
<path d="M337 44.1009C328.565 44.1009 321.727 37.263 321.727 28.8281C321.727 20.3932 328.565 13.5554 337 13.5554C345.435 13.5554 352.273 20.3932 352.273 28.8281C352.273 37.263 345.435 44.1009 337 44.1009ZM334.455 3.37358C334.455 1.96776 335.594 0.828125 337 0.828125V0.828125C338.406 0.828125 339.545 1.96776 339.545 3.37358V5.91904C339.545 7.32485 338.406 8.46449 337 8.46449V8.46449C335.594 8.46449 334.455 7.32485 334.455 5.91903V3.37358ZM334.455 51.7372C334.455 50.3314 335.594 49.1918 337 49.1918V49.1918C338.406 49.1918 339.545 50.3314 339.545 51.7372V54.2827C339.545 55.6885 338.406 56.8281 337 56.8281V56.8281C335.594 56.8281 334.455 55.6885 334.455 54.2827V51.7372ZM317.201 12.6289C316.207 11.6349 316.207 10.0232 317.201 9.02913V9.02913C318.195 8.03507 319.807 8.03507 320.801 9.02913L322.601 10.8291C323.595 11.8231 323.595 13.4348 322.601 14.4289V14.4289C321.607 15.4229 319.995 15.4229 319.001 14.4289L317.201 12.6289ZM351.399 46.8274C350.405 45.8333 350.405 44.2215 351.399 43.2274V43.2274C352.393 42.2333 354.005 42.2333 354.999 43.2274L356.799 45.0274C357.793 46.0214 357.793 47.6331 356.799 48.6272V48.6272C355.805 49.6212 354.193 49.6213 353.199 48.6272L351.399 46.8274ZM353.199 9.02909C354.193 8.03505 355.805 8.03507 356.799 9.02913V9.02913C357.793 10.0232 357.793 11.6349 356.799 12.6289L354.999 14.4289C354.005 15.4229 352.393 15.423 351.399 14.4289V14.4289C350.405 13.4348 350.405 11.8231 351.399 10.829L353.199 9.02909ZM319.001 43.2274C319.995 42.2333 321.607 42.2333 322.601 43.2274V43.2274C323.595 44.2215 323.595 45.8332 322.601 46.8273L320.801 48.6272C319.807 49.6212 318.195 49.6212 317.201 48.6272V48.6272C316.207 47.6331 316.207 46.0214 317.201 45.0274L319.001 43.2274ZM362.455 26.2827C363.86 26.2827 365 27.4223 365 28.8281V28.8281C365 30.2339 363.86 31.3736 362.455 31.3736H359.909C358.503 31.3736 357.364 30.2339 357.364 28.8281V28.8281C357.364 27.4223 358.503 26.2827 359.909 26.2827H362.455ZM314.091 26.2827C315.497 26.2827 316.636 27.4223 316.636 28.8281V28.8281C316.636 30.2339 315.497 31.3736 314.091 31.3736H311.545C310.14 31.3736 309 30.2339 309 28.8281V28.8281C309 27.4223 310.14 26.2827 311.545 26.2827H314.091Z" fill="#FFC501"/>
<circle cx="88" cy="63.8281" r="8" fill="#E6F3FC"/>
<circle cx="164" cy="11.8281" r="6" fill="#E6F3FC"/>
<circle cx="401.5" cy="113.328" r="7.5" fill="#E6F3FC"/>
</svg>
