<svg width="246" height="297" viewBox="0 0 246 297" fill="none" xmlns="http://www.w3.org/2000/svg">
<path d="M51.6133 124.676L51.6133 126.086C51.6133 128.031 52.4176 129.887 53.849 131.203C78.8666 154.205 126.51 193.765 133.505 182.816C138.39 175.171 148.047 173.149 155.433 173.046C159.771 172.986 163.952 169.851 164.254 165.524L170.442 76.8382C170.619 74.2927 169.398 71.8522 167.253 70.4688L162.816 67.6062C160.287 65.9747 156.999 66.1422 154.649 68.0222L152.921 69.4046C150.475 71.3609 147.028 71.4549 144.479 69.6346L143.414 68.8737C140.306 66.6542 135.993 67.3347 133.72 70.4033L133.31 70.9578C131.362 73.5871 127.853 74.5163 124.859 73.1956L122.99 72.371C119.481 70.8228 115.379 72.387 113.792 75.8788L113.223 77.1316C111.811 80.2368 108.367 81.8726 105.069 81.0046L101.987 80.1936C98.5213 79.2817 94.9266 81.1344 93.6585 84.4862L92.253 88.2012C91.1566 91.0993 88.2854 92.9317 85.1951 92.7056L81.1017 92.4061C77.3327 92.1304 74.0252 94.896 73.6294 98.6543L73.3783 101.039C73.0333 104.314 70.2711 106.801 66.9774 106.801L66.1385 106.801C62.7706 106.801 60.1466 109.755 60.4932 113.106C60.7886 115.961 58.8799 118.609 56.0698 119.195C53.4737 119.736 51.6133 122.024 51.6133 124.676Z" fill="#048AE1"/>
<path d="M166 72.2983C166.221 70.1002 168.182 68.4975 170.38 68.7185L186.86 70.3754C192.355 70.9279 196.362 75.8305 195.81 81.3256L187.07 168.249C186.518 173.744 181.615 177.751 176.12 177.199L159.64 175.542C157.442 175.321 155.839 173.36 156.06 171.162L166 72.2983Z" fill="#A325E0"/>
<path fill-rule="evenodd" clip-rule="evenodd" d="M174.522 69.1349L170.38 68.7185C168.182 68.4975 166.221 70.1002 166 72.2983L156.06 171.162C155.839 173.36 157.442 175.321 159.64 175.542L162.624 175.842L174.522 69.1349Z" fill="#7F0EB5"/>
<path d="M179.906 90.6711C180.237 87.374 183.179 84.9699 186.476 85.3014L191.178 85.7742C197.772 86.4372 202.581 92.3203 201.918 98.9144L196.557 152.228C195.894 158.823 190.011 163.631 183.417 162.968L178.715 162.495C175.418 162.163 173.013 159.222 173.345 155.925L179.906 90.6711Z" fill="#71D569"/>
<path d="M186.011 112.68L183.66 136.189" stroke="#048AE1" stroke-width="9" stroke-linecap="round"/>
<path d="M50.0954 127.572C48.2402 126.373 45.764 126.904 44.5645 128.759L35.5715 142.668C32.5728 147.306 33.9016 153.497 38.5394 156.495L111.902 203.93C116.54 206.928 122.731 205.6 125.729 200.962L134.722 187.053C135.922 185.198 135.39 182.721 133.535 181.522L50.0954 127.572Z" fill="#F05283"/>
<path fill-rule="evenodd" clip-rule="evenodd" d="M42.3043 132.255L44.5645 128.759C45.764 126.904 48.2402 126.373 50.0954 127.572L133.535 181.522C135.39 182.721 135.922 185.198 134.722 187.053L133.094 189.571L42.3043 132.255Z" fill="#D22D61"/>
<path d="M55.769 149.904C52.9863 148.105 49.2719 148.902 47.4727 151.685L44.9065 155.654C41.3081 161.219 42.9026 168.648 48.4681 172.247L93.4646 201.34C99.03 204.938 106.459 203.344 110.057 197.778L112.623 193.81C114.423 191.027 113.625 187.312 110.843 185.513L55.769 149.904Z" fill="#FFC501"/>
<path d="M69.1515 168.413L88.9856 181.252" stroke="#F05283" stroke-width="9" stroke-linecap="round"/>
<path d="M71.9883 106.018L109.212 149.119" stroke="#19406C" stroke-width="2" stroke-linecap="round"/>
<path d="M90.0117 91.5195L137.815 167.535" stroke="#19406C" stroke-width="2" stroke-linecap="round"/>
<path d="M124.104 113.072L142.52 153.823" stroke="#19406C" stroke-width="2" stroke-linecap="round"/>
<path d="M129.588 73.8887L137.425 104.06" stroke="#19406C" stroke-width="2" stroke-linecap="round"/>
<path d="M149.572 71.1445L153.882 120.907" stroke="#19406C" stroke-width="2" stroke-linecap="round"/>
<path d="M74.7325 212.598C71.4672 214.034 64.78 219.18 64.153 228.271C63.3694 239.634 74.3407 242.769 81.7855 241.593C89.2303 240.418 87.2712 228.663 78.6509 230.622C70.0306 232.581 66.5041 254.916 86.8793 262.36" stroke="black" stroke-width="3" stroke-linecap="round"/>
</svg>
