<svg width="415" height="203" viewBox="0 0 415 203" fill="none" xmlns="http://www.w3.org/2000/svg">
<path fill-rule="evenodd" clip-rule="evenodd" d="M117.502 164.133C118.26 161.495 118.666 158.709 118.666 155.828C118.666 139.26 105.235 125.828 88.666 125.828C77.4636 125.828 67.6952 131.968 62.5429 141.067C58.6647 138.194 53.8644 136.495 48.6673 136.495C35.7807 136.495 25.334 146.941 25.334 159.828C25.334 160.973 25.4164 162.098 25.5756 163.198C11.3261 163.939 0 175.728 0 190.161V197.828H112C120.837 197.828 128 190.665 128 181.828V179.161C128 172.258 123.628 166.376 117.502 164.133Z" fill="#71D569"/>
<path fill-rule="evenodd" clip-rule="evenodd" d="M351.719 179.869C351.272 178.387 351.031 176.816 351.031 175.188C351.031 166.256 358.272 159.016 367.203 159.016C373.242 159.016 378.508 162.326 381.285 167.231C383.376 165.682 385.964 164.766 388.766 164.766C395.712 164.766 401.344 170.397 401.344 177.344C401.344 178.171 401.264 178.98 401.111 179.762C409.107 181.881 415 189.166 415 197.828H355.344C350.183 197.828 346 193.645 346 188.484C346 184.609 348.359 181.285 351.719 179.869Z" fill="#71D569"/>
<path d="M105.259 121.471L99.1773 195.665C99.0818 196.83 100.002 197.828 101.171 197.828H353.794C354.976 197.828 355.9 196.809 355.784 195.632L348.468 121.248C347.544 111.855 342.253 103.445 334.187 98.5447L241.672 42.3482C232.052 36.5041 219.969 36.5376 210.381 42.435L119.442 98.3683C111.306 103.372 106.039 111.951 105.259 121.471Z" fill="#FFC501"/>
<path d="M300.958 197.874L293.551 116.884C293.524 116.587 293.76 116.333 294.058 116.338L347.555 117.32C347.809 117.325 348.019 117.518 348.044 117.771L355.946 197.779C355.975 198.073 355.744 198.328 355.448 198.328H301.456C301.198 198.328 300.982 198.131 300.958 197.874Z" fill="#EDB700"/>
<path d="M104 130.828H196" stroke="#19406C" stroke-width="3" stroke-linecap="round"/>
<path d="M258 130.828H348" stroke="#19406C" stroke-width="3" stroke-linecap="round"/>
<path d="M248 3.32883C239.335 -1.36463 231.105 -0.165341 227.133 1.33836C226.424 1.60655 226 2.30735 226 3.0649V15.389C226 16.6511 227.158 17.5926 228.405 17.3986C238.803 15.7819 241.187 18.8372 252 20.3286C261.462 21.6338 267.354 16.3736 270.108 12.0386C270.881 10.8225 269.891 9.36363 268.454 9.26431C263.602 8.92903 255.653 7.474 248 3.32883Z" fill="#F05283"/>
<path d="M226.5 39.8281V1.82812" stroke="black" stroke-width="3" stroke-linecap="round"/>
<path fill-rule="evenodd" clip-rule="evenodd" d="M347.695 116.828H106.008C107.862 109.206 112.653 102.543 119.441 98.3681L210.38 42.4349C219.968 36.5375 232.051 36.504 241.671 42.348L334.185 98.5446C340.962 102.661 345.78 109.255 347.695 116.828Z" fill="#048AE1"/>
<path fill-rule="evenodd" clip-rule="evenodd" d="M293.713 116.828L227.42 38.0176C232.369 38.2361 237.276 39.6791 241.67 42.3481L334.184 98.5446C340.961 102.661 345.778 109.255 347.693 116.828H293.713Z" fill="#007AC9"/>
<path d="M208.475 147.32C208.767 137.3 216.975 129.328 227 129.328V129.328C237.025 129.328 245.233 137.3 245.525 147.32L247 197.828H207L208.475 147.32Z" fill="#A325E0"/>
<path d="M227 130.328V196.828" stroke="black" stroke-width="2" stroke-linecap="round"/>
<path d="M111.113 196.959C111.74 198.742 114.26 198.742 114.887 196.959L124.188 170.491C124.646 169.19 123.68 167.828 122.302 167.828H103.698C102.32 167.828 101.354 169.19 101.812 170.491L111.113 196.959Z" fill="#F05283"/>
<path d="M131.113 196.959C131.74 198.742 134.26 198.742 134.887 196.959L144.188 170.491C144.646 169.19 143.68 167.828 142.302 167.828H123.698C122.32 167.828 121.354 169.19 121.812 170.491L131.113 196.959Z" fill="#F05283"/>
<path d="M151.113 196.959C151.74 198.742 154.26 198.742 154.887 196.959L164.188 170.491C164.646 169.19 163.68 167.828 162.302 167.828H143.698C142.32 167.828 141.354 169.19 141.812 170.491L151.113 196.959Z" fill="#F05283"/>
<path d="M171.113 196.959C171.74 198.742 174.26 198.742 174.887 196.959L184.188 170.491C184.646 169.19 183.68 167.828 182.302 167.828H163.698C162.32 167.828 161.354 169.19 161.812 170.491L171.113 196.959Z" fill="#F05283"/>
<path d="M191.113 196.959C191.74 198.742 194.26 198.742 194.887 196.959L204.188 170.491C204.646 169.19 203.68 167.828 202.302 167.828H183.698C182.32 167.828 181.354 169.19 181.812 170.491L191.113 196.959Z" fill="#F05283"/>
<path d="M259.113 196.959C259.74 198.742 262.26 198.742 262.887 196.959L272.188 170.491C272.646 169.19 271.68 167.828 270.302 167.828H251.698C250.32 167.828 249.354 169.19 249.812 170.491L259.113 196.959Z" fill="#F05283"/>
<path d="M279.113 196.959C279.74 198.742 282.26 198.742 282.887 196.959L292.188 170.491C292.646 169.19 291.68 167.828 290.302 167.828H271.698C270.32 167.828 269.354 169.19 269.812 170.491L279.113 196.959Z" fill="#F05283"/>
<path d="M299.113 196.959C299.74 198.742 302.26 198.742 302.887 196.959L312.188 170.491C312.646 169.19 311.68 167.828 310.302 167.828H291.698C290.32 167.828 289.354 169.19 289.812 170.491L299.113 196.959Z" fill="#F05283"/>
<path d="M319.113 196.959C319.74 198.742 322.26 198.742 322.887 196.959L332.188 170.491C332.646 169.19 331.68 167.828 330.302 167.828H311.698C310.32 167.828 309.354 169.19 309.812 170.491L319.113 196.959Z" fill="#F05283"/>
<path d="M339.113 196.959C339.74 198.742 342.26 198.742 342.887 196.959L352.188 170.491C352.646 169.19 351.68 167.828 350.302 167.828H331.698C330.32 167.828 329.354 169.19 329.812 170.491L339.113 196.959Z" fill="#F05283"/>
<path d="M355 56.1009C346.565 56.1009 339.727 49.263 339.727 40.8281C339.727 32.3932 346.565 25.5554 355 25.5554C363.435 25.5554 370.273 32.3932 370.273 40.8281C370.273 49.263 363.435 56.1009 355 56.1009ZM352.455 15.3736C352.455 13.9678 353.594 12.8281 355 12.8281V12.8281C356.406 12.8281 357.545 13.9678 357.545 15.3736V17.919C357.545 19.3249 356.406 20.4645 355 20.4645V20.4645C353.594 20.4645 352.455 19.3248 352.455 17.919V15.3736ZM352.455 63.7372C352.455 62.3314 353.594 61.1918 355 61.1918V61.1918C356.406 61.1918 357.545 62.3314 357.545 63.7372V66.2827C357.545 67.6885 356.406 68.8281 355 68.8281V68.8281C353.594 68.8281 352.455 67.6885 352.455 66.2827V63.7372ZM335.201 24.6289C334.207 23.6349 334.207 22.0232 335.201 21.0291V21.0291C336.195 20.0351 337.807 20.0351 338.801 21.0291L340.601 22.8291C341.595 23.8231 341.595 25.4348 340.601 26.4289V26.4289C339.607 27.4229 337.995 27.4229 337.001 26.4289L335.201 24.6289ZM369.399 58.8274C368.405 57.8333 368.405 56.2215 369.399 55.2274V55.2274C370.393 54.2333 372.005 54.2333 372.999 55.2274L374.799 57.0274C375.793 58.0214 375.793 59.6331 374.799 60.6272V60.6272C373.805 61.6212 372.193 61.6213 371.199 60.6272L369.399 58.8274ZM371.199 21.0291C372.193 20.0351 373.805 20.0351 374.799 21.0291V21.0291C375.793 22.0232 375.793 23.6349 374.799 24.6289L372.999 26.4289C372.005 27.4229 370.393 27.423 369.399 26.4289V26.4289C368.405 25.4348 368.405 23.8231 369.399 22.829L371.199 21.0291ZM337.001 55.2274C337.995 54.2333 339.607 54.2333 340.601 55.2274V55.2274C341.595 56.2215 341.595 57.8332 340.601 58.8273L338.801 60.6272C337.807 61.6212 336.195 61.6212 335.201 60.6272V60.6272C334.207 59.6331 334.207 58.0214 335.201 57.0274L337.001 55.2274ZM380.455 38.2827C381.86 38.2827 383 39.4223 383 40.8281V40.8281C383 42.2339 381.86 43.3736 380.455 43.3736H377.909C376.503 43.3736 375.364 42.2339 375.364 40.8281V40.8281C375.364 39.4223 376.503 38.2827 377.909 38.2827H380.455ZM332.091 38.2827C333.497 38.2827 334.636 39.4223 334.636 40.8281V40.8281C334.636 42.2339 333.497 43.3736 332.091 43.3736H329.545C328.14 43.3736 327 42.2339 327 40.8281V40.8281C327 39.4223 328.14 38.2827 329.545 38.2827H332.091Z" fill="#FFC501"/>
<circle cx="96" cy="58.8281" r="8" fill="#E6F3FC"/>
<circle cx="162" cy="6.82812" r="6" fill="#E6F3FC"/>
<circle cx="399.5" cy="108.328" r="7.5" fill="#E6F3FC"/>
</svg>
