<svg width="278" height="278" viewBox="0 0 278 278" fill="none" xmlns="http://www.w3.org/2000/svg">
<path d="M108.427 91.4072C108.645 73.6933 131.94 67.3543 141.104 82.5153V82.5153C146.02 90.6481 156.502 93.4132 164.79 88.7634V88.7634C180.239 80.0953 197.377 97.1 188.829 112.617V112.617C184.244 120.94 187.09 131.401 195.261 136.253V136.253C210.492 145.299 204.334 168.643 186.623 168.998V168.998C177.122 169.189 169.486 176.884 169.369 186.387V186.387C169.151 204.101 145.856 210.44 136.692 195.279V195.279C131.776 187.146 121.294 184.381 113.006 189.031V189.031C97.5562 197.699 80.4189 180.694 88.9667 165.177V165.177C93.552 156.854 90.7056 146.393 82.5349 141.541V141.541C67.3032 132.495 73.461 109.151 91.1728 108.796V108.796C100.674 108.605 108.31 100.91 108.427 91.4072V91.4072Z" fill="#FFC501"/>
<path d="M135 104.846C139.726 109.57 152.742 117.161 167 109.733" stroke="#F05283" stroke-width="7" stroke-linecap="round"/>
<path d="M152.141 113.578C152.503 117.061 155.112 125.507 162.654 131.425" stroke="#F05283" stroke-width="7" stroke-linecap="round"/>
</svg>
