<svg width="278" height="278" viewBox="0 0 278 278" fill="none" xmlns="http://www.w3.org/2000/svg">
<path d="M108.427 91.5615C108.645 73.8476 131.94 67.5086 141.104 82.6696V82.6696C146.02 90.8024 156.502 93.5675 164.79 88.9177V88.9177C180.239 80.2496 197.377 97.2543 188.829 112.771V112.771C184.244 121.095 187.09 131.555 195.261 136.407V136.407C210.492 145.453 204.334 168.797 186.623 169.153V169.153C177.122 169.343 169.486 177.039 169.369 186.541V186.541C169.151 204.255 145.856 210.594 136.692 195.433V195.433C131.776 187.3 121.294 184.535 113.006 189.185V189.185C97.5562 197.853 80.4189 180.848 88.9667 165.332V165.332C93.552 157.008 90.7056 146.548 82.5349 141.695V141.695C67.3032 132.649 73.461 109.306 91.1728 108.95V108.95C100.674 108.759 108.31 101.064 108.427 91.5615V91.5615Z" fill="#DEF2FF"/>
</svg>
