<svg width="187" height="187" viewBox="0 0 187 187" fill="none" xmlns="http://www.w3.org/2000/svg">
<path d="M88.6482 44.305C99.5348 33.4184 118.124 38.3994 122.109 53.2708L138.239 113.47C142.224 128.341 128.616 141.95 113.744 137.965L53.545 121.835C38.6736 117.85 33.6927 99.2606 44.5793 88.374L88.6482 44.305Z" fill="#FFC501"/>
<path d="M117.02 87.8318L132.446 83.6983C132.979 83.5553 133.528 83.8719 133.671 84.4054L137.545 98.8658C137.688 99.3993 138.237 99.7159 138.77 99.5729L153.231 95.6983C153.764 95.5553 154.312 95.8719 154.455 96.4054L158.33 110.866C158.473 111.399 159.021 111.716 159.555 111.573L174.981 107.439" stroke="#048AE1" stroke-width="8" stroke-linecap="round"/>
</svg>
