<svg width="230" height="303" viewBox="0 0 230 303" fill="none" xmlns="http://www.w3.org/2000/svg">
<path d="M97.2404 283.405L103.211 292.689C103.681 293.42 104.571 293.764 105.411 293.539L197.787 268.787C198.602 268.568 199.192 267.863 199.262 267.022L200.201 255.842C200.237 255.415 200.411 255.012 200.683 254.681C205.205 249.175 214.058 232.988 213.18 208.757C212.048 177.485 202.171 159.943 169.145 121.688C136.118 83.4319 150.512 81.128 131.535 48.9428C111.504 14.9691 70.8257 15.5561 51.8695 35.6075C28.6411 60.1777 34.8569 84.1652 45.7527 119.033C56.6485 153.901 41.076 194.309 51.5235 231.367C59.7487 260.543 84.4557 277.516 96.3361 282.639C96.7106 282.8 97.0198 283.062 97.2404 283.405Z" fill="#F05283"/>
<path d="M122.142 139.458C128.305 136.583 138.116 147.695 142.449 153.872C142.58 154.06 142.674 154.265 142.733 154.487L143.646 157.893C143.891 158.809 143.466 159.769 142.615 160.185C130.514 166.104 108.656 174.715 107.681 166.626C106.836 159.609 112.609 155.583 117.099 153.854C118.325 153.381 118.985 151.937 118.579 150.687C117.379 147 117.128 141.797 122.142 139.458Z" fill="#FFC501"/>
<path fill-rule="evenodd" clip-rule="evenodd" d="M146.811 88.0809C141.694 88.2912 134.927 89.7512 133.788 94.547C132.674 99.2432 137.553 102.028 141.754 103.334C143.395 103.844 144.506 105.481 144.357 107.194C143.992 111.402 144.626 116.5 148.898 116.414C152.916 116.334 156.79 112.738 159.309 109.55C152.543 100.508 149.065 93.9129 146.811 88.0809Z" fill="#FFC501"/>
<path fill-rule="evenodd" clip-rule="evenodd" d="M36.1418 69.4741C38.1668 70.8842 40.3861 71.8553 42.6301 71.8658C47.6589 71.8894 48.1762 65.6912 47.6012 60.8198C47.3996 59.1125 48.4864 57.4578 50.1284 56.9487C54.9888 55.442 60.8835 52.1443 59.4883 46.6455C58.3832 42.2898 53.2162 40.4263 48.2037 39.7764C40.3444 49.4326 36.8266 59.0991 36.1418 69.4741Z" fill="#FFC501"/>
<path fill-rule="evenodd" clip-rule="evenodd" d="M49.7594 155.826C49.7924 155.775 49.8251 155.724 49.8573 155.673C50.7258 154.295 52.9496 153.932 54.0826 155.102C58.0817 159.23 64.0974 163.542 68.1554 160.135C72.2442 156.702 69.7367 150.841 66.9495 146.883C66.1048 145.684 66.5881 143.901 67.9302 143.308C72.0187 141.503 76.7924 138.277 75.7255 134.295C74.6297 130.205 68.1685 130.001 63.3493 130.632C61.9326 130.817 60.6466 129.6 60.7603 128.175C61.1507 123.286 60.6335 116.916 56.5086 116.668C52.875 116.45 49.4287 120.397 47.143 124.085C49.5934 134.31 50.0431 144.962 49.7594 155.826Z" fill="#FFC501"/>
<path d="M174.939 149.02L71.4383 177.988C70.3207 178.301 69.4819 179.217 69.3116 180.366C67.3465 193.615 65.8537 222.171 76.9155 243.513C91.4325 271.521 123.004 272.109 143.198 267.597C159.423 263.972 198.318 253.233 203.794 222.294C209.059 192.546 188.77 165.114 178.207 150.179C177.471 149.138 176.166 148.676 174.939 149.02Z" fill="#D03867"/>
<path d="M168.816 145.483L65.3153 174.451C64.1976 174.763 63.3589 175.68 63.1886 176.828C61.2234 190.078 59.7306 218.633 70.7925 239.976C85.3094 267.984 116.881 268.572 137.075 264.06C153.3 260.435 192.195 249.695 197.671 218.757C202.936 189.009 182.647 161.577 172.084 146.642C171.348 145.601 170.043 145.139 168.816 145.483Z" fill="#19406C"/>
<path d="M106.721 224.859C117.313 223.907 117.111 210.801 115.531 205.229C115.312 204.454 115.475 203.608 116.004 203.001C125.973 191.568 124.11 171.512 110.718 174.094C102.617 175.656 101.014 180.47 101.48 184.425C101.672 186.049 100.313 187.83 98.679 187.753C85.9349 187.152 74.1804 194.21 76.904 204.378C78.8114 211.499 87.7766 211.222 94.5951 208.916C96.384 208.311 98.6011 210.162 98.2315 212.014C96.8929 218.721 97.667 225.672 106.721 224.859Z" fill="#71D569"/>
<path d="M165.832 205.915C160.198 207.425 147.452 214.981 141.548 233.128C135.643 251.274 124.189 261.073 108.734 265.214" stroke="#048AE1" stroke-width="3" stroke-linecap="round"/>
<path d="M163.181 170.908C159.598 168.244 150.689 164.73 143.72 171.981C135.008 181.045 142.89 197.568 129.36 222.416C121.358 237.113 102.195 248.537 91.0512 237.858" stroke="#048AE1" stroke-width="3" stroke-linecap="round"/>
<path d="M109.85 201.762C114.306 202.293 124.439 206.756 129.325 220.355C135.433 237.353 148.785 252.41 172.39 249.709" stroke="#048AE1" stroke-width="3" stroke-linecap="round"/>
<path d="M149.168 195.884C145.856 202.702 154.312 206.838 159.57 208.249C160 208.365 160.312 208.759 160.343 209.203C162.142 234.762 183.722 224.327 182.978 215.812C182.568 211.116 180.598 208.538 178.714 207.344C178.018 206.903 177.754 205.792 178.36 205.234C180.029 203.695 182.386 201.447 184.279 199.417C188.782 194.587 186.934 184.212 177.145 186.317C171.245 187.586 167.994 191.064 166.594 193.777C166.183 194.575 164.809 194.866 164.144 194.264C159.628 190.177 152.228 189.587 149.168 195.884Z" fill="#71D569"/>
<ellipse cx="92.0465" cy="73.499" rx="41" ry="39" transform="rotate(-15 92.0465 73.499)" fill="#D03867"/>
<ellipse cx="85.6637" cy="68.997" rx="41" ry="39" transform="rotate(-15 85.6637 68.997)" fill="white"/>
<path fill-rule="evenodd" clip-rule="evenodd" d="M46.8084 57.775C52.5069 56.3932 62.3288 53.2739 69.3087 48.5341C76.6294 43.5628 82.554 37.3138 85.2087 34.0925C85.5892 33.6308 86.2809 33.5783 86.7255 33.9788C92.2239 38.9323 104.994 46.9887 119.174 45.7851C109.71 33.0456 92.5247 26.784 75.5669 31.3278C61.5018 35.0965 51.0181 45.3808 46.8084 57.775Z" fill="#19406C"/>
<circle cx="67.5005" cy="70.7581" r="4" transform="rotate(-15 67.5005 70.7581)" fill="#19406C"/>
<path d="M57.6818 63.0375C58.617 60.2899 60.8618 58.0443 63.8759 57.2367C66.89 56.4291 69.9568 57.2514 72.1406 59.1633" stroke="#19406C" stroke-width="3" stroke-linecap="round"/>
<path d="M93.422 53.4614C94.3572 50.7137 96.6021 48.4682 99.6161 47.6605C102.63 46.8529 105.697 47.6752 107.881 49.5871" stroke="#19406C" stroke-width="3" stroke-linecap="round"/>
<circle cx="103.239" cy="61.1839" r="4" transform="rotate(-15 103.239 61.1839)" fill="#19406C"/>
<path fill-rule="evenodd" clip-rule="evenodd" d="M79.2109 83.1504C81.231 87.8769 86.4703 90.5225 91.5797 89.1534C96.6891 87.7844 99.9037 82.8736 99.2899 77.7702L79.2109 83.1504Z" fill="#A0A0A0"/>
<circle cx="166.243" cy="172.676" r="6" transform="rotate(-15 166.243 172.676)" fill="#A325E0"/>
<circle cx="90.1786" cy="236.538" r="6" transform="rotate(-15 90.1786 236.538)" fill="#A325E0"/>
</svg>
