<svg width="230" height="303" viewBox="0 0 230 303" fill="none" xmlns="http://www.w3.org/2000/svg">
<path d="M97.2404 283.405L103.211 292.689C103.681 293.42 104.571 293.764 105.411 293.539L197.787 268.787C198.602 268.568 199.192 267.863 199.262 267.022L200.201 255.842C200.237 255.415 200.411 255.012 200.683 254.681C205.205 249.175 214.058 232.988 213.18 208.757C212.048 177.485 202.171 159.943 169.145 121.688C136.118 83.4319 150.512 81.128 131.535 48.9428C111.504 14.9691 70.8257 15.5561 51.8695 35.6075C28.6411 60.1777 34.8569 84.1652 45.7527 119.033C56.6485 153.901 41.076 194.309 51.5235 231.367C59.7487 260.543 84.4557 277.516 96.3361 282.639C96.7106 282.8 97.0198 283.062 97.2404 283.405Z" fill="#F05283"/>
<path d="M121.143 138.457C127.276 135.597 137.019 146.583 141.384 152.778C141.559 153.026 141.669 153.307 141.715 153.607L142.781 160.564C142.912 161.42 142.482 162.264 141.698 162.634C129.633 168.319 107.661 173.748 106.683 165.626C105.837 158.609 111.611 154.583 116.1 152.853C117.326 152.381 117.987 150.936 117.58 149.687C116.38 146 116.13 140.796 121.143 138.457Z" fill="#FF90B2"/>
<path fill-rule="evenodd" clip-rule="evenodd" d="M147.248 89.1823C142.408 89.6134 136.814 91.2267 135.788 95.547C134.674 100.243 139.553 103.028 143.754 104.334C145.395 104.844 146.506 106.481 146.357 108.194C145.992 112.402 146.626 117.5 150.898 117.414C154.588 117.34 158.156 114.303 160.665 111.338C153.448 101.95 149.669 95.1301 147.248 89.1823Z" fill="#FF90B2"/>
<path fill-rule="evenodd" clip-rule="evenodd" d="M36.1418 69.4741C38.1668 70.8842 40.3861 71.8553 42.6301 71.8658C47.6589 71.8894 48.1762 65.6912 47.6012 60.8198C47.3996 59.1125 48.4864 57.4578 50.1284 56.9487C54.9888 55.442 60.8835 52.1443 59.4883 46.6455C58.3832 42.2898 53.2162 40.4263 48.2037 39.7764C40.3444 49.4326 36.8266 59.0991 36.1418 69.4741Z" fill="#FF90B2"/>
<path fill-rule="evenodd" clip-rule="evenodd" d="M49.8176 152.869C49.9113 152.938 50.0002 153.016 50.0833 153.102C54.0825 157.23 60.0982 161.542 64.1561 158.135C68.2449 154.702 65.7374 148.841 62.9502 144.883C62.1055 143.684 62.5888 141.901 63.9309 141.308C68.0194 139.503 72.7931 136.277 71.7263 132.295C70.6304 128.205 64.1693 128.001 59.35 128.631C57.9333 128.817 56.6489 127.599 56.759 126.175C57.1264 121.421 56.5625 115.396 52.5093 114.668C49.494 114.127 47.1823 115.684 45.399 117.9C45.5163 118.276 45.6342 118.654 45.7526 119.033C49.1377 129.866 49.968 141.233 49.8176 152.869Z" fill="#FF90B2"/>
<path d="M168.816 145.483L65.3153 174.451C64.1976 174.763 63.3589 175.68 63.1886 176.828C61.2234 190.078 59.7306 218.633 70.7925 239.976C85.3094 267.984 116.881 268.572 137.075 264.06C153.3 260.435 192.195 249.695 197.671 218.757C202.936 189.009 182.647 161.577 172.084 146.642C171.348 145.601 170.043 145.139 168.816 145.483Z" fill="#FFAEC7"/>
<path d="M106.721 225.859C116.669 225.859 117.008 211.052 115.512 205.234C115.311 204.454 115.476 203.608 116.005 203.002C125.946 191.624 123.623 172.516 110.718 173.095C102.227 173.475 100.853 179.741 101.503 184.416C101.728 186.036 100.313 187.83 98.6795 187.753C85.9353 187.152 74.1809 194.21 76.9044 204.378C78.8118 211.499 87.7771 211.222 94.5956 208.916C96.3845 208.311 98.5993 210.162 98.2279 212.013C96.8767 218.75 97.6279 225.859 106.721 225.859Z" fill="white"/>
<path d="M165.832 205.914C160.198 207.424 147.452 214.98 141.548 233.126C135.643 251.273 124.189 260.071 108.734 264.213" stroke="#F05283" stroke-width="3" stroke-linecap="round"/>
<path d="M163.181 170.908C159.598 168.244 150.689 164.73 143.72 171.981C135.008 181.045 142.89 197.568 129.36 222.416C121.358 237.113 102.195 248.537 91.0512 237.858" stroke="#F05283" stroke-width="3" stroke-linecap="round"/>
<path d="M109.85 201.762C114.306 202.293 124.439 206.756 129.325 220.355C135.433 237.353 148.785 252.41 172.39 249.709" stroke="#F05283" stroke-width="3" stroke-linecap="round"/>
<path d="M150.374 195.43C148.03 202.352 155.391 206.03 160.398 207.37C160.828 207.485 161.14 207.878 161.172 208.322C162.932 233.028 184.294 225.082 184.294 214.863C184.294 210.19 181.352 207.594 179.021 206.437C178.283 206.071 178.021 204.976 178.626 204.417C180.236 202.931 182.485 200.784 184.294 198.843C188.645 194.177 188.232 182.64 178.228 183.431C172.175 183.909 168.572 189.653 167.133 193.277C166.801 194.111 165.438 194.415 164.754 193.835C160.196 189.965 152.354 189.585 150.374 195.43Z" fill="white"/>
<ellipse cx="85.6637" cy="68.997" rx="41" ry="39" transform="rotate(-15 85.6637 68.997)" fill="white"/>
<path fill-rule="evenodd" clip-rule="evenodd" d="M46.8084 57.773C52.5069 56.3913 62.3288 53.2719 69.3087 48.5321C76.6294 43.5609 82.554 37.3118 85.2087 34.0905C85.5892 33.6288 86.2809 33.5764 86.7255 33.9768C92.2239 38.9303 104.994 46.9868 119.174 45.7832C109.71 33.0436 92.5247 26.782 75.5669 31.3259C61.5018 35.0946 51.0181 45.3789 46.8084 57.773Z" fill="#D03867"/>
<circle cx="68.5005" cy="74.7601" r="4" transform="rotate(-15 68.5005 74.7601)" fill="#19406C"/>
<path d="M58.6818 67.0375C59.617 64.2899 61.8618 62.0443 64.8759 61.2367C67.89 60.4291 70.9568 61.2514 73.1406 63.1633" stroke="#19406C" stroke-width="3" stroke-linecap="round"/>
<path d="M94.422 57.4614C95.3572 54.7137 97.6021 52.4682 100.616 51.6605C103.63 50.8529 106.697 51.6752 108.881 53.5871" stroke="#19406C" stroke-width="3" stroke-linecap="round"/>
<circle cx="104.239" cy="65.1839" r="4" transform="rotate(-15 104.239 65.1839)" fill="#19406C"/>
<path fill-rule="evenodd" clip-rule="evenodd" d="M79.2109 83.1504C81.231 87.8769 86.4703 90.5225 91.5797 89.1534C96.6891 87.7844 99.9037 82.8736 99.2899 77.7702L79.2109 83.1504Z" fill="#F05283"/>
<circle cx="166.243" cy="172.676" r="6" transform="rotate(-15 166.243 172.676)" fill="#F05283"/>
<circle cx="90.1786" cy="236.538" r="6" transform="rotate(-15 90.1786 236.538)" fill="#F05283"/>
</svg>
