<svg width="227" height="322" viewBox="0 0 227 322" fill="none" xmlns="http://www.w3.org/2000/svg">
<path opacity="0.32" d="M252.368 107.287C226.691 108.217 207.134 128.254 208.721 152.003C210.308 175.752 190.751 195.789 165.073 196.719C139.396 197.65 119.839 217.686 121.426 241.435C123.013 265.184 103.456 285.221 77.7783 286.151C52.1009 287.082 32.5148 306.69 34.1022 330.439L259.127 398.43L371.191 27.5372L349.639 21.0254C342.735 18.9392 335.355 17.6128 328.342 19.472C308.354 24.7717 294.662 42.3146 296.016 62.5707C297.603 86.3199 278.046 106.356 252.368 107.287Z" fill="#048AE1"/>
<path opacity="0.4" d="M228.368 210.287C202.691 211.217 183.134 231.254 184.721 255.003C186.308 278.752 166.751 298.789 141.073 299.719C115.396 300.65 95.8385 320.686 97.4259 344.435C99.0132 368.184 79.4557 388.221 53.7783 389.151C28.1009 390.082 8.51482 409.69 10.1022 433.439L235.127 501.43L347.191 130.537L325.639 124.025C318.735 121.939 311.355 120.613 304.342 122.472C284.354 127.772 270.662 145.315 272.016 165.571C273.603 189.32 254.046 209.356 228.368 210.287Z" fill="#048AE1"/>
</svg>
