<svg width="214" height="172" viewBox="0 0 214 172" fill="none" xmlns="http://www.w3.org/2000/svg">
<path d="M132.189 2.72266C128.52 2.72266 125.769 9.75425 124.852 13.27L138.15 21.9831C140.29 20.4545 144.662 16.5718 145.029 13.27C145.488 9.1428 136.775 2.72266 132.189 2.72266Z" fill="#19406C"/>
<path d="M32.6755 15.5629C27.9063 23.634 34.6627 31.4604 38.6371 34.3648L47.3506 35.7405L61.5667 23.3588C60.8024 20.1487 58.1732 12.9949 53.7708 10.0599C48.2678 6.39129 38.6371 5.47412 32.6755 15.5629Z" fill="#8AC5EA"/>
<path d="M44.6004 13.7285L43.2246 26.5688" stroke="black" stroke-width="3" stroke-linecap="round"/>
<path d="M38.1797 20.1484H50.1028" stroke="black" stroke-width="3" stroke-linecap="round"/>
<path d="M0.117188 85.7272L36.3452 54.5437L101.464 50.875L135.399 89.3959L113.846 141.216C109.718 134.643 95.2271 118.103 70.2802 104.529C45.3334 90.9551 13.1103 86.3387 0.117188 85.7272Z" fill="#19406C"/>
<path d="M97.3359 167.812L124.851 91.687L137.691 88.9355L155.576 98.5658L141.36 164.602C137.385 166.283 127.052 169.921 117.514 171.022C107.975 172.122 100.087 169.34 97.3359 167.812Z" fill="#0075C1"/>
<path d="M118.432 109.572C125.463 111.865 142.003 116.084 151.908 114.617" stroke="black" stroke-width="3" stroke-linecap="round"/>
<path d="M112.928 127.916C120.152 130.209 137.145 134.428 147.321 132.96" stroke="black" stroke-width="3" stroke-linecap="round"/>
<path d="M105.455 148.291C113.581 150.063 132.619 153.06 143.764 150.869" stroke="black" stroke-width="3" stroke-linecap="round"/>
<path d="M55.6062 23.8179C49.7364 29.6877 43.9888 31.7666 41.8487 32.0723L38.6387 36.1995L73.9495 72.8861L112.012 86.185L155.577 99.0253C160.163 86.3378 167.959 57.1109 162.456 41.7025C155.577 22.4421 142.278 22.9007 134.024 18.3149C125.769 13.729 112.47 -3.69707 93.2099 0.888754C73.9495 5.47457 62.9435 16.4805 55.6062 23.8179Z" fill="#048AE1"/>
<path d="M127.145 12.3529C118.737 10.2128 102.84 5.93278 85.8722 15.5629C72.663 23.06 57.8987 41.3964 51.4785 48.5809" stroke="black" stroke-width="3" stroke-linecap="round"/>
<path d="M132.189 16.0215C126.839 18.0087 115.038 24.8263 106.967 32.5304C98.8961 40.2346 83.1209 60.1982 76.2422 69.217" stroke="black" stroke-width="3" stroke-linecap="round"/>
<path d="M135.858 17.8555C135.705 23.5113 134.574 37.3911 131.272 47.6633C127.97 57.9355 118.279 78.2354 113.846 87.1013" stroke="black" stroke-width="3" stroke-linecap="round"/>
<path d="M141.361 21.0664C144.113 25.0408 149.708 35.9245 150.074 47.6642C150.441 59.4039 146.864 77.3191 145.03 84.8093" stroke="black" stroke-width="3" stroke-linecap="round"/>
<path d="M131.271 67.3828L117.514 87.1018C119.959 91.3819 127.236 99.8504 134.94 99.4836C144.57 99.025 150.091 89.9496 148.697 82.516C147.322 75.1787 136.468 69.9814 131.271 67.3828Z" fill="#8AC5EA"/>
<path d="M133.105 78.8477L135.857 91.688" stroke="black" stroke-width="3" stroke-linecap="round"/>
<path d="M127.604 86.1855L140.902 83.8926" stroke="black" stroke-width="3" stroke-linecap="round"/>
<path d="M72.573 62.7972C55.6972 51.7912 44.7524 38.9509 41.3894 33.9065C37.415 33.2951 29.9242 31.9057 24.4219 33.9065C19.3775 35.7408 13.4159 41.2439 25.7976 54.5427C38.1794 67.8416 72.573 93.5222 92.292 96.7323C108.067 99.3003 115.374 92.2993 117.055 88.4778C109.26 84.5034 89.4488 73.8032 72.573 62.7972Z" fill="#0075C1"/>
<path d="M73.491 60.9632C56.6152 49.9573 45.6703 37.117 42.3074 32.0726C38.333 31.4611 30.8421 30.0718 25.3399 32.0726C20.2954 33.9069 14.3339 39.4099 26.7156 52.7088C39.0973 66.0076 73.491 91.6882 93.21 94.8983C108.985 97.4664 116.292 90.4653 117.973 86.6438C110.178 82.6694 90.3668 71.9692 73.491 60.9632Z" fill="#BCE5FF"/>
<path d="M176.672 16.0214C180.646 10.6713 189.42 0.429622 192.722 2.26395C195.488 3.80026 194.586 12.0919 193.412 17.9785C193.104 19.5215 194.312 20.9867 195.885 20.9851C202.01 20.979 210.449 21.8004 211.066 25.1931C211.646 28.3858 204.993 32.3631 199.464 34.9449C197.776 35.7332 197.489 38.1039 198.972 39.2315C203.71 42.8326 209.35 47.5948 208.773 49.0393C208.039 50.8737 194.404 55.3066 187.678 57.2938" stroke="#19406C" stroke-width="4" stroke-linecap="round"/>
</svg>
