<svg width="193" height="95" viewBox="0 0 193 95" fill="none" xmlns="http://www.w3.org/2000/svg">
<rect width="193" height="95" rx="30" fill="#303434"/>
<path d="M35.5859 53.2985C35.5859 51.5771 36.9814 50.1816 38.7028 50.1816H61.3002C63.0216 50.1816 64.4171 51.5771 64.4171 53.2985V75.1652C64.4171 77.3764 62.1785 78.8845 60.1292 78.0537L51.1726 74.4226C50.4215 74.1182 49.5815 74.1182 48.8305 74.4226L39.8738 78.0537C37.8246 78.8845 35.5859 77.3764 35.5859 75.1651V53.2985Z" fill="#D55C29"/>
<path d="M44.8395 18.0472C47.5479 14.8735 52.4521 14.8735 55.1605 18.0472V18.0472C56.7077 19.8602 59.0928 20.7284 61.4434 20.334V20.334C65.5582 19.6437 69.315 22.7961 69.3497 26.9682V26.9682C69.3695 29.3516 70.6386 31.5497 72.6928 32.7586V32.7586C76.2886 34.8747 77.1402 39.7044 74.485 42.9227V42.9227C72.9682 44.7612 72.5274 47.2609 73.324 49.5073V49.5073C74.7183 53.4397 72.2662 57.6869 68.1635 58.4455V58.4455C65.8198 58.8789 63.8754 60.5104 63.0416 62.7433V62.7433C61.5821 66.6519 56.9736 68.3293 53.3431 66.2733V66.2733C51.2691 65.0987 48.7309 65.0987 46.6569 66.2733V66.2733C43.0264 68.3293 38.4179 66.6519 36.9584 62.7433V62.7433C36.1246 60.5104 34.1802 58.8789 31.8365 58.4455V58.4455C27.7338 57.6869 25.2817 53.4397 26.676 49.5073V49.5073C27.4726 47.2609 27.0318 44.7612 25.515 42.9227V42.9227C22.8598 39.7044 23.7114 34.8747 27.3072 32.7586V32.7586C29.3614 31.5497 30.6305 29.3516 30.6503 26.9682V26.9682C30.685 22.7961 34.4418 19.6437 38.5566 20.334V20.334C40.9072 20.7284 43.2923 19.8602 44.8395 18.0472V18.0472Z" fill="#EA7E51"/>
<circle cx="50.3905" cy="42.3905" r="21.039" fill="#FFA859"/>
<path d="M41.6001 42.7454C41.6001 39.1766 43.6261 36.7298 46.6339 36.7298C49.6417 36.7298 51.6676 39.1766 51.6676 42.7454C51.6676 46.3142 49.7975 48.6831 46.6339 48.6831C43.4702 48.6831 41.6001 46.3142 41.6001 42.7454ZM44.0936 42.7454C44.0936 45.2233 45.0287 46.4701 46.6339 46.4701C48.2391 46.4701 49.1741 45.2233 49.1741 42.7454C49.1741 40.1896 48.2391 38.9428 46.6339 38.9428C45.0287 38.9428 44.0936 40.1896 44.0936 42.7454ZM55.3732 39.2077H52.755V36.948H57.7888V48.4805H55.3732V39.2077Z" fill="white"/>
<path d="M90.264 40.888V33.432H91.832V40.792C91.832 42.648 92.856 43.672 94.696 43.672C96.52 43.672 97.528 42.632 97.528 40.792V33.432H99.112V40.888C99.112 43.544 97.416 45.192 94.696 45.192C91.96 45.192 90.264 43.56 90.264 40.888ZM103.287 45H101.719V33.432H103.287L109.207 42.376V33.432H110.775V45H109.207L103.287 36.056V45ZM120.525 45H113.469V33.432H120.525V34.872H115.037V38.488H119.981V39.88H115.037V43.544H120.525V45ZM122.125 36.552C122.125 34.568 123.725 33.224 126.109 33.224C128.317 33.224 129.741 34.456 129.869 36.456H128.285C128.205 35.304 127.389 34.632 126.093 34.632C124.637 34.632 123.693 35.368 123.693 36.504C123.693 37.432 124.221 37.992 125.309 38.248L127.213 38.696C129.101 39.128 130.061 40.152 130.061 41.784C130.061 43.864 128.445 45.192 125.981 45.192C123.629 45.192 122.061 43.96 121.965 41.976H123.565C123.597 43.08 124.525 43.784 125.981 43.784C127.517 43.784 128.493 43.064 128.493 41.912C128.493 41 127.997 40.424 126.893 40.168L124.989 39.736C123.101 39.304 122.125 38.216 122.125 36.552ZM136.832 45.176C133.536 45.176 131.344 42.808 131.344 39.224C131.344 35.656 133.6 33.24 136.912 33.24C139.52 33.24 141.52 34.792 141.952 37.16H140.272C139.84 35.656 138.544 34.744 136.864 34.744C134.528 34.744 132.992 36.504 132.992 39.208C132.992 41.912 134.528 43.672 136.864 43.672C138.56 43.672 139.904 42.76 140.336 41.336H142C141.504 43.64 139.44 45.176 136.832 45.176ZM154.354 39.208C154.354 42.728 152.05 45.192 148.77 45.192C145.506 45.192 143.234 42.728 143.234 39.208C143.234 35.704 145.522 33.224 148.786 33.224C152.066 33.224 154.354 35.688 154.354 39.208ZM152.706 39.208C152.706 36.52 151.138 34.744 148.786 34.744C146.434 34.744 144.882 36.52 144.882 39.208C144.882 41.896 146.434 43.688 148.786 43.688C151.138 43.688 152.706 41.88 152.706 39.208ZM90.088 66.504V55.176H91.448L91.56 56.584C92.088 55.512 93.144 54.952 94.392 54.952C96.632 54.952 98.024 56.632 98.024 59.032C98.024 61.416 96.712 63.208 94.392 63.208C93.144 63.208 92.104 62.68 91.592 61.72V66.504H90.088ZM91.608 59.096C91.608 60.696 92.536 61.848 94.072 61.848C95.608 61.848 96.52 60.696 96.52 59.096C96.52 57.48 95.608 56.328 94.072 56.328C92.536 56.328 91.608 57.464 91.608 59.096ZM101.97 63.192C100.29 63.192 99.2978 62.248 99.2978 60.824C99.2978 59.384 100.37 58.488 102.21 58.344L104.674 58.152V57.928C104.674 56.616 103.89 56.152 102.834 56.152C101.57 56.152 100.85 56.712 100.85 57.656H99.5378C99.5378 56.024 100.882 54.952 102.898 54.952C104.834 54.952 106.146 55.976 106.146 58.088V63H104.866L104.706 61.736C104.306 62.632 103.234 63.192 101.97 63.192ZM102.402 62.024C103.826 62.024 104.69 61.096 104.69 59.624V59.208L102.69 59.368C101.362 59.496 100.818 60.008 100.818 60.776C100.818 61.608 101.426 62.024 102.402 62.024ZM112.709 55.112V56.488H112.037C110.613 56.488 109.733 57.352 109.733 58.856V63H108.229V55.192H109.637L109.733 56.376C110.053 55.56 110.837 55.016 111.909 55.016C112.181 55.016 112.405 55.048 112.709 55.112ZM116.64 63H115.136V56.44H113.6V55.176H115.136V52.728H116.64V55.176H118.176V56.44H116.64V63ZM121.03 63H119.526V55.176H120.886L121.046 56.376C121.542 55.48 122.534 54.952 123.638 54.952C125.702 54.952 126.646 56.216 126.646 58.216V63H125.142V58.552C125.142 56.968 124.406 56.328 123.254 56.328C121.846 56.328 121.03 57.336 121.03 58.856V63ZM132.105 63.192C129.801 63.192 128.217 61.528 128.217 59.096C128.217 56.648 129.769 54.952 132.041 54.952C134.265 54.952 135.721 56.488 135.721 58.808V59.368L129.673 59.384C129.785 61.032 130.649 61.944 132.137 61.944C133.305 61.944 134.073 61.464 134.329 60.568H135.737C135.353 62.248 134.041 63.192 132.105 63.192ZM132.041 56.216C130.729 56.216 129.897 57 129.705 58.376H134.217C134.217 57.08 133.369 56.216 132.041 56.216ZM141.881 55.112V56.488H141.209C139.785 56.488 138.905 57.352 138.905 58.856V63H137.401V55.192H138.809L138.905 56.376C139.225 55.56 140.009 55.016 141.081 55.016C141.353 55.016 141.577 55.048 141.881 55.112Z" fill="white"/>
</svg>
