<svg width="193" height="95" viewBox="0 0 193 95" fill="none" xmlns="http://www.w3.org/2000/svg">
<rect width="193" height="95" rx="30" fill="#303434"/>
<path d="M35.5859 53.2985C35.5859 51.5771 36.9814 50.1816 38.7028 50.1816H61.3002C63.0216 50.1816 64.4171 51.5771 64.4171 53.2985V75.1652C64.4171 77.3764 62.1785 78.8845 60.1292 78.0537L51.1726 74.4226C50.4215 74.1182 49.5815 74.1182 48.8305 74.4226L39.8738 78.0537C37.8246 78.8845 35.5859 77.3764 35.5859 75.1651V53.2985Z" fill="#D55C29"/>
<path d="M44.8395 18.0472C47.5479 14.8735 52.4521 14.8735 55.1605 18.0472C56.7077 19.8602 59.0928 20.7284 61.4434 20.334C65.5582 19.6437 69.315 22.7961 69.3497 26.9682C69.3695 29.3516 70.6386 31.5497 72.6928 32.7586C76.2886 34.8747 77.1402 39.7044 74.485 42.9227C72.9682 44.7612 72.5274 47.2609 73.324 49.5073C74.7183 53.4397 72.2662 57.6869 68.1635 58.4455C65.8198 58.8789 63.8754 60.5104 63.0416 62.7433C61.5821 66.6519 56.9736 68.3293 53.3431 66.2733C51.2691 65.0987 48.7309 65.0987 46.6569 66.2733C43.0264 68.3293 38.4179 66.6519 36.9584 62.7433C36.1246 60.5104 34.1802 58.8789 31.8365 58.4455C27.7338 57.6869 25.2817 53.4397 26.676 49.5073C27.4726 47.2609 27.0318 44.7612 25.515 42.9227C22.8598 39.7044 23.7114 34.8747 27.3072 32.7586C29.3614 31.5497 30.6305 29.3516 30.6503 26.9682C30.685 22.7961 34.4418 19.6437 38.5566 20.334C40.9072 20.7284 43.2923 19.8602 44.8395 18.0472Z" fill="#EA7E51"/>
<circle cx="50.3905" cy="42.3895" r="21.039" fill="#FFA859"/>
<path d="M41.6001 42.7453C41.6001 39.1765 43.6261 36.7298 46.6339 36.7298C49.6417 36.7298 51.6676 39.1765 51.6676 42.7453C51.6676 46.3142 49.7975 48.683 46.6339 48.683C43.4702 48.683 41.6001 46.3142 41.6001 42.7453ZM44.0936 42.7453C44.0936 45.2233 45.0287 46.47 46.6339 46.47C48.2391 46.47 49.1741 45.2233 49.1741 42.7453C49.1741 40.1895 48.2391 38.9427 46.6339 38.9427C45.0287 38.9427 44.0936 40.1895 44.0936 42.7453ZM55.3732 39.2077H52.755V36.9479H57.7888V48.4804H55.3732V39.2077Z" fill="white"/>
<path d="M90.264 40.888V33.432H91.832V40.792C91.832 42.648 92.856 43.672 94.696 43.672C96.52 43.672 97.528 42.632 97.528 40.792V33.432H99.112V40.888C99.112 43.544 97.416 45.192 94.696 45.192C91.96 45.192 90.264 43.56 90.264 40.888ZM103.287 45H101.719V33.432H103.287L109.207 42.376V33.432H110.775V45H109.207L103.287 36.056V45ZM118.324 45H116.692L120.916 33.432H122.66L126.9 45H125.252L124.212 42.12H119.348L118.324 45ZM121.588 35.928L119.828 40.76H123.748L121.972 35.928C121.892 35.704 121.812 35.432 121.78 35.256C121.748 35.416 121.668 35.688 121.588 35.928ZM129.471 45L126.911 37.176H128.463L129.759 41.24C129.935 41.816 130.095 42.408 130.239 43.096C130.367 42.408 130.575 41.752 130.751 41.24L132.063 37.176H133.599L134.895 41.24C135.023 41.624 135.279 42.536 135.407 43.096C135.535 42.472 135.679 41.928 135.903 41.24L137.215 37.176H138.783L136.111 45H134.687L133.327 40.808C133.071 40.024 132.911 39.416 132.831 38.984C132.751 39.368 132.607 39.88 132.319 40.824L130.959 45H129.471ZM142.001 45.192C140.321 45.192 139.329 44.248 139.329 42.824C139.329 41.384 140.401 40.488 142.241 40.344L144.705 40.152V39.928C144.705 38.616 143.921 38.152 142.865 38.152C141.601 38.152 140.881 38.712 140.881 39.656H139.569C139.569 38.024 140.913 36.952 142.929 36.952C144.865 36.952 146.177 37.976 146.177 40.088V45H144.897L144.737 43.736C144.337 44.632 143.265 45.192 142.001 45.192ZM142.433 44.024C143.857 44.024 144.721 43.096 144.721 41.624V41.208L142.721 41.368C141.393 41.496 140.849 42.008 140.849 42.776C140.849 43.608 141.457 44.024 142.433 44.024ZM152.74 37.112V38.488H152.068C150.644 38.488 149.764 39.352 149.764 40.856V45H148.26V37.192H149.668L149.764 38.376C150.084 37.56 150.868 37.016 151.94 37.016C152.212 37.016 152.436 37.048 152.74 37.112ZM157.005 45.192C154.733 45.192 153.357 43.496 153.357 41.112C153.357 38.712 154.749 36.952 157.069 36.952C158.269 36.952 159.277 37.48 159.805 38.44V33.224H161.293V45H159.949L159.821 43.576C159.309 44.648 158.253 45.192 157.005 45.192ZM157.309 43.832C158.845 43.832 159.789 42.696 159.789 41.064C159.789 39.464 158.845 38.312 157.309 38.312C155.773 38.312 154.877 39.464 154.877 41.064C154.877 42.68 155.773 43.832 157.309 43.832ZM92.68 63L89.24 51.432H90.872L92.984 58.504C93.144 59.112 93.304 59.72 93.464 60.6C93.656 59.672 93.832 59.112 94.008 58.504L96.2 51.432H97.896L100.072 58.504C100.264 59.128 100.424 59.736 100.6 60.6C100.792 59.624 100.952 59.032 101.112 58.52L103.24 51.432H104.84L101.352 63H99.848L97.048 53.848L94.216 63H92.68ZM106.902 53.32C106.358 53.32 105.91 52.872 105.91 52.328C105.91 51.768 106.358 51.336 106.902 51.336C107.446 51.336 107.894 51.768 107.894 52.328C107.894 52.872 107.446 53.32 106.902 53.32ZM106.166 63V55.176H107.67V63H106.166ZM111.358 63H109.854V55.176H111.214L111.374 56.376C111.87 55.48 112.862 54.952 113.966 54.952C116.03 54.952 116.974 56.216 116.974 58.216V63H115.47V58.552C115.47 56.968 114.734 56.328 113.582 56.328C112.174 56.328 111.358 57.336 111.358 58.856V63ZM120.561 63H119.057V55.176H120.417L120.577 56.376C121.073 55.48 122.065 54.952 123.169 54.952C125.233 54.952 126.177 56.216 126.177 58.216V63H124.673V58.552C124.673 56.968 123.937 56.328 122.785 56.328C121.377 56.328 120.561 57.336 120.561 58.856V63ZM131.636 63.192C129.332 63.192 127.748 61.528 127.748 59.096C127.748 56.648 129.3 54.952 131.572 54.952C133.796 54.952 135.252 56.488 135.252 58.808V59.368L129.204 59.384C129.316 61.032 130.18 61.944 131.668 61.944C132.836 61.944 133.604 61.464 133.86 60.568H135.268C134.884 62.248 133.572 63.192 131.636 63.192ZM131.572 56.216C130.26 56.216 129.428 57 129.236 58.376H133.748C133.748 57.08 132.9 56.216 131.572 56.216ZM141.412 55.112V56.488H140.74C139.316 56.488 138.436 57.352 138.436 58.856V63H136.932V55.192H138.34L138.436 56.376C138.756 55.56 139.54 55.016 140.612 55.016C140.884 55.016 141.108 55.048 141.412 55.112Z" fill="white"/>
</svg>
