<svg width="24" height="24" viewBox="0 0 24 24" fill="none" xmlns="http://www.w3.org/2000/svg">
<g id="ri:instagram-fill">
<path id="Vector" d="M13.0286 1.99928C13.7583 1.99648 14.488 2.00381 15.2176 2.02128L15.4116 2.02828C15.6356 2.03628 15.8566 2.04628 16.1236 2.05828C17.1876 2.10828 17.9136 2.27628 18.5506 2.52328C19.2106 2.77728 19.7666 3.12128 20.3226 3.67728C20.831 4.17688 21.2244 4.78122 21.4756 5.44828C21.7226 6.08528 21.8906 6.81228 21.9406 7.87628C21.9526 8.14228 21.9626 8.36428 21.9706 8.58828L21.9766 8.78228C21.9943 9.51147 22.002 10.2409 21.9996 10.9703L22.0006 11.7163V13.0263C22.003 13.756 21.9954 14.4858 21.9776 15.2153L21.9716 15.4093C21.9636 15.6333 21.9536 15.8543 21.9416 16.1213C21.8916 17.1853 21.7216 17.9113 21.4756 18.5483C21.2252 19.216 20.8317 19.8209 20.3226 20.3203C19.8225 20.8286 19.2179 21.222 18.5506 21.4733C17.9136 21.7203 17.1876 21.8883 16.1236 21.9383C15.8566 21.9503 15.6356 21.9603 15.4116 21.9683L15.2176 21.9743C14.4881 21.9921 13.7583 21.9997 13.0286 21.9973L12.2826 21.9983H10.9736C10.2438 22.0007 9.5141 21.9931 8.78458 21.9753L8.59058 21.9693C8.35319 21.9607 8.11585 21.9507 7.87858 21.9393C6.81458 21.8893 6.08858 21.7193 5.45058 21.4733C4.78326 21.2226 4.17881 20.8291 3.67958 20.3203C3.17062 19.8206 2.7768 19.2158 2.52558 18.5483C2.27858 17.9113 2.11058 17.1853 2.06058 16.1213C2.04944 15.884 2.03944 15.6467 2.03058 15.4093L2.02558 15.2153C2.00714 14.4858 1.99881 13.756 2.00058 13.0263V10.9703C1.99779 10.2409 2.00512 9.51147 2.02258 8.78228L2.02958 8.58828C2.03758 8.36428 2.04758 8.14228 2.05958 7.87628C2.10958 6.81128 2.27758 6.08628 2.52458 5.44828C2.77595 4.7809 3.17054 4.17672 3.68058 3.67828C4.17947 3.16903 4.78354 2.77485 5.45058 2.52328C6.08858 2.27628 6.81358 2.10828 7.87858 2.05828L8.59058 2.02828L8.78458 2.02328C9.51376 2.00485 10.2432 1.99652 10.9726 1.99828L13.0286 1.99928ZM12.0006 6.99928C11.3381 6.98991 10.6803 7.1123 10.0656 7.35934C9.45077 7.60639 8.89122 7.97316 8.41942 8.43833C7.94762 8.90351 7.57298 9.45781 7.31726 10.069C7.06155 10.6803 6.92987 11.3362 6.92987 11.9988C6.92987 12.6613 7.06155 13.3173 7.31726 13.9285C7.57298 14.5397 7.94762 15.094 8.41942 15.5592C8.89122 16.0244 9.45077 16.3912 10.0656 16.6382C10.6803 16.8853 11.3381 17.0076 12.0006 16.9983C13.3267 16.9983 14.5984 16.4715 15.5361 15.5338C16.4738 14.5961 17.0006 13.3244 17.0006 11.9983C17.0006 10.6722 16.4738 9.40042 15.5361 8.46274C14.5984 7.52506 13.3267 6.99928 12.0006 6.99928ZM12.0006 8.99928C12.3991 8.99193 12.7951 9.06407 13.1654 9.21148C13.5357 9.35889 13.8729 9.57862 14.1574 9.85782C14.4418 10.137 14.6678 10.4701 14.822 10.8376C14.9763 11.2051 15.0558 11.5997 15.0558 11.9983C15.0559 12.3968 14.9766 12.7914 14.8224 13.159C14.6683 13.5266 14.4424 13.8597 14.1581 14.139C13.8737 14.4183 13.5366 14.6381 13.1663 14.7857C12.796 14.9332 12.4001 15.0055 12.0016 14.9983C11.2059 14.9983 10.4429 14.6822 9.88026 14.1196C9.31765 13.557 9.00158 12.7939 9.00158 11.9983C9.00158 11.2026 9.31765 10.4396 9.88026 9.87696C10.4429 9.31435 11.2059 8.99828 12.0016 8.99828L12.0006 8.99928ZM17.2506 5.49928C16.928 5.51219 16.6229 5.64943 16.3992 5.88225C16.1755 6.11507 16.0506 6.42541 16.0506 6.74828C16.0506 7.07114 16.1755 7.38148 16.3992 7.61431C16.6229 7.84713 16.928 7.98436 17.2506 7.99728C17.5821 7.99728 17.9 7.86558 18.1345 7.63116C18.3689 7.39674 18.5006 7.0788 18.5006 6.74728C18.5006 6.41576 18.3689 6.09781 18.1345 5.86339C17.9 5.62897 17.5821 5.49728 17.2506 5.49728V5.49928Z" fill="white"/>
</g>
</svg>
