<svg width="24" height="24" viewBox="0 0 24 24" fill="none" xmlns="http://www.w3.org/2000/svg">
<g id="ri:twitter-fill">
<path id="Vector" d="M22.2121 5.6569C21.449 5.9945 20.6397 6.21628 19.8111 6.3149C20.6842 5.79204 21.3374 4.96964 21.6491 4.0009C20.8291 4.4889 19.9301 4.8309 18.9941 5.0159C18.3647 4.34248 17.5305 3.89587 16.6211 3.74549C15.7117 3.59511 14.7781 3.74939 13.9654 4.18436C13.1527 4.61932 12.5065 5.31059 12.1272 6.1507C11.748 6.9908 11.6569 7.93268 11.8681 8.8299C10.2051 8.74669 8.57809 8.31463 7.09287 7.56177C5.60764 6.8089 4.29736 5.75207 3.24713 4.4599C2.87542 5.09835 2.68008 5.82413 2.68113 6.5629C2.68113 8.0129 3.42013 9.2939 4.54113 10.0439C3.87714 10.023 3.22777 9.84365 2.64713 9.5209V9.5719C2.64709 10.5378 2.98116 11.4739 3.59266 12.2216C4.20415 12.9692 5.05544 13.4823 6.00213 13.6739C5.38577 13.8411 4.73942 13.8657 4.11213 13.7459C4.37905 14.5773 4.89934 15.3044 5.60012 15.8253C6.30091 16.3462 7.14708 16.6349 8.02013 16.6509C7.15248 17.3324 6.15901 17.8361 5.09653 18.1333C4.03406 18.4305 2.92341 18.5153 1.82812 18.3829C3.73985 19.6123 5.96523 20.265 8.23813 20.2629C15.9321 20.2629 20.1381 13.8899 20.1381 8.3629C20.1381 8.1829 20.1341 8.0009 20.1261 7.8219C20.9445 7.23026 21.6509 6.49646 22.2121 5.6569Z" fill="white"/>
</g>
</svg>
